140614_FengardoRedux_Regular 2.ufo
<glyph name="exclam" format="1">
  <advance width="226"/>
  <unicode hex="0021"/>
  <outline>
    <contour>
      <point x="65" y="700" type="line"/>
      <point x="83" y="175" type="line"/>
      <point x="143" y="175" type="line"/>
      <point x="162" y="715" type="line"/>
    </contour>
    <contour>
      <point x="50" y="46" type="curve" smooth="yes"/>
      <point x="50" y="11"/>
      <point x="77" y="-15"/>
      <point x="112" y="-15" type="curve" smooth="yes"/>
      <point x="148" y="-15"/>
      <point x="176" y="11"/>
      <point x="176" y="46" type="curve" smooth="yes"/>
      <point x="176" y="82"/>
      <point x="148" y="110"/>
      <point x="112" y="110" type="curve" smooth="yes"/>
      <point x="77" y="110"/>
      <point x="50" y="82"/>
    </contour>
  </outline>
</glyph>
<glyph name="quotedbl" format="1">
  <advance width="330"/>
  <unicode hex="0022"/>
  <outline>
    <contour>
      <point x="52" y="691" type="line"/>
      <point x="62" y="593"/>
      <point x="83" y="460"/>
      <point x="83" y="460" type="curve"/>
      <point x="140" y="460" type="line"/>
      <point x="140" y="725" type="line"/>
    </contour>
    <contour>
      <point x="190" y="691" type="line"/>
      <point x="190" y="460" type="line"/>
      <point x="247" y="460" type="line"/>
      <point x="247" y="460"/>
      <point x="270" y="645"/>
      <point x="278" y="725" type="curve"/>
    </contour>
  </outline>
</glyph>
<glyph name="numbersign" format="1">
  <advance width="590"/>
  <unicode hex="0023"/>
  <outline>
    <contour>
      <point x="335" y="0" type="line"/>
      <point x="396" y="0" type="line"/>
      <point x="414" y="183" type="line"/>
      <point x="544" y="183" type="line"/>
      <point x="548" y="236" type="line"/>
      <point x="420" y="236" type="line"/>
      <point x="433" y="376" type="line"/>
      <point x="560" y="376" type="line"/>
      <point x="563" y="429" type="line"/>
      <point x="437" y="429" type="line"/>
      <point x="455" y="600" type="line"/>
      <point x="394" y="600" type="line"/>
      <point x="376" y="429" type="line"/>
      <point x="241" y="429" type="line"/>
      <point x="260" y="600" type="line"/>
      <point x="198" y="600" type="line"/>
      <point x="180" y="429" type="line"/>
      <point x="46" y="429" type="line"/>
      <point x="43" y="376" type="line"/>
      <point x="175" y="376" type="line"/>
      <point x="161" y="236" type="line"/>
      <point x="31" y="236" type="line"/>
      <point x="27" y="183" type="line"/>
      <point x="156" y="183" type="line"/>
      <point x="138" y="0" type="line"/>
      <point x="199" y="0" type="line"/>
      <point x="218" y="183" type="line"/>
      <point x="353" y="183" type="line"/>
    </contour>
    <contour>
      <point x="237" y="376" type="line"/>
      <point x="371" y="376" type="line"/>
      <point x="358" y="236" type="line"/>
      <point x="223" y="236" type="line"/>
    </contour>
  </outline>
</glyph>
<glyph name="dollar" format="1">
  <advance width="564"/>
  <unicode hex="0024"/>
  <outline>
    <contour>
      <point x="261" y="77" type="line"/>
      <point x="261" y="-65" type="line"/>
      <point x="331" y="-38" type="line"/>
      <point x="331" y="58" type="line"/>
    </contour>
    <contour>
      <point x="326" y="629" type="line"/>
      <point x="326" y="780" type="line"/>
      <point x="256" y="753" type="line"/>
      <point x="256" y="650" type="line"/>
    </contour>
    <contour>
      <point x="408" y="197" type="curve" smooth="yes"/>
      <point x="408" y="136"/>
      <point x="363" y="105"/>
      <point x="298" y="105" type="curve" smooth="yes"/>
      <point x="229" y="105"/>
      <point x="165" y="136"/>
      <point x="158" y="215" type="curve"/>
      <point x="83" y="210" type="line"/>
      <point x="86" y="92"/>
      <point x="185" y="35"/>
      <point x="297" y="35" type="curve" smooth="yes"/>
      <point x="396" y="35"/>
      <point x="493" y="91"/>
      <point x="493" y="203" type="curve" smooth="yes"/>
      <point x="493" y="300"/>
      <point x="439" y="340"/>
      <point x="319" y="389" type="curve" smooth="yes"/>
      <point x="252" y="416"/>
      <point x="179" y="444"/>
      <point x="179" y="512" type="curve" smooth="yes"/>
      <point x="179" y="578"/>
      <point x="231" y="606"/>
      <point x="286" y="606" type="curve" smooth="yes"/>
      <point x="350" y="606"/>
      <point x="397" y="568"/>
      <point x="397" y="496" type="curve"/>
      <point x="472" y="501" type="line"/>
      <point x="479" y="624"/>
      <point x="383" y="676"/>
      <point x="286" y="676" type="curve" smooth="yes"/>
      <point x="179" y="676"/>
      <point x="94" y="609"/>
      <point x="94" y="505" type="curve" smooth="yes"/>
      <point x="94" y="399"/>
      <point x="164" y="360"/>
      <point x="254" y="322" type="curve" smooth="yes"/>
      <point x="351" y="281"/>
      <point x="408" y="267"/>
    </contour>
  </outline>
</glyph>
<glyph name="percent" format="1">
  <advance width="886"/>
  <unicode hex="0025"/>
  <outline>
    <contour>
      <point x="77" y="572" type="curve" smooth="yes"/>
      <point x="77" y="486"/>
      <point x="139" y="429"/>
      <point x="225" y="429" type="curve" smooth="yes"/>
      <point x="306" y="429"/>
      <point x="373" y="486"/>
      <point x="373" y="572" type="curve" smooth="yes"/>
      <point x="373" y="658"/>
      <point x="311" y="715"/>
      <point x="225" y="715" type="curve" smooth="yes"/>
      <point x="139" y="715"/>
      <point x="77" y="658"/>
    </contour>
    <contour>
      <point x="153" y="572" type="curve" smooth="yes"/>
      <point x="153" y="626"/>
      <point x="184" y="655"/>
      <point x="225" y="655" type="curve" smooth="yes"/>
      <point x="267" y="655"/>
      <point x="298" y="626"/>
      <point x="298" y="572" type="curve" smooth="yes"/>
      <point x="298" y="519"/>
      <point x="267" y="490"/>
      <point x="225" y="490" type="curve" smooth="yes"/>
      <point x="184" y="490"/>
      <point x="153" y="519"/>
    </contour>
    <contour>
      <point x="513" y="128" type="curve" smooth="yes"/>
      <point x="513" y="42"/>
      <point x="575" y="-15"/>
      <point x="661" y="-15" type="curve" smooth="yes"/>
      <point x="742" y="-15"/>
      <point x="809" y="42"/>
      <point x="809" y="128" type="curve" smooth="yes"/>
      <point x="809" y="214"/>
      <point x="747" y="271"/>
      <point x="661" y="271" type="curve" smooth="yes"/>
      <point x="575" y="271"/>
      <point x="513" y="214"/>
    </contour>
    <contour>
      <point x="589" y="128" type="curve" smooth="yes"/>
      <point x="589" y="182"/>
      <point x="620" y="211"/>
      <point x="661" y="211" type="curve" smooth="yes"/>
      <point x="703" y="211"/>
      <point x="734" y="182"/>
      <point x="734" y="128" type="curve" smooth="yes"/>
      <point x="734" y="75"/>
      <point x="703" y="46"/>
      <point x="661" y="46" type="curve" smooth="yes"/>
      <point x="620" y="46"/>
      <point x="589" y="75"/>
    </contour>
    <component base="fraction" xOffset="127"/>
  </outline>
</glyph>
<glyph name="parenleft" format="1">
  <advance width="358"/>
  <unicode hex="0028"/>
  <outline>
    <contour>
      <point x="290" y="-115" type="line"/>
      <point x="211" y="-10"/>
      <point x="162" y="135"/>
      <point x="162" y="296" type="curve" smooth="yes"/>
      <point x="162" y="459"/>
      <point x="211" y="614"/>
      <point x="291" y="720" type="curve"/>
      <point x="237" y="752" type="line"/>
      <point x="132" y="616"/>
      <point x="77" y="448"/>
      <point x="77" y="294" type="curve" smooth="yes"/>
      <point x="77" y="135"/>
      <point x="135" y="-29"/>
      <point x="237" y="-152" type="curve"/>
    </contour>
  </outline>
</glyph>
<glyph name="slash" format="1">
  <advance width="407"/>
  <unicode hex="002F"/>
  <outline>
    <contour>
      <point x="415" y="750" type="line"/>
      <point x="343" y="750" type="line"/>
      <point x="-8" y="-140" type="line"/>
      <point x="67" y="-140" type="line"/>
    </contour>
  </outline>
</glyph>
<glyph name="zero" format="1">
  <advance width="531"/>
  <unicode hex="0030"/>
  <outline>
    <contour>
      <point x="266" y="-15" type="curve" smooth="yes"/>
      <point x="152" y="-15"/>
      <point x="71" y="56"/>
      <point x="66" y="176" type="curve" smooth="yes"/>
      <point x="63" y="232"/>
      <point x="63" y="276"/>
      <point x="66" y="329" type="curve" smooth="yes"/>
      <point x="72" y="447"/>
      <point x="156" y="515"/>
      <point x="266" y="515" type="curve" smooth="yes"/>
      <point x="375" y="515"/>
      <point x="458" y="447"/>
      <point x="465" y="329" type="curve" smooth="yes"/>
      <point x="468" y="276"/>
      <point x="468" y="232"/>
      <point x="465" y="176" type="curve" smooth="yes"/>
      <point x="459" y="56"/>
      <point x="379" y="-15"/>
    </contour>
    <contour>
      <point x="266" y="60" type="curve" smooth="yes"/>
      <point x="326" y="60"/>
      <point x="371" y="99"/>
      <point x="374" y="175" type="curve" smooth="yes"/>
      <point x="376" y="229"/>
      <point x="376" y="281"/>
      <point x="374" y="329" type="curve" smooth="yes"/>
      <point x="371" y="409"/>
      <point x="326" y="440"/>
      <point x="266" y="440" type="curve" smooth="yes"/>
      <point x="205" y="440"/>
      <point x="159" y="409"/>
      <point x="156" y="329" type="curve" smooth="yes"/>
      <point x="155" y="281"/>
      <point x="154" y="229"/>
      <point x="156" y="175" type="curve" smooth="yes"/>
      <point x="159" y="99"/>
      <point x="205" y="60"/>
    </contour>
  </outline>
</glyph>
<glyph name="one" format="1">
  <advance width="396"/>
  <unicode hex="0031"/>
  <outline>
    <contour>
      <point x="166" y="423" type="line"/>
      <point x="166" y="70" type="line"/>
      <point x="72" y="60" type="line"/>
      <point x="72" y="0" type="line"/>
      <point x="348" y="0" type="line"/>
      <point x="348" y="60" type="line"/>
      <point x="256" y="70" type="line"/>
      <point x="256" y="503" type="line"/>
      <point x="221" y="507" type="line"/>
      <point x="75" y="470" type="line"/>
      <point x="83" y="420" type="line"/>
    </contour>
  </outline>
</glyph>
<glyph name="two" format="1">
  <advance width="488"/>
  <unicode hex="0032"/>
  <outline>
    <contour>
      <point x="65" y="0" type="line"/>
      <point x="438" y="0" type="line"/>
      <point x="438" y="75" type="line"/>
      <point x="259" y="75" type="line"/>
      <point x="172" y="65" type="line"/>
      <point x="216" y="92"/>
      <point x="268" y="127"/>
      <point x="312" y="169" type="curve" smooth="yes"/>
      <point x="369" y="224"/>
      <point x="414" y="289"/>
      <point x="414" y="360" type="curve" smooth="yes"/>
      <point x="414" y="455"/>
      <point x="348" y="515"/>
      <point x="241" y="515" type="curve" smooth="yes"/>
      <point x="123" y="515"/>
      <point x="46" y="424"/>
      <point x="56" y="324" type="curve"/>
      <point x="136" y="329" type="line"/>
      <point x="137" y="409"/>
      <point x="183" y="440"/>
      <point x="237" y="440" type="curve" smooth="yes"/>
      <point x="297" y="440"/>
      <point x="324" y="403"/>
      <point x="324" y="346" type="curve" smooth="yes"/>
      <point x="324" y="294"/>
      <point x="288" y="242"/>
      <point x="242" y="197" type="curve" smooth="yes"/>
      <point x="176" y="132"/>
      <point x="89" y="79"/>
      <point x="55" y="54" type="curve"/>
    </contour>
  </outline>
</glyph>
<glyph name="five" format="1">
  <advance width="500"/>
  <unicode hex="0035"/>
  <outline>
    <contour>
      <point x="435" y="60" type="curve" smooth="yes"/>
      <point x="435" y="189"/>
      <point x="365" y="260"/>
      <point x="255" y="260" type="curve" smooth="yes"/>
      <point x="215" y="260"/>
      <point x="181" y="247"/>
      <point x="152" y="225" type="curve"/>
      <point x="176" y="425" type="line"/>
      <point x="414" y="425" type="line"/>
      <point x="414" y="500" type="line"/>
      <point x="108" y="500" type="line"/>
      <point x="71" y="160" type="line"/>
      <point x="139" y="155" type="line"/>
      <point x="139" y="155"/>
      <point x="163" y="195"/>
      <point x="226" y="195" type="curve" smooth="yes"/>
      <point x="311" y="195"/>
      <point x="345" y="140"/>
      <point x="345" y="60" type="curve" smooth="yes"/>
      <point x="345" y="-34"/>
      <point x="303" y="-75"/>
      <point x="234" y="-75" type="curve" smooth="yes"/>
      <point x="169" y="-75"/>
      <point x="125" y="-38"/>
      <point x="115" y="28" type="curve"/>
      <point x="35" y="24" type="line"/>
      <point x="40" y="-79"/>
      <point x="125" y="-150"/>
      <point x="234" y="-150" type="curve" smooth="yes"/>
      <point x="348" y="-150"/>
      <point x="435" y="-69"/>
    </contour>
  </outline>
</glyph>
<glyph name="six" format="1">
  <advance width="540"/>
  <unicode hex="0036"/>
  <outline>
    <contour>
      <point x="70" y="209" type="curve" smooth="yes"/>
      <point x="77" y="73"/>
      <point x="159" y="-15"/>
      <point x="282" y="-15" type="curve" smooth="yes"/>
      <point x="401" y="-15"/>
      <point x="482" y="66"/>
      <point x="482" y="196" type="curve" smooth="yes"/>
      <point x="482" y="334"/>
      <point x="402" y="388"/>
      <point x="306" y="388" type="curve" smooth="yes"/>
      <point x="229" y="388"/>
      <point x="168" y="339"/>
      <point x="147" y="271" type="curve"/>
      <point x="143" y="214" type="line"/>
      <point x="158" y="174" type="line"/>
      <point x="149" y="263"/>
      <point x="209" y="318"/>
      <point x="281" y="318" type="curve" smooth="yes"/>
      <point x="342" y="318"/>
      <point x="392" y="290"/>
      <point x="392" y="196" type="curve" smooth="yes"/>
      <point x="392" y="104"/>
      <point x="353" y="60"/>
      <point x="282" y="60" type="curve" smooth="yes"/>
      <point x="201" y="60"/>
      <point x="160" y="115"/>
      <point x="156" y="205" type="curve" smooth="yes"/>
      <point x="154" y="280"/>
      <point x="152" y="374"/>
      <point x="156" y="443" type="curve" smooth="yes"/>
      <point x="161" y="536"/>
      <point x="199" y="585"/>
      <point x="275" y="585" type="curve" smooth="yes"/>
      <point x="346" y="585"/>
      <point x="373" y="537"/>
      <point x="374" y="474" type="curve"/>
      <point x="454" y="479" type="line"/>
      <point x="456" y="595"/>
      <point x="383" y="660"/>
      <point x="280" y="660" type="curve" smooth="yes"/>
      <point x="147" y="660"/>
      <point x="76" y="566"/>
      <point x="70" y="443" type="curve" smooth="yes"/>
      <point x="66" y="371"/>
      <point x="68" y="271"/>
    </contour>
  </outline>
</glyph>
<glyph name="seven" format="1">
  <advance width="463"/>
  <unicode hex="0037"/>
  <outline>
    <contour>
      <point x="414" y="500" type="line"/>
      <point x="20" y="500" type="line"/>
      <point x="20" y="425" type="line"/>
      <point x="330" y="425" type="line"/>
      <point x="52" y="-135" type="line"/>
      <point x="143" y="-135" type="line"/>
      <point x="428" y="445" type="line"/>
    </contour>
  </outline>
</glyph>
<glyph name="eight" format="1">
  <advance width="543"/>
  <unicode hex="0038"/>
  <outline>
    <contour>
      <point x="272" y="-15" type="curve" smooth="yes"/>
      <point x="402" y="-15"/>
      <point x="483" y="69"/>
      <point x="483" y="176" type="curve" smooth="yes"/>
      <point x="483" y="246"/>
      <point x="437" y="313"/>
      <point x="370" y="335" type="curve"/>
      <point x="428" y="362"/>
      <point x="468" y="409"/>
      <point x="468" y="474" type="curve" smooth="yes"/>
      <point x="468" y="595"/>
      <point x="380" y="660"/>
      <point x="272" y="660" type="curve" smooth="yes"/>
      <point x="163" y="660"/>
      <point x="75" y="595"/>
      <point x="75" y="474" type="curve" smooth="yes"/>
      <point x="75" y="409"/>
      <point x="115" y="362"/>
      <point x="172" y="335" type="curve"/>
      <point x="105" y="313"/>
      <point x="60" y="246"/>
      <point x="60" y="176" type="curve" smooth="yes"/>
      <point x="60" y="69"/>
      <point x="141" y="-15"/>
    </contour>
    <contour>
      <point x="272" y="364" type="curve" smooth="yes"/>
      <point x="198" y="364"/>
      <point x="165" y="413"/>
      <point x="165" y="475" type="curve" smooth="yes"/>
      <point x="165" y="539"/>
      <point x="200" y="585"/>
      <point x="272" y="585" type="curve" smooth="yes"/>
      <point x="343" y="585"/>
      <point x="378" y="539"/>
      <point x="378" y="475" type="curve" smooth="yes"/>
      <point x="378" y="413"/>
      <point x="345" y="364"/>
    </contour>
    <contour>
      <point x="272" y="60" type="curve" smooth="yes"/>
      <point x="192" y="60"/>
      <point x="150" y="112"/>
      <point x="150" y="179" type="curve" smooth="yes"/>
      <point x="150" y="244"/>
      <point x="188" y="294"/>
      <point x="272" y="294" type="curve" smooth="yes"/>
      <point x="355" y="294"/>
      <point x="393" y="244"/>
      <point x="393" y="179" type="curve" smooth="yes"/>
      <point x="393" y="112"/>
      <point x="352" y="60"/>
    </contour>
  </outline>
</glyph>
<glyph name="greater" format="1">
  <advance width="513"/>
  <unicode hex="003E"/>
  <outline>
    <contour>
      <point x="451" y="257" type="line"/>
      <point x="107" y="505" type="line"/>
      <point x="68" y="451" type="line"/>
      <point x="351" y="248" type="line"/>
      <point x="351" y="239" type="line"/>
      <point x="67" y="45" type="line"/>
      <point x="103" y="-9" type="line"/>
      <point x="451" y="233" type="line"/>
    </contour>
  </outline>
</glyph>
<glyph name="question" format="1">
  <advance width="454"/>
  <unicode hex="003F"/>
  <outline>
    <contour>
      <point x="258" y="175" type="line"/>
      <point x="258" y="210" type="line" smooth="yes"/>
      <point x="258" y="267"/>
      <point x="260" y="286"/>
      <point x="313" y="346" type="curve" smooth="yes"/>
      <point x="368" y="408"/>
      <point x="412" y="463"/>
      <point x="412" y="541" type="curve" smooth="yes"/>
      <point x="412" y="645"/>
      <point x="331" y="715"/>
      <point x="234" y="715" type="curve" smooth="yes"/>
      <point x="113" y="715"/>
      <point x="29" y="628"/>
      <point x="38" y="510" type="curve"/>
      <point x="118" y="515" type="line"/>
      <point x="120" y="594"/>
      <point x="161" y="640"/>
      <point x="231" y="640" type="curve" smooth="yes"/>
      <point x="285" y="640"/>
      <point x="322" y="602"/>
      <point x="322" y="537" type="curve" smooth="yes"/>
      <point x="322" y="476"/>
      <point x="291" y="443"/>
      <point x="250" y="393" type="curve" smooth="yes"/>
      <point x="191" y="321"/>
      <point x="182" y="292"/>
      <point x="187" y="203" type="curve" smooth="yes"/>
      <point x="189" y="175" type="line"/>
    </contour>
    <contour>
      <point x="162" y="46" type="curve" smooth="yes"/>
      <point x="162" y="11"/>
      <point x="189" y="-15"/>
      <point x="224" y="-15" type="curve" smooth="yes"/>
      <point x="260" y="-15"/>
      <point x="288" y="11"/>
      <point x="288" y="46" type="curve" smooth="yes"/>
      <point x="288" y="82"/>
      <point x="260" y="110"/>
      <point x="224" y="110" type="curve" smooth="yes"/>
      <point x="189" y="110"/>
      <point x="162" y="82"/>
    </contour>
  </outline>
</glyph>
<glyph name="at" format="1">
  <advance width="968"/>
  <unicode hex="0040"/>
  <outline>
    <contour>
      <point x="435" y="115" type="curve" smooth="yes"/>
      <point x="383" y="115"/>
      <point x="364" y="147"/>
      <point x="372" y="230" type="curve" smooth="yes"/>
      <point x="377" y="282"/>
      <point x="384" y="305"/>
      <point x="396" y="355" type="curve" smooth="yes"/>
      <point x="413" y="428"/>
      <point x="457" y="460"/>
      <point x="512" y="460" type="curve" smooth="yes"/>
      <point x="556" y="460"/>
      <point x="577" y="446"/>
      <point x="577" y="446" type="curve"/>
      <point x="529" y="194" type="line" smooth="yes"/>
      <point x="522" y="157"/>
      <point x="490" y="115"/>
    </contour>
    <contour>
      <point x="670" y="-65" type="line"/>
      <point x="670" y="-65"/>
      <point x="608" y="-106"/>
      <point x="488" y="-106" type="curve" smooth="yes"/>
      <point x="311" y="-106"/>
      <point x="152" y="-13"/>
      <point x="152" y="230" type="curve" smooth="yes"/>
      <point x="152" y="474"/>
      <point x="316" y="650"/>
      <point x="518" y="650" type="curve" smooth="yes"/>
      <point x="733" y="650"/>
      <point x="811" y="507"/>
      <point x="811" y="341" type="curve" smooth="yes"/>
      <point x="811" y="168"/>
      <point x="743" y="85"/>
      <point x="668" y="85" type="curve" smooth="yes"/>
      <point x="617" y="85"/>
      <point x="595" y="115"/>
      <point x="605" y="172" type="curve"/>
      <point x="661" y="482" type="line"/>
      <point x="619" y="508"/>
      <point x="571" y="525"/>
      <point x="514" y="525" type="curve" smooth="yes"/>
      <point x="420" y="525"/>
      <point x="346" y="479"/>
      <point x="316" y="355" type="curve" smooth="yes"/>
      <point x="304" y="305"/>
      <point x="298" y="284"/>
      <point x="292" y="230" type="curve" smooth="yes"/>
      <point x="278" y="103"/>
      <point x="336" y="50"/>
      <point x="408" y="50" type="curve" smooth="yes"/>
      <point x="493" y="50"/>
      <point x="529" y="129"/>
      <point x="529" y="129" type="curve"/>
      <point x="538" y="54"/>
      <point x="595" y="20"/>
      <point x="668" y="20" type="curve" smooth="yes"/>
      <point x="780" y="20"/>
      <point x="886" y="125"/>
      <point x="886" y="340" type="curve" smooth="yes"/>
      <point x="886" y="552"/>
      <point x="758" y="715"/>
      <point x="518" y="715" type="curve" smooth="yes"/>
      <point x="258" y="715"/>
      <point x="77" y="498"/>
      <point x="77" y="230" type="curve" smooth="yes"/>
      <point x="77" y="-51"/>
      <point x="261" y="-171"/>
      <point x="488" y="-171" type="curve" smooth="yes"/>
      <point x="637" y="-171"/>
      <point x="693" y="-115"/>
      <point x="693" y="-115" type="curve"/>
    </contour>
  </outline>
</glyph>
<glyph name="A" format="1">
  <advance width="635"/>
  <unicode hex="0041"/>
  <outline>
    <contour>
      <point x="126" y="185" type="line"/>
      <point x="506" y="185" type="line"/>
      <point x="506" y="185"/>
      <point x="476" y="260"/>
      <point x="475" y="260" type="curve"/>
      <point x="155" y="260" type="line"/>
    </contour>
    <contour>
      <point x="272" y="700" type="line"/>
      <point x="20" y="0" type="line"/>
      <point x="110" y="0" type="line"/>
      <point x="110" y="0"/>
      <point x="321" y="612"/>
      <point x="321" y="612" type="curve"/>
      <point x="321" y="700" type="line"/>
    </contour>
    <contour>
      <point x="308" y="612" type="line"/>
      <point x="520" y="0" type="line"/>
      <point x="615" y="0" type="line"/>
      <point x="357" y="700" type="line"/>
      <point x="261" y="700" type="line"/>
      <point x="290" y="630" type="line"/>
    </contour>
  </outline>
</glyph>
<glyph name="B" format="1">
  <advance width="615.0"/>
  <unicode hex="0042"/>
  <outline>
    <contour>
      <point x="95" y="0" type="line"/>
      <point x="307" y="0" type="line" smooth="yes"/>
      <point x="486" y="0"/>
      <point x="555" y="82"/>
      <point x="555" y="198" type="curve" smooth="yes"/>
      <point x="555" y="300"/>
      <point x="490" y="350"/>
      <point x="417" y="363" type="curve"/>
      <point x="417" y="366" type="line"/>
      <point x="491" y="380"/>
      <point x="546" y="443"/>
      <point x="545" y="532" type="curve" smooth="yes"/>
      <point x="544" y="658"/>
      <point x="447" y="700"/>
      <point x="307" y="700" type="curve" smooth="yes"/>
      <point x="95" y="700" type="line"/>
    </contour>
    <contour>
      <point x="185" y="325" type="line"/>
      <point x="307" y="325" type="line" smooth="yes"/>
      <point x="412" y="325"/>
      <point x="465" y="288"/>
      <point x="465" y="203" type="curve" smooth="yes"/>
      <point x="465" y="109"/>
      <point x="408" y="75"/>
      <point x="307" y="75" type="curve" smooth="yes"/>
      <point x="185" y="75" type="line"/>
    </contour>
    <contour>
      <point x="185" y="625" type="line"/>
      <point x="307" y="625" type="line" smooth="yes"/>
      <point x="403" y="625"/>
      <point x="455" y="597"/>
      <point x="455" y="509" type="curve" smooth="yes"/>
      <point x="455" y="423"/>
      <point x="404" y="395"/>
      <point x="307" y="395" type="curve" smooth="yes"/>
      <point x="185" y="395" type="line"/>
    </contour>
  </outline>
</glyph>
<glyph name="C" format="1">
  <advance width="611.0"/>
  <unicode hex="0043"/>
  <outline>
    <contour>
      <point x="549" y="500" type="line"/>
      <point x="550" y="503"/>
      <point x="551" y="512"/>
      <point x="551" y="520" type="curve" smooth="yes"/>
      <point x="551.0" y="634.146341463"/>
      <point x="476.0" y="715.0"/>
      <point x="332" y="715" type="curve" smooth="yes"/>
      <point x="181" y="715"/>
      <point x="91" y="627"/>
      <point x="83" y="472" type="curve" smooth="yes"/>
      <point x="79" y="392"/>
      <point x="80" y="317"/>
      <point x="83" y="231" type="curve" smooth="yes"/>
      <point x="89" y="75"/>
      <point x="182" y="-15"/>
      <point x="332" y="-15" type="curve" smooth="yes"/>
      <point x="476.0" y="-15.0"/>
      <point x="551.0" y="70.8"/>
      <point x="551" y="180" type="curve" smooth="yes"/>
      <point x="551" y="188"/>
      <point x="550" y="197"/>
      <point x="549" y="200" type="curve"/>
      <point x="471" y="200" type="line"/>
      <point x="470.034479178" y="104.41343861"/>
      <point x="426.0" y="60.0"/>
      <point x="332" y="60" type="curve" smooth="yes"/>
      <point x="231" y="60"/>
      <point x="177" y="117"/>
      <point x="173" y="232" type="curve" smooth="yes"/>
      <point x="170" y="321"/>
      <point x="171" y="399"/>
      <point x="173" y="470" type="curve" smooth="yes"/>
      <point x="177" y="585"/>
      <point x="232" y="640"/>
      <point x="332" y="640" type="curve" smooth="yes"/>
      <point x="426.0" y="640.0"/>
      <point x="470.066660031" y="595.20067687"/>
      <point x="471" y="500" type="curve"/>
    </contour>
  </outline>
</glyph>
<glyph name="D" format="1">
  <advance width="646.0"/>
  <unicode hex="0044"/>
  <outline>
    <contour>
      <point x="95" y="0" type="line"/>
      <point x="260" y="0" type="line" smooth="yes"/>
      <point x="412" y="0"/>
      <point x="553" y="38"/>
      <point x="563" y="240" type="curve" smooth="yes"/>
      <point x="567" y="325"/>
      <point x="567" y="392"/>
      <point x="563" y="460" type="curve" smooth="yes"/>
      <point x="552" y="658"/>
      <point x="412" y="700"/>
      <point x="260" y="700" type="curve" smooth="yes"/>
      <point x="95" y="700" type="line"/>
    </contour>
    <contour>
      <point x="473" y="464" type="curve" smooth="yes"/>
      <point x="478" y="389"/>
      <point x="478" y="319"/>
      <point x="473" y="236" type="curve" smooth="yes"/>
      <point x="465" y="108"/>
      <point x="385" y="75"/>
      <point x="260" y="75" type="curve" smooth="yes"/>
      <point x="185" y="75" type="line"/>
      <point x="185" y="625" type="line"/>
      <point x="260" y="625" type="line" smooth="yes"/>
      <point x="385" y="625"/>
      <point x="465" y="592"/>
    </contour>
  </outline>
</glyph>
<glyph name="E" format="1">
  <advance width="545"/>
  <unicode hex="0045"/>
  <outline>
    <contour>
      <point x="95" y="0" type="line"/>
      <point x="495" y="0" type="line"/>
      <point x="495" y="75" type="line"/>
      <point x="185" y="75" type="line"/>
      <point x="185" y="320" type="line"/>
      <point x="471" y="320" type="line"/>
      <point x="471" y="395" type="line"/>
      <point x="185" y="395" type="line"/>
      <point x="185" y="625" type="line"/>
      <point x="495" y="625" type="line"/>
      <point x="495" y="700" type="line"/>
      <point x="95" y="700" type="line"/>
    </contour>
  </outline>
</glyph>
<glyph name="H" format="1">
  <advance width="696"/>
  <unicode hex="0048"/>
  <outline>
    <contour>
      <point x="596" y="700" type="line"/>
      <point x="506" y="700" type="line"/>
      <point x="506" y="390" type="line"/>
      <point x="190" y="390" type="line"/>
      <point x="190" y="700" type="line"/>
      <point x="100" y="700" type="line"/>
      <point x="100" y="0" type="line"/>
      <point x="190" y="0" type="line"/>
      <point x="190" y="315" type="line"/>
      <point x="506" y="315" type="line"/>
      <point x="506" y="0" type="line"/>
      <point x="596" y="0" type="line"/>
    </contour>
  </outline>
</glyph>
<glyph name="P" format="1">
  <advance width="575"/>
  <unicode hex="0050"/>
  <outline>
    <contour>
      <point x="185" y="0" type="line"/>
      <point x="185" y="250" type="line"/>
      <point x="280" y="250" type="line" smooth="yes"/>
      <point x="448" y="250"/>
      <point x="545" y="320"/>
      <point x="545" y="480" type="curve" smooth="yes"/>
      <point x="545" y="634"/>
      <point x="452" y="700"/>
      <point x="280" y="700" type="curve" smooth="yes"/>
      <point x="95" y="700" type="line"/>
      <point x="95" y="0" type="line"/>
    </contour>
    <contour>
      <point x="185" y="625" type="line"/>
      <point x="280" y="625" type="line" smooth="yes"/>
      <point x="397" y="625"/>
      <point x="455" y="586"/>
      <point x="455" y="480" type="curve" smooth="yes"/>
      <point x="455" y="361"/>
      <point x="397" y="325"/>
      <point x="280" y="325" type="curve" smooth="yes"/>
      <point x="185" y="325" type="line"/>
    </contour>
  </outline>
</glyph>
<glyph name="Q" format="1">
  <advance width="660.0"/>
  <unicode hex="0051"/>
  <outline>
    <contour>
      <point x="247" y="-5" type="line"/>
      <point x="280" y="-14"/>
      <point x="325" y="-38"/>
      <point x="395" y="-71" type="curve" smooth="yes"/>
      <point x="474" y="-108"/>
      <point x="519" y="-129"/>
      <point x="556" y="-129" type="curve" smooth="yes"/>
      <point x="578" y="-129"/>
      <point x="591" y="-118"/>
      <point x="595" y="-111" type="curve"/>
      <point x="595" y="-62" type="line"/>
      <point x="582" y="-62" type="line" smooth="yes"/>
      <point x="552" y="-62"/>
      <point x="527" y="-55"/>
      <point x="456" y="-25" type="curve" smooth="yes"/>
      <point x="381" y="7"/>
      <point x="352" y="15"/>
      <point x="294" y="15" type="curve" smooth="yes"/>
      <point x="252" y="15" type="line"/>
    </contour>
    <component base="O"/>
  </outline>
</glyph>
<glyph name="S" format="1">
  <advance width="603"/>
  <unicode hex="0053"/>
  <outline>
    <contour>
      <point x="319" y="-15" type="curve" smooth="yes"/>
      <point x="457" y="-15"/>
      <point x="543" y="57"/>
      <point x="543" y="185" type="curve" smooth="yes"/>
      <point x="543" y="292"/>
      <point x="485" y="341"/>
      <point x="334" y="392" type="curve" smooth="yes"/>
      <point x="200" y="437"/>
      <point x="162" y="468"/>
      <point x="162" y="535" type="curve" smooth="yes"/>
      <point x="162" y="608"/>
      <point x="220" y="640"/>
      <point x="302" y="640" type="curve" smooth="yes"/>
      <point x="414" y="640"/>
      <point x="447" y="584"/>
      <point x="447" y="500" type="curve"/>
      <point x="527" y="500" type="line"/>
      <point x="528" y="504"/>
      <point x="529" y="514"/>
      <point x="529" y="520" type="curve" smooth="yes"/>
      <point x="529" y="647"/>
      <point x="438" y="715"/>
      <point x="302" y="715" type="curve" smooth="yes"/>
      <point x="166.0" y="715.0"/>
      <point x="72.0" y="648.734693878"/>
      <point x="72" y="524" type="curve" smooth="yes"/>
      <point x="72.0" y="420.5"/>
      <point x="133.626575188" y="367.1236506"/>
      <point x="285" y="317" type="curve" smooth="yes"/>
      <point x="416" y="274"/>
      <point x="453" y="242"/>
      <point x="453" y="178" type="curve" smooth="yes"/>
      <point x="453" y="101"/>
      <point x="404" y="60"/>
      <point x="322" y="60" type="curve" smooth="yes"/>
      <point x="216" y="60"/>
      <point x="145" y="102"/>
      <point x="145" y="200" type="curve"/>
      <point x="67" y="200" type="line"/>
      <point x="66" y="196"/>
      <point x="65" y="187"/>
      <point x="65" y="181" type="curve" smooth="yes"/>
      <point x="65" y="48"/>
      <point x="180" y="-15"/>
    </contour>
  </outline>
</glyph>
<glyph name="U" format="1">
  <advance width="675"/>
  <unicode hex="0055"/>
  <outline>
    <contour>
      <point x="494" y="700" type="line"/>
      <point x="494" y="237" type="line" smooth="yes"/>
      <point x="494" y="125"/>
      <point x="441" y="60"/>
      <point x="338" y="60" type="curve" smooth="yes"/>
      <point x="235" y="60"/>
      <point x="181" y="125"/>
      <point x="181" y="237" type="curve" smooth="yes"/>
      <point x="181" y="700" type="line"/>
      <point x="91" y="700" type="line"/>
      <point x="91" y="237" type="line" smooth="yes"/>
      <point x="91" y="77"/>
      <point x="180" y="-15"/>
      <point x="338" y="-15" type="curve" smooth="yes"/>
      <point x="496" y="-15"/>
      <point x="584" y="77"/>
      <point x="584" y="237" type="curve" smooth="yes"/>
      <point x="584" y="700" type="line"/>
    </contour>
  </outline>
</glyph>
<glyph name="V" format="1">
  <advance width="605"/>
  <unicode hex="0056"/>
  <outline>
    <contour>
      <point x="276" y="0" type="curve"/>
      <point x="358" y="0" type="line"/>
      <point x="590" y="700" type="line"/>
      <point x="490" y="700" type="line"/>
      <point x="490" y="700"/>
      <point x="276" y="0"/>
    </contour>
    <contour>
      <point x="332" y="0" type="line"/>
      <point x="115" y="700" type="line"/>
      <point x="15" y="700" type="line"/>
      <point x="247" y="0" type="line"/>
    </contour>
  </outline>
</glyph>
<glyph name="W" format="1">
  <advance width="886"/>
  <unicode hex="0057"/>
  <outline>
    <contour>
      <point x="233" y="0" type="curve"/>
      <point x="313" y="0" type="line"/>
      <point x="460" y="700" type="line"/>
      <point x="380" y="700" type="line"/>
      <point x="380" y="700"/>
      <point x="233" y="0"/>
    </contour>
    <contour>
      <point x="267" y="0" type="line"/>
      <point x="125" y="700" type="line"/>
      <point x="25" y="700" type="line"/>
      <point x="187" y="0" type="line"/>
    </contour>
    <contour>
      <point x="624" y="0" type="curve"/>
      <point x="699" y="0" type="line"/>
      <point x="861" y="700" type="line"/>
      <point x="761" y="700" type="line"/>
      <point x="761" y="700"/>
      <point x="624" y="0"/>
    </contour>
    <contour>
      <point x="658" y="0" type="line"/>
      <point x="511" y="700" type="line"/>
      <point x="426" y="700" type="line"/>
      <point x="573" y="0" type="line"/>
    </contour>
  </outline>
</glyph>
<glyph name="Z" format="1">
  <advance width="557"/>
  <unicode hex="005A"/>
  <outline>
    <contour>
      <point x="40" y="625" type="line"/>
      <point x="412" y="625" type="line"/>
      <point x="40" y="73" type="line"/>
      <point x="40" y="0" type="line"/>
      <point x="517" y="0" type="line"/>
      <point x="517" y="75" type="line"/>
      <point x="140" y="75" type="line"/>
      <point x="512" y="627" type="line"/>
      <point x="512" y="700" type="line"/>
      <point x="40" y="700" type="line"/>
    </contour>
  </outline>
</glyph>
<glyph name="bracketleft" format="1">
  <advance width="307"/>
  <unicode hex="005B"/>
  <outline>
    <contour>
      <point x="77" y="-140" type="line"/>
      <point x="250" y="-140" type="line"/>
      <point x="250" y="-80" type="line"/>
      <point x="157" y="-80" type="line"/>
      <point x="157" y="690" type="line"/>
      <point x="250" y="690" type="line"/>
      <point x="250" y="750" type="line"/>
      <point x="77" y="750" type="line"/>
    </contour>
  </outline>
</glyph>
<glyph name="backslash" format="1">
  <advance width="397"/>
  <unicode hex="005C"/>
  <outline>
    <contour>
      <point x="331" y="-140" type="line"/>
      <point x="405" y="-140" type="line"/>
      <point x="65" y="750" type="line"/>
      <point x="-8" y="750" type="line"/>
    </contour>
  </outline>
</glyph>
<glyph name="asciicircum" format="1">
  <advance width="511"/>
  <unicode hex="005E"/>
  <outline>
    <contour>
      <point x="228" y="700" type="line"/>
      <point x="52" y="455" type="line"/>
      <point x="130" y="455" type="line"/>
      <point x="254" y="628" type="line"/>
      <point x="379" y="455" type="line"/>
      <point x="459" y="455" type="line"/>
      <point x="281" y="700" type="line"/>
    </contour>
  </outline>
</glyph>
<glyph name="d" format="1">
  <advance width="566"/>
  <unicode hex="0064"/>
  <outline>
    <contour>
      <point x="531" y="60" type="line"/>
      <point x="513" y="60" type="line" smooth="yes"/>
      <point x="475" y="60"/>
      <point x="460" y="75"/>
      <point x="460" y="125" type="curve" smooth="yes"/>
      <point x="460" y="735" type="line"/>
      <point x="375" y="700" type="line"/>
      <point x="375" y="437" type="line"/>
      <point x="358" y="469"/>
      <point x="310" y="500"/>
      <point x="248" y="500" type="curve" smooth="yes"/>
      <point x="140" y="500"/>
      <point x="76" y="438"/>
      <point x="72" y="316" type="curve" smooth="yes"/>
      <point x="70" y="261"/>
      <point x="69" y="210"/>
      <point x="72" y="152" type="curve" smooth="yes"/>
      <point x="77" y="47"/>
      <point x="147" y="-15"/>
      <point x="246" y="-15" type="curve" smooth="yes"/>
      <point x="320" y="-15"/>
      <point x="364" y="16"/>
      <point x="391" y="59" type="curve"/>
      <point x="400" y="14"/>
      <point x="433" y="-10"/>
      <point x="486" y="-10" type="curve" smooth="yes"/>
      <point x="501" y="-10"/>
      <point x="518" y="-7"/>
      <point x="531" y="0" type="curve"/>
    </contour>
    <contour>
      <point x="375" y="173" type="line" smooth="yes"/>
      <point x="375" y="91"/>
      <point x="327" y="55"/>
      <point x="265" y="55" type="curve" smooth="yes"/>
      <point x="201" y="55"/>
      <point x="161" y="89"/>
      <point x="157" y="161" type="curve" smooth="yes"/>
      <point x="154" y="219"/>
      <point x="155" y="259"/>
      <point x="157" y="311" type="curve" smooth="yes"/>
      <point x="160" y="386"/>
      <point x="189" y="430"/>
      <point x="260" y="430" type="curve" smooth="yes"/>
      <point x="337" y="430"/>
      <point x="375" y="384"/>
      <point x="375" y="299" type="curve" smooth="yes"/>
    </contour>
  </outline>
</glyph>
<glyph name="e" format="1">
  <advance width="499"/>
  <unicode hex="0065"/>
  <outline>
    <contour>
      <point x="115" y="268" type="curve"/>
      <point x="115" y="214" type="line"/>
      <point x="194" y="222"/>
      <point x="272" y="232"/>
      <point x="350" y="246" type="curve" smooth="yes"/>
      <point x="424" y="260"/>
      <point x="438" y="271"/>
      <point x="438" y="337" type="curve" smooth="yes"/>
      <point x="438" y="440"/>
      <point x="374" y="500"/>
      <point x="261" y="500" type="curve" smooth="yes"/>
      <point x="140" y="500"/>
      <point x="77" y="424"/>
      <point x="72" y="310" type="curve" smooth="yes"/>
      <point x="70" y="266"/>
      <point x="70" y="221"/>
      <point x="72" y="177" type="curve" smooth="yes"/>
      <point x="77" y="49"/>
      <point x="147" y="-15"/>
      <point x="267" y="-15" type="curve" smooth="yes"/>
      <point x="371" y="-15"/>
      <point x="439" y="47"/>
      <point x="439" y="134" type="curve" smooth="yes"/>
      <point x="439" y="139"/>
      <point x="438" y="151"/>
      <point x="437" y="155" type="curve"/>
      <point x="368" y="155" type="line"/>
      <point x="368" y="150" type="line" smooth="yes"/>
      <point x="368" y="81"/>
      <point x="329" y="55"/>
      <point x="267" y="55" type="curve" smooth="yes"/>
      <point x="204" y="55"/>
      <point x="158" y="91"/>
      <point x="156" y="183" type="curve" smooth="yes"/>
      <point x="155" y="221"/>
      <point x="155" y="261"/>
      <point x="156" y="299" type="curve" smooth="yes"/>
      <point x="157" y="385"/>
      <point x="189" y="430"/>
      <point x="261" y="430" type="curve" smooth="yes"/>
      <point x="315" y="430"/>
      <point x="353" y="403"/>
      <point x="353" y="339" type="curve" smooth="yes"/>
      <point x="353" y="312"/>
      <point x="346" y="301"/>
      <point x="302" y="293" type="curve" smooth="yes"/>
      <point x="240" y="282"/>
      <point x="178" y="273"/>
    </contour>
  </outline>
</glyph>
<glyph name="g" format="1">
  <advance width="539"/>
  <unicode hex="0067"/>
  <outline>
    <contour>
      <point x="83" y="85" type="curve" smooth="yes"/>
      <point x="83" y="38"/>
      <point x="122" y="14"/>
      <point x="199" y="7" type="curve" smooth="yes"/>
      <point x="317" y="-3" type="line" smooth="yes"/>
      <point x="395" y="-10"/>
      <point x="418" y="-32"/>
      <point x="418" y="-82" type="curve" smooth="yes"/>
      <point x="418.0" y="-139.0"/>
      <point x="369" y="-175"/>
      <point x="278" y="-175" type="curve" smooth="yes"/>
      <point x="176.397058824" y="-175.0"/>
      <point x="137.0" y="-139.0"/>
      <point x="137" y="-88" type="curve" smooth="yes"/>
      <point x="137" y="-62"/>
      <point x="146" y="-49"/>
      <point x="179" y="-39" type="curve" smooth="yes"/>
      <point x="302" y="0" type="line"/>
      <point x="298" y="24" type="line"/>
      <point x="136" y="-13" type="line" smooth="yes"/>
      <point x="67" y="-29"/>
      <point x="52" y="-53"/>
      <point x="52" y="-99" type="curve" smooth="yes"/>
      <point x="52.0" y="-184.0"/>
      <point x="132.803652968" y="-245.0"/>
      <point x="276" y="-245" type="curve" smooth="yes"/>
      <point x="412" y="-245"/>
      <point x="503.0" y="-181.0"/>
      <point x="503" y="-76" type="curve" smooth="yes"/>
      <point x="503" y="10"/>
      <point x="451" y="49"/>
      <point x="344" y="61" type="curve" smooth="yes"/>
      <point x="218" y="75" type="line" smooth="yes"/>
      <point x="178" y="79"/>
      <point x="163" y="87"/>
      <point x="163" y="109" type="curve" smooth="yes"/>
      <point x="163" y="133"/>
      <point x="190" y="145"/>
      <point x="220" y="150" type="curve"/>
      <point x="194" y="178" type="line"/>
      <point x="124" y="163"/>
      <point x="83" y="136"/>
    </contour>
    <contour>
      <point x="266" y="144" type="curve" smooth="yes"/>
      <point x="375" y="144"/>
      <point x="455" y="212"/>
      <point x="455" y="316" type="curve" smooth="yes"/>
      <point x="455" y="389"/>
      <point x="423" y="433"/>
      <point x="363" y="451" type="curve"/>
      <point x="363" y="485" type="line"/>
      <point x="268" y="500" type="line"/>
      <point x="157" y="500"/>
      <point x="78" y="429"/>
      <point x="78" y="321" type="curve" smooth="yes"/>
      <point x="78" y="213"/>
      <point x="159" y="144"/>
    </contour>
    <contour>
      <point x="268" y="435" type="curve" smooth="yes"/>
      <point x="335" y="435"/>
      <point x="370" y="391"/>
      <point x="370" y="321" type="curve" smooth="yes"/>
      <point x="370" y="250"/>
      <point x="329" y="214"/>
      <point x="268" y="214" type="curve" smooth="yes"/>
      <point x="198" y="214"/>
      <point x="163" y="256"/>
      <point x="163" y="321" type="curve" smooth="yes"/>
      <point x="163" y="397"/>
      <point x="210" y="435"/>
    </contour>
    <contour>
      <point x="323" y="450" type="line"/>
      <point x="365" y="435"/>
      <point x="420" y="420"/>
      <point x="506" y="420" type="curve"/>
      <point x="506" y="480" type="line"/>
      <point x="414" y="480"/>
      <point x="332" y="500"/>
      <point x="268" y="500" type="curve"/>
    </contour>
  </outline>
</glyph>
<glyph name="j" format="1">
  <advance width="283"/>
  <unicode hex="006A"/>
  <outline>
    <contour>
      <point x="56" y="-245" type="curve" smooth="yes"/>
      <point x="134" y="-245"/>
      <point x="183" y="-196"/>
      <point x="183" y="-95" type="curve" smooth="yes"/>
      <point x="183" y="495" type="line"/>
      <point x="98" y="460" type="line"/>
      <point x="98" y="-80" type="line" smooth="yes"/>
      <point x="98" y="-151"/>
      <point x="78" y="-175"/>
      <point x="29" y="-175" type="curve" smooth="yes"/>
      <point x="10" y="-175"/>
      <point x="-6" y="-172"/>
      <point x="-15" y="-170" type="curve"/>
      <point x="-20" y="-230" type="line"/>
      <point x="-5" y="-239"/>
      <point x="24" y="-245"/>
    </contour>
    <contour>
      <point x="83" y="657" type="curve" smooth="yes"/>
      <point x="83" y="624"/>
      <point x="107" y="600"/>
      <point x="139" y="600" type="curve" smooth="yes"/>
      <point x="173" y="600"/>
      <point x="198" y="624"/>
      <point x="198" y="657" type="curve" smooth="yes"/>
      <point x="198" y="690"/>
      <point x="173" y="715"/>
      <point x="139" y="715" type="curve" smooth="yes"/>
      <point x="107" y="715"/>
      <point x="83" y="690"/>
    </contour>
  </outline>
</glyph>
<glyph name="k" format="1">
  <advance width="512"/>
  <unicode hex="006B"/>
  <outline>
    <contour>
      <point x="180" y="735" type="line"/>
      <point x="95" y="700" type="line"/>
      <point x="95" y="0" type="line"/>
      <point x="180" y="0" type="line"/>
    </contour>
    <contour>
      <point x="405" y="485" type="line"/>
      <point x="190" y="262" type="line"/>
      <point x="190" y="259" type="line"/>
      <point x="340" y="70" type="line" smooth="yes"/>
      <point x="392" y="5"/>
      <point x="410" y="-10"/>
      <point x="459" y="-10" type="curve" smooth="yes"/>
      <point x="487" y="-10"/>
      <point x="502" y="0"/>
      <point x="502" y="0" type="curve"/>
      <point x="502" y="60" type="line"/>
      <point x="487" y="60" type="line" smooth="yes"/>
      <point x="460" y="60"/>
      <point x="445" y="68"/>
      <point x="423" y="97" type="curve" smooth="yes"/>
      <point x="294" y="263" type="line"/>
      <point x="505" y="485" type="line"/>
    </contour>
  </outline>
</glyph>
<glyph name="n" format="1">
  <advance width="578"/>
  <unicode hex="006E"/>
  <outline>
    <contour>
      <point x="192" y="307" type="line" smooth="yes"/>
      <point x="192" y="371"/>
      <point x="223" y="430"/>
      <point x="306" y="430" type="curve" smooth="yes"/>
      <point x="377" y="430"/>
      <point x="403" y="386"/>
      <point x="403" y="307" type="curve" smooth="yes"/>
      <point x="403" y="0" type="line"/>
      <point x="488" y="0" type="line"/>
      <point x="488" y="327" type="line" smooth="yes"/>
      <point x="488" y="441"/>
      <point x="435" y="500"/>
      <point x="339" y="500" type="curve" smooth="yes"/>
      <point x="270" y="500"/>
      <point x="213" y="473"/>
      <point x="179" y="421" type="curve"/>
      <point x="170" y="465"/>
      <point x="140" y="490"/>
      <point x="95" y="490" type="curve" smooth="yes"/>
      <point x="76" y="490"/>
      <point x="59" y="487"/>
      <point x="45" y="480" type="curve"/>
      <point x="45" y="420" type="line"/>
      <point x="56" y="420" type="line" smooth="yes"/>
      <point x="88" y="420"/>
      <point x="107" y="415"/>
      <point x="107" y="360" type="curve" smooth="yes"/>
      <point x="107" y="0" type="line"/>
      <point x="192" y="0" type="line"/>
    </contour>
  </outline>
</glyph>
<glyph name="o" format="1">
  <advance width="528"/>
  <unicode hex="006F"/>
  <outline>
    <contour>
      <point x="264" y="-15" type="curve" smooth="yes"/>
      <point x="377" y="-15"/>
      <point x="453" y="53"/>
      <point x="457" y="164" type="curve" smooth="yes"/>
      <point x="459" y="212"/>
      <point x="459" y="272"/>
      <point x="457" y="321" type="curve" smooth="yes"/>
      <point x="452" y="433"/>
      <point x="376" y="500"/>
      <point x="264" y="500" type="curve" smooth="yes"/>
      <point x="152" y="500"/>
      <point x="76" y="433"/>
      <point x="71" y="321" type="curve" smooth="yes"/>
      <point x="69" y="272"/>
      <point x="69" y="212"/>
      <point x="71" y="164" type="curve" smooth="yes"/>
      <point x="75" y="53"/>
      <point x="151" y="-15"/>
    </contour>
    <contour>
      <point x="264" y="55" type="curve" smooth="yes"/>
      <point x="195" y="55"/>
      <point x="159" y="99"/>
      <point x="156" y="167" type="curve" smooth="yes"/>
      <point x="154" y="215"/>
      <point x="154" y="271"/>
      <point x="156" y="319" type="curve" smooth="yes"/>
      <point x="158" y="388"/>
      <point x="196" y="430"/>
      <point x="264" y="430" type="curve" smooth="yes"/>
      <point x="332" y="430"/>
      <point x="370" y="388"/>
      <point x="372" y="319" type="curve" smooth="yes"/>
      <point x="374" y="271"/>
      <point x="374" y="215"/>
      <point x="372" y="167" type="curve" smooth="yes"/>
      <point x="369" y="99"/>
      <point x="333" y="55"/>
    </contour>
  </outline>
</glyph>
<glyph name="p" format="1">
  <advance width="563"/>
  <unicode hex="0070"/>
  <outline>
    <contour>
      <point x="179" y="420" type="curve"/>
      <point x="170" y="464"/>
      <point x="140" y="490"/>
      <point x="95" y="490" type="curve" smooth="yes"/>
      <point x="76" y="490"/>
      <point x="59" y="487"/>
      <point x="45" y="480" type="curve"/>
      <point x="45" y="420" type="line"/>
      <point x="56" y="420" type="line" smooth="yes"/>
      <point x="88" y="420"/>
      <point x="107" y="415"/>
      <point x="107" y="360" type="curve" smooth="yes"/>
      <point x="107" y="-230" type="line"/>
      <point x="192" y="-230" type="line"/>
      <point x="192" y="-230"/>
      <point x="192" y="45"/>
      <point x="192" y="45" type="curve"/>
      <point x="216" y="7"/>
      <point x="256" y="-15"/>
      <point x="316" y="-15" type="curve" smooth="yes"/>
      <point x="424" y="-15"/>
      <point x="485" y="45"/>
      <point x="491" y="180" type="curve" smooth="yes"/>
      <point x="494" y="241"/>
      <point x="494" y="260"/>
      <point x="491" y="318" type="curve" smooth="yes"/>
      <point x="485" y="436"/>
      <point x="439" y="500"/>
      <point x="332" y="500" type="curve"/>
      <point x="262" y="500"/>
      <point x="205" y="465"/>
    </contour>
    <contour>
      <point x="312" y="430" type="curve" smooth="yes"/>
      <point x="373" y="430"/>
      <point x="402" y="390"/>
      <point x="406" y="317" type="curve" smooth="yes"/>
      <point x="409" y="258"/>
      <point x="409" y="243"/>
      <point x="406" y="180" type="curve" smooth="yes"/>
      <point x="401" y="85"/>
      <point x="367" y="55"/>
      <point x="308" y="55" type="curve" smooth="yes"/>
      <point x="242" y="55"/>
      <point x="192" y="86"/>
      <point x="192" y="168" type="curve" smooth="yes"/>
      <point x="192" y="333" type="line"/>
      <point x="192.0" y="381.0"/>
      <point x="243" y="430"/>
    </contour>
  </outline>
</glyph>
<glyph name="q" format="1">
  <advance width="547"/>
  <unicode hex="0071"/>
  <outline>
    <contour>
      <point x="457" y="455" type="line"/>
      <point x="430" y="474"/>
      <point x="363" y="500"/>
      <point x="282" y="500" type="curve" smooth="yes"/>
      <point x="153" y="500"/>
      <point x="78" y="438"/>
      <point x="72" y="300" type="curve" smooth="yes"/>
      <point x="69" y="241"/>
      <point x="69" y="223"/>
      <point x="72" y="167" type="curve" smooth="yes"/>
      <point x="78" y="51"/>
      <point x="132" y="-15"/>
      <point x="241" y="-15" type="curve" smooth="yes"/>
      <point x="304" y="-15"/>
      <point x="351" y="21"/>
      <point x="372" y="57" type="curve"/>
      <point x="372" y="-230" type="line"/>
      <point x="457" y="-230" type="line"/>
    </contour>
    <contour>
      <point x="372" y="185" type="line" smooth="yes"/>
      <point x="372" y="111"/>
      <point x="336" y="55"/>
      <point x="261" y="55" type="curve" smooth="yes"/>
      <point x="194" y="55"/>
      <point x="161" y="97"/>
      <point x="157" y="168" type="curve" smooth="yes"/>
      <point x="154" y="225"/>
      <point x="154" y="239"/>
      <point x="157" y="300" type="curve" smooth="yes"/>
      <point x="162" y="399"/>
      <point x="207" y="430"/>
      <point x="280" y="430" type="curve" smooth="yes"/>
      <point x="322" y="430"/>
      <point x="357" y="418"/>
      <point x="372" y="410" type="curve"/>
    </contour>
  </outline>
</glyph>
<glyph name="r" format="1">
  <advance width="408"/>
  <unicode hex="0072"/>
  <outline>
    <contour>
      <point x="287" y="500" type="curve" smooth="yes"/>
      <point x="218" y="500"/>
      <point x="180" y="459"/>
      <point x="165" y="398" type="curve"/>
      <point x="165" y="312" type="line"/>
      <point x="192" y="312" type="line"/>
      <point x="192" y="399"/>
      <point x="217" y="430"/>
      <point x="260" y="430" type="curve" smooth="yes"/>
      <point x="297" y="430"/>
      <point x="313" y="412"/>
      <point x="313" y="363" type="curve" smooth="yes"/>
      <point x="313" y="353" type="line"/>
      <point x="385" y="353" type="line"/>
      <point x="386" y="358"/>
      <point x="388" y="373"/>
      <point x="388" y="389" type="curve" smooth="yes"/>
      <point x="388" y="459"/>
      <point x="353" y="500"/>
    </contour>
    <contour>
      <point x="179" y="421" type="line"/>
      <point x="170" y="465"/>
      <point x="140" y="490"/>
      <point x="95" y="490" type="curve" smooth="yes"/>
      <point x="76" y="490"/>
      <point x="59" y="487"/>
      <point x="45" y="480" type="curve"/>
      <point x="45" y="420" type="line"/>
      <point x="56" y="420" type="line" smooth="yes"/>
      <point x="88" y="420"/>
      <point x="107" y="415"/>
      <point x="107" y="360" type="curve" smooth="yes"/>
      <point x="107" y="0" type="line"/>
      <point x="192" y="0" type="line"/>
      <point x="192" y="421" type="line"/>
    </contour>
  </outline>
</glyph>
<glyph name="s" format="1">
  <advance width="497.0"/>
  <unicode hex="0073"/>
  <outline>
    <contour>
      <point x="412" y="335" type="line"/>
      <point x="415" y="341"/>
      <point x="417" y="350"/>
      <point x="417" y="360" type="curve" smooth="yes"/>
      <point x="417" y="448"/>
      <point x="355" y="500"/>
      <point x="248" y="500" type="curve" smooth="yes"/>
      <point x="136" y="500"/>
      <point x="70" y="445"/>
      <point x="70" y="349" type="curve" smooth="yes"/>
      <point x="70" y="274"/>
      <point x="112" y="239"/>
      <point x="222" y="210" type="curve" smooth="yes"/>
      <point x="323" y="183"/>
      <point x="347" y="166"/>
      <point x="347" y="124" type="curve" smooth="yes"/>
      <point x="347" y="80"/>
      <point x="312" y="55"/>
      <point x="251" y="55" type="curve" smooth="yes"/>
      <point x="184" y="55"/>
      <point x="145" y="90"/>
      <point x="145" y="150" type="curve" smooth="yes"/>
      <point x="145" y="160" type="line"/>
      <point x="69" y="160" type="line"/>
      <point x="67" y="154"/>
      <point x="65" y="146"/>
      <point x="65" y="135" type="curve" smooth="yes"/>
      <point x="65" y="40"/>
      <point x="133" y="-15"/>
      <point x="249" y="-15" type="curve" smooth="yes"/>
      <point x="365" y="-15"/>
      <point x="432" y="41"/>
      <point x="432" y="137" type="curve" smooth="yes"/>
      <point x="432" y="210"/>
      <point x="394" y="244"/>
      <point x="274" y="275" type="curve" smooth="yes"/>
      <point x="177" y="300"/>
      <point x="155" y="322"/>
      <point x="155" y="361" type="curve" smooth="yes"/>
      <point x="155" y="405"/>
      <point x="189" y="430"/>
      <point x="247" y="430" type="curve" smooth="yes"/>
      <point x="304" y="430"/>
      <point x="337" y="399"/>
      <point x="337" y="345" type="curve" smooth="yes"/>
      <point x="337" y="335" type="line"/>
    </contour>
  </outline>
</glyph>
<glyph name="x" format="1">
  <advance width="478"/>
  <unicode hex="0078"/>
  <outline>
    <contour>
      <point x="363" y="0" type="line"/>
      <point x="463" y="0" type="line"/>
      <point x="273" y="271" type="line"/>
      <point x="253" y="291" type="line"/>
      <point x="125" y="485" type="line"/>
      <point x="25" y="485" type="line"/>
      <point x="202" y="230" type="line"/>
      <point x="223" y="209" type="line"/>
    </contour>
    <contour>
      <point x="198" y="266" type="line"/>
      <point x="15" y="0" type="line"/>
      <point x="105" y="0" type="line"/>
      <point x="247" y="210" type="line"/>
    </contour>
    <contour>
      <point x="279" y="236" type="line"/>
      <point x="453" y="485" type="line"/>
      <point x="363" y="485" type="line"/>
      <point x="233" y="292" type="line"/>
    </contour>
  </outline>
</glyph>
<glyph name="y" format="1">
  <advance width="466"/>
  <unicode hex="0079"/>
  <outline>
    <contour>
      <point x="209" y="50" type="line"/>
      <point x="111" y="-230" type="line"/>
      <point x="191" y="-230" type="line"/>
      <point x="441" y="485" type="line"/>
      <point x="356" y="485" type="line"/>
      <point x="231" y="92" type="line"/>
    </contour>
    <contour>
      <point x="247" y="64" type="line"/>
      <point x="247" y="64"/>
      <point x="115" y="485"/>
      <point x="115" y="485" type="curve"/>
      <point x="25" y="485" type="line"/>
      <point x="198" y="-25" type="line"/>
    </contour>
  </outline>
</glyph>
<glyph name="z" format="1">
  <advance width="445"/>
  <unicode hex="007A"/>
  <outline>
    <contour>
      <point x="410" y="70" type="line"/>
      <point x="147" y="70" type="line"/>
      <point x="410" y="435" type="line"/>
      <point x="405" y="485" type="line"/>
      <point x="49" y="485" type="line"/>
      <point x="49" y="415" type="line"/>
      <point x="305" y="415" type="line"/>
      <point x="45" y="50" type="line"/>
      <point x="50" y="0" type="line"/>
      <point x="410" y="0" type="line"/>
    </contour>
  </outline>
</glyph>
<glyph name="braceleft" format="1">
  <advance width="371"/>
  <unicode hex="007B"/>
  <outline>
    <contour>
      <point x="164" y="433" type="line"/>
      <point x="164" y="369"/>
      <point x="128" y="343"/>
      <point x="82" y="329" type="curve"/>
      <point x="82" y="279" type="line"/>
      <point x="123" y="270"/>
      <point x="164" y="251"/>
      <point x="164" y="187" type="curve" smooth="yes"/>
      <point x="164" y="-32" type="line" smooth="yes"/>
      <point x="164" y="-117"/>
      <point x="252" y="-158"/>
      <point x="329" y="-133" type="curve"/>
      <point x="329" y="-78" type="line"/>
      <point x="292" y="-83"/>
      <point x="244" y="-77"/>
      <point x="244" y="-27" type="curve" smooth="yes"/>
      <point x="244" y="187" type="line" smooth="yes"/>
      <point x="244" y="257"/>
      <point x="205" y="295"/>
      <point x="138" y="306" type="curve"/>
      <point x="205" y="315"/>
      <point x="244" y="378"/>
      <point x="244" y="433" type="curve" smooth="yes"/>
      <point x="244" y="638" type="line" smooth="yes"/>
      <point x="244" y="688"/>
      <point x="292" y="694"/>
      <point x="329" y="689" type="curve"/>
      <point x="329" y="744" type="line"/>
      <point x="252" y="769"/>
      <point x="164" y="728"/>
      <point x="164" y="643" type="curve" smooth="yes"/>
    </contour>
  </outline>
</glyph>
<glyph name="asciitilde" format="1">
  <advance width="489"/>
  <unicode hex="007E"/>
  <outline>
    <contour>
      <point x="326" y="205" type="curve" smooth="yes"/>
      <point x="392" y="205"/>
      <point x="417" y="257"/>
      <point x="411" y="323" type="curve"/>
      <point x="353" y="323" type="line"/>
      <point x="353" y="295"/>
      <point x="348" y="275"/>
      <point x="323" y="275" type="curve" smooth="yes"/>
      <point x="273" y="275"/>
      <point x="226" y="319"/>
      <point x="169" y="319" type="curve" smooth="yes"/>
      <point x="107" y="319"/>
      <point x="73" y="267"/>
      <point x="78" y="206" type="curve"/>
      <point x="139" y="206" type="line"/>
      <point x="139" y="230"/>
      <point x="146" y="249"/>
      <point x="172" y="249" type="curve" smooth="yes"/>
      <point x="208" y="249"/>
      <point x="276" y="205"/>
    </contour>
  </outline>
</glyph>
<glyph name="cent" format="1">
  <advance width="460"/>
  <unicode hex="00A2"/>
  <outline>
    <contour>
      <point x="278" y="483" type="line"/>
      <point x="278" y="605" type="line"/>
      <point x="224" y="575" type="line"/>
      <point x="224" y="484" type="line"/>
      <point x="226" y="484" type="line"/>
    </contour>
    <contour>
      <point x="224" y="-9" type="line"/>
      <point x="224" y="-115" type="line"/>
      <point x="278" y="-90" type="line"/>
      <point x="278" y="-8" type="line"/>
    </contour>
    <component base="c" xOffset="-3"/>
  </outline>
</glyph>
<glyph name="yen" format="1">
  <advance width="570"/>
  <unicode hex="00A5"/>
  <outline>
    <contour>
      <point x="87" y="243" type="line"/>
      <point x="492" y="243" type="line"/>
      <point x="492" y="308" type="line"/>
      <point x="87" y="308" type="line"/>
    </contour>
    <contour>
      <point x="87" y="113" type="line"/>
      <point x="492" y="113" type="line"/>
      <point x="492" y="178" type="line"/>
      <point x="87" y="178" type="line"/>
    </contour>
    <component base="Y" xOffset="2"/>
  </outline>
</glyph>
<glyph name="brokenbar" format="1">
  <advance width="264"/>
  <unicode hex="00A6"/>
  <outline>
    <contour>
      <point x="167" y="395" type="line"/>
      <point x="167" y="750" type="line"/>
      <point x="97" y="750" type="line"/>
      <point x="97" y="395" type="line"/>
    </contour>
    <contour>
      <point x="167" y="-250" type="line"/>
      <point x="167" y="160" type="line"/>
      <point x="97" y="160" type="line"/>
      <point x="97" y="-250" type="line"/>
    </contour>
  </outline>
</glyph>
<glyph name="section" format="1">
  <advance width="478"/>
  <unicode hex="00A7"/>
  <outline>
    <contour>
      <point x="251" y="715" type="curve" smooth="yes"/>
      <point x="167" y="715"/>
      <point x="84" y="665"/>
      <point x="84" y="569" type="curve" smooth="yes"/>
      <point x="84" y="486"/>
      <point x="143" y="449"/>
      <point x="205" y="421" type="curve" smooth="yes"/>
      <point x="271" y="390"/>
      <point x="340" y="370"/>
      <point x="340" y="311" type="curve" smooth="yes"/>
      <point x="340" y="264"/>
      <point x="299" y="242"/>
      <point x="273" y="239" type="curve"/>
      <point x="320" y="216" type="line"/>
      <point x="371" y="226"/>
      <point x="426" y="265"/>
      <point x="426" y="331" type="curve" smooth="yes"/>
      <point x="426" y="412"/>
      <point x="356" y="444"/>
      <point x="290" y="472" type="curve" smooth="yes"/>
      <point x="230" y="498"/>
      <point x="174" y="521"/>
      <point x="174" y="574" type="curve" smooth="yes"/>
      <point x="174" y="614"/>
      <point x="205" y="645"/>
      <point x="250" y="645" type="curve" smooth="yes"/>
      <point x="299" y="645"/>
      <point x="326" y="611"/>
      <point x="326" y="560" type="curve"/>
      <point x="406" y="565" type="line"/>
      <point x="416" y="651"/>
      <point x="344" y="715"/>
    </contour>
    <contour>
      <point x="237" y="-100" type="curve" smooth="yes"/>
      <point x="336" y="-100"/>
      <point x="409" y="-41"/>
      <point x="409" y="46" type="curve" smooth="yes"/>
      <point x="409" y="134"/>
      <point x="336" y="167"/>
      <point x="267" y="196" type="curve" smooth="yes"/>
      <point x="206" y="222"/>
      <point x="149" y="244"/>
      <point x="149" y="298" type="curve" smooth="yes"/>
      <point x="149" y="349"/>
      <point x="185" y="367"/>
      <point x="207" y="370" type="curve"/>
      <point x="160" y="396" type="line"/>
      <point x="108" y="380"/>
      <point x="64" y="344"/>
      <point x="64" y="290" type="curve" smooth="yes"/>
      <point x="64" y="206"/>
      <point x="130" y="173"/>
      <point x="195" y="145" type="curve" smooth="yes"/>
      <point x="258" y="119"/>
      <point x="319" y="99"/>
      <point x="319" y="45" type="curve" smooth="yes"/>
      <point x="319" y="-2"/>
      <point x="287" y="-30"/>
      <point x="237" y="-30" type="curve" smooth="yes"/>
      <point x="184" y="-30"/>
      <point x="143" y="4"/>
      <point x="143" y="60" type="curve"/>
      <point x="63" y="55" type="line"/>
      <point x="62" y="-31"/>
      <point x="132" y="-100"/>
    </contour>
  </outline>
</glyph>
<glyph name="dieresis" format="1">
  <advance width="456"/>
  <unicode hex="00A8"/>
  <outline>
    <contour>
      <point x="82" y="644" type="curve" smooth="yes"/>
      <point x="82" y="612"/>
      <point x="106" y="589"/>
      <point x="137" y="589" type="curve" smooth="yes"/>
      <point x="170" y="589"/>
      <point x="194" y="612"/>
      <point x="194" y="644" type="curve" smooth="yes"/>
      <point x="194" y="676"/>
      <point x="170" y="700"/>
      <point x="137" y="700" type="curve" smooth="yes"/>
      <point x="106" y="700"/>
      <point x="82" y="676"/>
    </contour>
    <contour>
      <point x="262" y="644" type="curve" smooth="yes"/>
      <point x="262" y="612"/>
      <point x="285" y="589"/>
      <point x="316" y="589" type="curve" smooth="yes"/>
      <point x="349" y="589"/>
      <point x="374" y="612"/>
      <point x="374" y="644" type="curve" smooth="yes"/>
      <point x="374" y="676"/>
      <point x="349" y="700"/>
      <point x="316" y="700" type="curve" smooth="yes"/>
      <point x="285" y="700"/>
      <point x="262" y="676"/>
    </contour>
  </outline>
</glyph>
<glyph name="registered" format="1">
  <advance width="854"/>
  <unicode hex="00AE"/>
  <outline>
    <contour>
      <point x="62" y="350" type="curve" smooth="yes"/>
      <point x="62" y="148"/>
      <point x="225" y="-15"/>
      <point x="427" y="-15" type="curve" smooth="yes"/>
      <point x="629" y="-15"/>
      <point x="792" y="148"/>
      <point x="792" y="350" type="curve" smooth="yes"/>
      <point x="792" y="552"/>
      <point x="629" y="715"/>
      <point x="427" y="715" type="curve" smooth="yes"/>
      <point x="225" y="715"/>
      <point x="62" y="552"/>
    </contour>
    <contour>
      <point x="120" y="350" type="curve" smooth="yes"/>
      <point x="120" y="524"/>
      <point x="253" y="665"/>
      <point x="427" y="665" type="curve" smooth="yes"/>
      <point x="601" y="665"/>
      <point x="733" y="524"/>
      <point x="733" y="350" type="curve" smooth="yes"/>
      <point x="733" y="176"/>
      <point x="601" y="35"/>
      <point x="427" y="35" type="curve" smooth="yes"/>
      <point x="253" y="35"/>
      <point x="120" y="176"/>
    </contour>
    <contour>
      <point x="441" y="306" type="line"/>
      <point x="458" y="306"/>
      <point x="474" y="313"/>
      <point x="488" y="316" type="curve" smooth="yes"/>
      <point x="541" y="327"/>
      <point x="586" y="374"/>
      <point x="586" y="437" type="curve" smooth="yes"/>
      <point x="586" y="508"/>
      <point x="537" y="565"/>
      <point x="448" y="565" type="curve" smooth="yes"/>
      <point x="288" y="565" type="line"/>
      <point x="288" y="143" type="line"/>
      <point x="358" y="143" type="line"/>
      <point x="358" y="306" type="line"/>
    </contour>
    <contour>
      <point x="358" y="505" type="line"/>
      <point x="436" y="505" type="line" smooth="yes"/>
      <point x="488" y="505"/>
      <point x="516" y="480"/>
      <point x="516" y="435" type="curve" smooth="yes"/>
      <point x="516" y="390"/>
      <point x="487" y="361"/>
      <point x="436" y="361" type="curve" smooth="yes"/>
      <point x="358" y="361" type="line"/>
    </contour>
    <contour>
      <point x="432" y="309" type="line"/>
      <point x="512" y="143" type="line"/>
      <point x="588" y="143" type="line"/>
      <point x="508" y="301" type="line"/>
      <point x="493" y="319" type="line"/>
    </contour>
  </outline>
</glyph>
<glyph name="macron" format="1">
  <advance width="426"/>
  <unicode hex="00AF"/>
  <outline>
    <contour>
      <point x="77" y="630" type="line"/>
      <point x="349" y="630" type="line"/>
      <point x="349" y="700" type="line"/>
      <point x="77" y="700" type="line"/>
    </contour>
  </outline>
</glyph>
<glyph name="plusminus" format="1">
  <advance width="588"/>
  <unicode hex="00B1"/>
  <outline>
    <contour>
      <point x="100" y="60" type="line"/>
      <point x="100" y="-15" type="line"/>
      <point x="480" y="-15" type="line"/>
      <point x="480" y="60" type="line"/>
    </contour>
    <contour>
      <point x="328" y="110" type="line"/>
      <point x="328" y="299" type="line"/>
      <point x="511" y="299" type="line"/>
      <point x="511" y="374" type="line"/>
      <point x="328" y="374" type="line"/>
      <point x="328" y="560" type="line"/>
      <point x="253" y="560" type="line"/>
      <point x="253" y="374" type="line"/>
      <point x="77" y="374" type="line"/>
      <point x="77" y="299" type="line"/>
      <point x="253" y="299" type="line"/>
      <point x="253" y="110" type="line"/>
    </contour>
  </outline>
</glyph>
<glyph name="threesuperior" format="1">
  <advance width="359"/>
  <unicode hex="00B3"/>
  <outline>
    <contour>
      <point x="252" y="509" type="curve" smooth="yes"/>
      <point x="252" y="463"/>
      <point x="225" y="435"/>
      <point x="182" y="435" type="curve" smooth="yes"/>
      <point x="136" y="435"/>
      <point x="105" y="461"/>
      <point x="103" y="505" type="curve"/>
      <point x="43" y="500" type="line"/>
      <point x="42" y="434"/>
      <point x="95" y="380"/>
      <point x="182" y="380" type="curve" smooth="yes"/>
      <point x="260" y="380"/>
      <point x="322" y="427"/>
      <point x="322" y="511" type="curve" smooth="yes"/>
      <point x="322" y="590"/>
      <point x="258" y="621"/>
      <point x="205" y="618" type="curve"/>
      <point x="314" y="738" type="line"/>
      <point x="309" y="785" type="line"/>
      <point x="52" y="785" type="line"/>
      <point x="52" y="730" type="line"/>
      <point x="235" y="730" type="line"/>
      <point x="133" y="609" type="line"/>
      <point x="145" y="575" type="line"/>
      <point x="155" y="579"/>
      <point x="167" y="580"/>
      <point x="178" y="580" type="curve" smooth="yes"/>
      <point x="216" y="580"/>
      <point x="252" y="558"/>
    </contour>
  </outline>
</glyph>
<glyph name="mu" format="1">
  <advance width="531"/>
  <unicode hex="00B5"/>
  <unicode hex="03BC"/>
  <outline>
    <contour>
      <point x="349" y="159" type="line"/>
      <point x="349" y="115"/>
      <point x="314" y="55"/>
      <point x="243" y="55" type="curve" smooth="yes"/>
      <point x="186" y="55"/>
      <point x="152" y="82"/>
      <point x="152" y="156" type="curve" smooth="yes"/>
      <point x="152" y="495" type="line"/>
      <point x="67" y="460" type="line"/>
      <point x="67" y="-250" type="line"/>
      <point x="152" y="-215" type="line"/>
      <point x="152" y="3" type="line"/>
      <point x="168" y="-9"/>
      <point x="195" y="-15"/>
      <point x="220" y="-15" type="curve" smooth="yes"/>
      <point x="286" y="-15"/>
      <point x="328" y="16"/>
      <point x="354" y="60" type="curve"/>
      <point x="377" y="-17"/>
      <point x="473" y="-12"/>
      <point x="499" y="0" type="curve"/>
      <point x="499" y="60" type="line"/>
      <point x="456" y="60"/>
      <point x="434" y="65"/>
      <point x="434" y="116" type="curve" smooth="yes"/>
      <point x="434" y="495" type="line"/>
      <point x="349" y="460" type="line"/>
    </contour>
  </outline>
</glyph>
<glyph name="onesuperior" format="1">
  <advance width="304"/>
  <unicode hex="00B9"/>
  <outline>
    <contour>
      <point x="198" y="785" type="line"/>
      <point x="167" y="790" type="line"/>
      <point x="52" y="765" type="line"/>
      <point x="58" y="719" type="line"/>
      <point x="128" y="725" type="line"/>
      <point x="128" y="446" type="line"/>
      <point x="52" y="441" type="line"/>
      <point x="52" y="390" type="line"/>
      <point x="272" y="390" type="line"/>
      <point x="272" y="441" type="line"/>
      <point x="198" y="446" type="line"/>
    </contour>
  </outline>
</glyph>
<glyph name="ordmasculine" format="1">
  <advance width="413"/>
  <unicode hex="00BA"/>
  <outline>
    <contour>
      <point x="73" y="215" type="line"/>
      <point x="340" y="215" type="line"/>
      <point x="340" y="280" type="line"/>
      <point x="73" y="280" type="line"/>
    </contour>
    <component base="osuperior" xOffset="30"/>
  </outline>
</glyph>
<glyph name="Aring" format="1">
  <advance width="615"/>
  <unicode hex="00C5"/>
  <outline>
    <contour>
      <point x="430" y="260" type="line"/>
      <point x="200" y="260" type="line"/>
      <point x="315" y="593" type="line"/>
    </contour>
    <contour>
      <point x="520" y="0" type="line"/>
      <point x="615" y="0" type="line"/>
      <point x="357" y="700" type="line"/>
      <point x="347" y="700" type="line"/>
      <point x="311" y="700" type="line"/>
      <point x="275" y="700" type="line"/>
      <point x="261" y="700" type="line"/>
      <point x="267" y="686" type="line"/>
      <point x="20" y="0" type="line"/>
      <point x="110" y="0" type="line"/>
      <point x="174" y="185" type="line"/>
      <point x="456" y="185" type="line"/>
    </contour>
    <component base="ring.cap" xOffset="120" yOffset="183"/>
  </outline>
</glyph>
<glyph name="AE" format="1">
  <advance width="817"/>
  <unicode hex="00C6"/>
  <outline>
    <contour>
      <point x="423" y="0" type="line"/>
      <point x="767" y="0" type="line"/>
      <point x="767" y="75" type="line"/>
      <point x="513" y="75" type="line"/>
      <point x="513" y="320" type="line"/>
      <point x="738" y="320" type="line"/>
      <point x="738" y="395" type="line"/>
      <point x="513" y="395" type="line"/>
      <point x="513" y="625" type="line"/>
      <point x="767" y="625" type="line"/>
      <point x="767" y="700" type="line"/>
      <point x="363" y="700" type="line"/>
      <point x="-5" y="0" type="line"/>
      <point x="88" y="0" type="line"/>
      <point x="423" y="653" type="line"/>
    </contour>
    <contour>
      <point x="468" y="325" type="line"/>
      <point x="210" y="325" type="line"/>
      <point x="169" y="250" type="line"/>
      <point x="468" y="250" type="line"/>
    </contour>
  </outline>
</glyph>
<glyph name="multiply" format="1">
  <advance width="630"/>
  <unicode hex="00D7"/>
  <outline>
    <contour>
      <point x="502" y="487" type="line"/>
      <point x="314" y="299" type="line"/>
      <point x="130" y="486" type="line"/>
      <point x="77" y="430" type="line"/>
      <point x="261" y="245" type="line"/>
      <point x="75" y="59" type="line"/>
      <point x="128" y="5" type="line"/>
      <point x="314" y="191" type="line"/>
      <point x="502" y="5" type="line"/>
      <point x="555" y="60" type="line"/>
      <point x="368" y="246" type="line"/>
      <point x="555" y="432" type="line"/>
    </contour>
  </outline>
</glyph>
<glyph name="Oslash" format="1">
  <advance width="616"/>
  <unicode hex="00D8"/>
  <outline>
    <contour>
      <point x="50" y="-15" type="line"/>
      <point x="115" y="-15" type="line"/>
      <point x="566" y="715" type="line"/>
      <point x="501" y="715" type="line"/>
    </contour>
    <component base="O" xOffset="-10"/>
  </outline>
</glyph>
<glyph name="Thorn" format="1">
  <advance width="570"/>
  <unicode hex="00DE"/>
  <outline>
    <contour>
      <point x="185" y="700" type="line"/>
      <point x="95" y="700" type="line"/>
      <point x="95" y="0" type="line"/>
      <point x="185" y="0" type="line"/>
      <point x="185" y="146" type="line"/>
      <point x="277" y="146" type="line" smooth="yes"/>
      <point x="423" y="146"/>
      <point x="540" y="191"/>
      <point x="540" y="361" type="curve" smooth="yes"/>
      <point x="540" y="531"/>
      <point x="422" y="570"/>
      <point x="279" y="570" type="curve" smooth="yes"/>
      <point x="185" y="570" type="line"/>
    </contour>
    <contour>
      <point x="185" y="495" type="line"/>
      <point x="279" y="495" type="line" smooth="yes"/>
      <point x="390" y="495"/>
      <point x="450" y="461"/>
      <point x="450" y="360" type="curve" smooth="yes"/>
      <point x="450" y="259"/>
      <point x="391" y="221"/>
      <point x="276" y="221" type="curve" smooth="yes"/>
      <point x="185" y="221" type="line"/>
    </contour>
  </outline>
</glyph>
<glyph name="germandbls" format="1">
  <advance width="584"/>
  <unicode hex="00DF"/>
  <outline>
    <contour>
      <point x="253" y="3" type="line"/>
      <point x="281" y="-6"/>
      <point x="314" y="-10"/>
      <point x="341" y="-10" type="curve" smooth="yes"/>
      <point x="453" y="-10"/>
      <point x="523" y="46"/>
      <point x="528" y="150" type="curve" smooth="yes"/>
      <point x="529" y="181"/>
      <point x="529" y="203"/>
      <point x="528" y="225" type="curve" smooth="yes"/>
      <point x="525" y="357"/>
      <point x="436" y="395"/>
      <point x="349" y="390" type="curve"/>
      <point x="387" y="420"/>
      <point x="418" y="441"/>
      <point x="441" y="460" type="curve" smooth="yes"/>
      <point x="491" y="501"/>
      <point x="509" y="518"/>
      <point x="509" y="563" type="curve" smooth="yes"/>
      <point x="509" y="699"/>
      <point x="410" y="750"/>
      <point x="312" y="750" type="curve" smooth="yes"/>
      <point x="205" y="750"/>
      <point x="95" y="676"/>
      <point x="95" y="529" type="curve" smooth="yes"/>
      <point x="95" y="0" type="line"/>
      <point x="180" y="0" type="line"/>
      <point x="180" y="538" type="line" smooth="yes"/>
      <point x="180" y="632"/>
      <point x="246" y="680"/>
      <point x="310" y="680" type="curve" smooth="yes"/>
      <point x="371" y="680"/>
      <point x="425" y="646"/>
      <point x="425" y="565" type="curve" smooth="yes"/>
      <point x="425" y="533"/>
      <point x="415" y="515"/>
      <point x="393" y="495" type="curve" smooth="yes"/>
      <point x="350" y="455"/>
      <point x="311" y="419"/>
      <point x="282" y="396" type="curve"/>
      <point x="287" y="333" type="line"/>
      <point x="299" y="334"/>
      <point x="320" y="335"/>
      <point x="332" y="335" type="curve" smooth="yes"/>
      <point x="400" y="335"/>
      <point x="441" y="310"/>
      <point x="443" y="225" type="curve" smooth="yes"/>
      <point x="443" y="201"/>
      <point x="444" y="175"/>
      <point x="443" y="150" type="curve" smooth="yes"/>
      <point x="440" y="93"/>
      <point x="408" y="55"/>
      <point x="330" y="55" type="curve" smooth="yes"/>
      <point x="304" y="55"/>
      <point x="273" y="58"/>
      <point x="254" y="65" type="curve"/>
    </contour>
  </outline>
</glyph>
<glyph name="ae" format="1">
  <advance width="747"/>
  <unicode hex="00E6"/>
  <outline>
    <contour>
      <point x="410" y="115" type="line"/>
      <point x="410" y="328" type="line" smooth="yes"/>
      <point x="410" y="445"/>
      <point x="342" y="500"/>
      <point x="244" y="500" type="curve" smooth="yes"/>
      <point x="126" y="500"/>
      <point x="63" y="421"/>
      <point x="74" y="339" type="curve"/>
      <point x="149" y="345" type="line"/>
      <point x="149" y="397"/>
      <point x="184" y="430"/>
      <point x="241" y="430" type="curve" smooth="yes"/>
      <point x="294" y="430"/>
      <point x="325" y="400"/>
      <point x="325" y="332" type="curve" smooth="yes"/>
      <point x="325" y="269" type="line"/>
      <point x="327" y="270"/>
      <point x="216" y="255"/>
      <point x="154" y="240" type="curve" smooth="yes"/>
      <point x="84" y="223"/>
      <point x="60" y="198"/>
      <point x="60" y="127" type="curve" smooth="yes"/>
      <point x="60" y="45"/>
      <point x="122" y="-15"/>
      <point x="201" y="-15" type="curve" smooth="yes"/>
      <point x="286" y="-15"/>
      <point x="329" y="38"/>
      <point x="347" y="85" type="curve"/>
      <point x="347" y="85"/>
      <point x="352" y="85"/>
      <point x="352" y="85" type="curve"/>
    </contour>
    <contour>
      <point x="200" y="197" type="curve" smooth="yes"/>
      <point x="243" y="209"/>
      <point x="325" y="221"/>
      <point x="325" y="221" type="curve"/>
      <point x="325" y="221"/>
      <point x="325" y="193"/>
      <point x="325" y="157" type="curve" smooth="yes"/>
      <point x="325" y="95"/>
      <point x="286" y="55"/>
      <point x="227" y="55" type="curve" smooth="yes"/>
      <point x="178" y="55"/>
      <point x="145" y="85"/>
      <point x="145" y="137" type="curve" smooth="yes"/>
      <point x="145" y="171"/>
      <point x="161" y="186"/>
    </contour>
    <contour>
      <point x="683" y="140" type="curve"/>
      <point x="613" y="145" type="line"/>
      <point x="606" y="95"/>
      <point x="579" y="55"/>
      <point x="517" y="55" type="curve" smooth="yes"/>
      <point x="457" y="55"/>
      <point x="410" y="92"/>
      <point x="410" y="175" type="curve" smooth="yes"/>
      <point x="410" y="226" type="line"/>
      <point x="410" y="226"/>
      <point x="524" y="239"/>
      <point x="599" y="253" type="curve" smooth="yes"/>
      <point x="673" y="267"/>
      <point x="687" y="274"/>
      <point x="687" y="340" type="curve" smooth="yes"/>
      <point x="687" y="438"/>
      <point x="623" y="500"/>
      <point x="517" y="500" type="curve" smooth="yes"/>
      <point x="396" y="500"/>
      <point x="331" y="417"/>
      <point x="326" y="314" type="curve"/>
      <point x="326" y="160" type="line"/>
      <point x="329" y="43"/>
      <point x="414" y="-15"/>
      <point x="517" y="-15" type="curve" smooth="yes"/>
      <point x="628" y="-15"/>
      <point x="687" y="61"/>
    </contour>
    <contour>
      <point x="411" y="298" type="line"/>
      <point x="411" y="376"/>
      <point x="444" y="430"/>
      <point x="519" y="430" type="curve" smooth="yes"/>
      <point x="573" y="430"/>
      <point x="604" y="398"/>
      <point x="604" y="342" type="curve" smooth="yes"/>
      <point x="604" y="315"/>
      <point x="597" y="306"/>
      <point x="553" y="298" type="curve" smooth="yes"/>
      <point x="485" y="285"/>
      <point x="411" y="277"/>
      <point x="411" y="277" type="curve"/>
    </contour>
  </outline>
</glyph>
<glyph name="eth" format="1">
  <advance width="542"/>
  <unicode hex="00F0"/>
  <outline>
    <contour>
      <point x="179" y="750" type="curve"/>
      <point x="105" y="718" type="line"/>
      <point x="249" y="679"/>
      <point x="356" y="571"/>
      <point x="373" y="408" type="curve"/>
      <point x="350" y="449"/>
      <point x="303" y="475"/>
      <point x="244" y="475" type="curve" smooth="yes"/>
      <point x="158" y="475"/>
      <point x="78" y="412"/>
      <point x="73" y="305" type="curve" smooth="yes"/>
      <point x="70" y="243"/>
      <point x="70" y="237"/>
      <point x="73" y="160" type="curve" smooth="yes"/>
      <point x="77" y="51"/>
      <point x="163" y="-15"/>
      <point x="269" y="-15" type="curve" smooth="yes"/>
      <point x="373" y="-15"/>
      <point x="458" y="49"/>
      <point x="463" y="160" type="curve" smooth="yes"/>
      <point x="466" y="232"/>
      <point x="466" y="276"/>
      <point x="463" y="339" type="curve" smooth="yes"/>
      <point x="453" y="564"/>
      <point x="343" y="692"/>
    </contour>
    <contour>
      <point x="378" y="164" type="curve" smooth="yes"/>
      <point x="375" y="98"/>
      <point x="332" y="55"/>
      <point x="269" y="55" type="curve" smooth="yes"/>
      <point x="205" y="55"/>
      <point x="161" y="99"/>
      <point x="158" y="165" type="curve" smooth="yes"/>
      <point x="156" y="216"/>
      <point x="156" y="238"/>
      <point x="158" y="300" type="curve" smooth="yes"/>
      <point x="161" y="376"/>
      <point x="208" y="405"/>
      <point x="266" y="405" type="curve" smooth="yes"/>
      <point x="325" y="405"/>
      <point x="375" y="370"/>
      <point x="378" y="305" type="curve" smooth="yes"/>
      <point x="380" y="245"/>
      <point x="380" y="212"/>
    </contour>
    <contour>
      <point x="472" y="750" type="line"/>
      <point x="383" y="750" type="line"/>
      <point x="295" y="682" type="line"/>
      <point x="260" y="652" type="line"/>
      <point x="108" y="540" type="line"/>
      <point x="191" y="540" type="line"/>
      <point x="293" y="616" type="line"/>
      <point x="333" y="650" type="line"/>
    </contour>
  </outline>
</glyph>
<glyph name="divide" format="1">
  <advance width="597"/>
  <unicode hex="00F7"/>
  <outline>
    <contour>
      <point x="232" y="459" type="curve" smooth="yes"/>
      <point x="232" y="423"/>
      <point x="259" y="395"/>
      <point x="296" y="395" type="curve" smooth="yes"/>
      <point x="334" y="395"/>
      <point x="362" y="423"/>
      <point x="362" y="459" type="curve" smooth="yes"/>
      <point x="362" y="496"/>
      <point x="334" y="525"/>
      <point x="296" y="525" type="curve" smooth="yes"/>
      <point x="259" y="525"/>
      <point x="232" y="496"/>
    </contour>
    <contour>
      <point x="42" y="225" type="line"/>
      <point x="555" y="225" type="line"/>
      <point x="555" y="300" type="line"/>
      <point x="42" y="300" type="line"/>
    </contour>
    <contour>
      <point x="232" y="64" type="curve" smooth="yes"/>
      <point x="232" y="28"/>
      <point x="259" y="0"/>
      <point x="296" y="0" type="curve" smooth="yes"/>
      <point x="334" y="0"/>
      <point x="362" y="28"/>
      <point x="362" y="64" type="curve" smooth="yes"/>
      <point x="362" y="101"/>
      <point x="334" y="130"/>
      <point x="296" y="130" type="curve" smooth="yes"/>
      <point x="259" y="130"/>
      <point x="232" y="101"/>
    </contour>
  </outline>
</glyph>
<glyph name="oslash" format="1">
  <advance width="526"/>
  <unicode hex="00F8"/>
  <outline>
    <contour>
      <point x="476" y="500" type="line"/>
      <point x="416" y="500" type="line"/>
      <point x="378" y="446" type="line"/>
      <point x="357" y="417" type="line"/>
      <point x="144" y="116" type="line"/>
      <point x="118" y="80" type="line"/>
      <point x="51" y="-15" type="line"/>
      <point x="50" y="-15"/>
      <point x="111" y="-15"/>
      <point x="111" y="-15" type="curve"/>
      <point x="153" y="44" type="line"/>
      <point x="172" y="71" type="line"/>
      <point x="390" y="378" type="line"/>
      <point x="411" y="408" type="line"/>
    </contour>
    <component base="o"/>
  </outline>
</glyph>
<glyph name="dotlessi" format="1">
  <advance width="270"/>
  <unicode hex="0131"/>
  <outline>
    <contour>
      <point x="170" y="125" type="curve" smooth="yes"/>
      <point x="170" y="495" type="line"/>
      <point x="85" y="460" type="line"/>
      <point x="85" y="95" type="line" smooth="yes"/>
      <point x="85" y="19"/>
      <point x="132" y="-10"/>
      <point x="184" y="-10" type="curve" smooth="yes"/>
      <point x="203" y="-10"/>
      <point x="221" y="-6"/>
      <point x="235" y="0" type="curve"/>
      <point x="235" y="60" type="line"/>
      <point x="225" y="60" type="line" smooth="yes"/>
      <point x="185" y="60"/>
      <point x="170" y="74"/>
    </contour>
  </outline>
</glyph>
<glyph name="OE" format="1">
  <advance width="814"/>
  <unicode hex="0152"/>
  <outline>
    <contour>
      <point x="404" y="0" type="curve"/>
      <point x="764" y="0" type="line"/>
      <point x="764" y="75" type="line"/>
      <point x="489" y="75" type="line"/>
      <point x="489" y="320" type="line"/>
      <point x="740" y="320" type="line"/>
      <point x="740" y="395" type="line"/>
      <point x="489" y="395" type="line"/>
      <point x="489" y="625" type="line"/>
      <point x="764" y="625" type="line"/>
      <point x="764" y="700" type="line"/>
      <point x="405" y="700" type="line"/>
      <point x="376" y="710"/>
      <point x="336" y="715"/>
      <point x="304" y="715" type="curve" smooth="yes"/>
      <point x="175" y="715"/>
      <point x="74" y="626"/>
      <point x="68" y="492" type="curve" smooth="yes"/>
      <point x="64" y="405"/>
      <point x="64" y="299"/>
      <point x="68" y="207" type="curve" smooth="yes"/>
      <point x="74" y="72"/>
      <point x="173" y="-15"/>
      <point x="302" y="-15" type="curve" smooth="yes"/>
      <point x="334" y="-15"/>
      <point x="375" y="-10"/>
    </contour>
    <contour>
      <point x="305" y="60" type="curve" smooth="yes"/>
      <point x="221" y="60"/>
      <point x="156" y="115"/>
      <point x="153" y="208" type="curve" smooth="yes"/>
      <point x="150" y="305"/>
      <point x="150" y="413"/>
      <point x="153" y="492" type="curve" smooth="yes"/>
      <point x="156" y="583"/>
      <point x="220" y="640"/>
      <point x="304" y="640" type="curve" smooth="yes"/>
      <point x="337" y="640"/>
      <point x="378" y="635"/>
      <point x="404" y="620" type="curve"/>
      <point x="404" y="79" type="line"/>
      <point x="378" y="64"/>
      <point x="337" y="60"/>
    </contour>
  </outline>
</glyph>
<glyph name="oe" format="1">
  <advance width="793"/>
  <unicode hex="0153"/>
  <outline>
    <contour>
      <point x="264" y="-16" type="curve" smooth="yes"/>
      <point x="377" y="-16"/>
      <point x="453" y="52"/>
      <point x="457" y="163" type="curve" smooth="yes"/>
      <point x="459" y="211"/>
      <point x="459" y="271"/>
      <point x="457" y="320" type="curve" smooth="yes"/>
      <point x="452" y="432"/>
      <point x="376" y="499"/>
      <point x="264" y="499" type="curve" smooth="yes"/>
      <point x="152" y="499"/>
      <point x="76" y="432"/>
      <point x="71" y="320" type="curve" smooth="yes"/>
      <point x="69" y="271"/>
      <point x="69" y="211"/>
      <point x="71" y="163" type="curve" smooth="yes"/>
      <point x="75" y="52"/>
      <point x="151" y="-16"/>
    </contour>
    <contour>
      <point x="264" y="54" type="curve" smooth="yes"/>
      <point x="195" y="54"/>
      <point x="159" y="98"/>
      <point x="156" y="166" type="curve" smooth="yes"/>
      <point x="154" y="214"/>
      <point x="154" y="270"/>
      <point x="156" y="318" type="curve" smooth="yes"/>
      <point x="158" y="387"/>
      <point x="196" y="429"/>
      <point x="264" y="429" type="curve" smooth="yes"/>
      <point x="332" y="429"/>
      <point x="370" y="387"/>
      <point x="372" y="318" type="curve" smooth="yes"/>
      <point x="374" y="270"/>
      <point x="374" y="214"/>
      <point x="372" y="166" type="curve" smooth="yes"/>
      <point x="369" y="98"/>
      <point x="333" y="54"/>
    </contour>
    <component base="e" xOffset="305"/>
  </outline>
</glyph>
<glyph name="florin" format="1">
  <advance width="520"/>
  <unicode hex="0192"/>
  <outline>
    <contour>
      <point x="323" y="566" type="curve" smooth="yes"/>
      <point x="336" y="646"/>
      <point x="371" y="675"/>
      <point x="421" y="675" type="curve" smooth="yes"/>
      <point x="458" y="675"/>
      <point x="487" y="660"/>
      <point x="487" y="660" type="curve"/>
      <point x="513" y="719" type="line"/>
      <point x="513" y="719"/>
      <point x="473" y="750"/>
      <point x="418" y="750" type="curve" smooth="yes"/>
      <point x="346" y="750"/>
      <point x="264" y="713"/>
      <point x="239" y="566" type="curve" smooth="yes"/>
      <point x="218" y="441"/>
      <point x="172" y="23"/>
      <point x="157" y="-77" type="curve" smooth="yes"/>
      <point x="145" y="-157"/>
      <point x="110" y="-185"/>
      <point x="58" y="-185" type="curve" smooth="yes"/>
      <point x="21" y="-185"/>
      <point x="-7" y="-169"/>
      <point x="-7" y="-169" type="curve"/>
      <point x="-33" y="-228" type="line"/>
      <point x="-33" y="-228"/>
      <point x="15" y="-260"/>
      <point x="71" y="-260" type="curve" smooth="yes"/>
      <point x="138" y="-260"/>
      <point x="217" y="-230"/>
      <point x="241" y="-77" type="curve" smooth="yes"/>
      <point x="263" y="64"/>
      <point x="302" y="435"/>
    </contour>
    <contour>
      <point x="419" y="425" type="line"/>
      <point x="429" y="485" type="line"/>
      <point x="157" y="485" type="line"/>
      <point x="148" y="425" type="line"/>
    </contour>
  </outline>
</glyph>
<glyph name="hsuperior" format="1">
  <advance width="364"/>
  <unicode hex="02B0"/>
  <outline>
    <contour>
      <point x="122" y="850" type="line"/>
      <point x="57" y="828" type="line"/>
      <point x="57" y="390" type="line"/>
      <point x="122" y="390" type="line"/>
    </contour>
    <contour>
      <point x="257" y="390" type="line"/>
      <point x="322" y="390" type="line"/>
      <point x="322" y="600" type="line" smooth="yes"/>
      <point x="322" y="668"/>
      <point x="284" y="710"/>
      <point x="218" y="710" type="curve" smooth="yes"/>
      <point x="177" y="710"/>
      <point x="139" y="685"/>
      <point x="121" y="659" type="curve"/>
      <point x="118" y="656" type="line"/>
      <point x="122" y="599" type="line"/>
      <point x="122" y="624"/>
      <point x="152" y="660"/>
      <point x="201" y="660" type="curve" smooth="yes"/>
      <point x="237" y="660"/>
      <point x="257" y="641"/>
      <point x="257" y="595" type="curve" smooth="yes"/>
    </contour>
  </outline>
</glyph>
<glyph name="jsuperior" format="1">
  <advance width="189"/>
  <unicode hex="02B2"/>
  <outline>
    <contour>
      <point x="134" y="707" type="line"/>
      <point x="68" y="684" type="line"/>
      <point x="68" y="334" type="line" smooth="yes"/>
      <point x="68" y="302"/>
      <point x="57" y="296"/>
      <point x="17" y="295" type="curve"/>
      <point x="17" y="250" type="line"/>
      <point x="81" y="231"/>
      <point x="134" y="264"/>
      <point x="134" y="318" type="curve" smooth="yes"/>
    </contour>
    <contour>
      <point x="62" y="798" type="curve" smooth="yes"/>
      <point x="62" y="775"/>
      <point x="78" y="758"/>
      <point x="101" y="758" type="curve" smooth="yes"/>
      <point x="125" y="758"/>
      <point x="142" y="775"/>
      <point x="142" y="798" type="curve" smooth="yes"/>
      <point x="142" y="821"/>
      <point x="125" y="838"/>
      <point x="101" y="838" type="curve" smooth="yes"/>
      <point x="78" y="838"/>
      <point x="62" y="821"/>
    </contour>
  </outline>
</glyph>
<glyph name="wsuperior" format="1">
  <advance width="468"/>
  <unicode hex="02B7"/>
  <outline>
    <contour>
      <point x="451" y="700" type="line"/>
      <point x="386" y="700" type="line"/>
      <point x="335" y="502" type="line"/>
      <point x="331" y="490"/>
      <point x="327" y="463"/>
      <point x="327" y="463" type="curve"/>
      <point x="326" y="463" type="line"/>
      <point x="326" y="463"/>
      <point x="322" y="490"/>
      <point x="318" y="502" type="curve" smooth="yes"/>
      <point x="266" y="700" type="line"/>
      <point x="206" y="700" type="line"/>
      <point x="152" y="502" type="line" smooth="yes"/>
      <point x="149" y="490"/>
      <point x="145" y="463"/>
      <point x="145" y="463" type="curve"/>
      <point x="143" y="463" type="line"/>
      <point x="143" y="463"/>
      <point x="138" y="490"/>
      <point x="135" y="502" type="curve" smooth="yes"/>
      <point x="86" y="700" type="line"/>
      <point x="17" y="700" type="line"/>
      <point x="111" y="390" type="line"/>
      <point x="174" y="390" type="line"/>
      <point x="220" y="557" type="line" smooth="yes"/>
      <point x="226" y="578"/>
      <point x="232" y="612"/>
      <point x="232" y="612" type="curve"/>
      <point x="234" y="612" type="line"/>
      <point x="234" y="612"/>
      <point x="241" y="578"/>
      <point x="247" y="557" type="curve" smooth="yes"/>
      <point x="292" y="390" type="line"/>
      <point x="356" y="390" type="line"/>
    </contour>
  </outline>
</glyph>
<glyph name="ysuperior" format="1">
  <advance width="303"/>
  <unicode hex="02B8"/>
  <outline>
    <contour>
      <point x="60" y="250" type="line"/>
      <point x="123" y="250" type="line"/>
      <point x="178" y="391"/>
      <point x="283" y="680"/>
      <point x="291" y="700" type="curve"/>
      <point x="224" y="700" type="line"/>
      <point x="164" y="513" type="line" smooth="yes"/>
      <point x="159" y="501"/>
      <point x="153" y="481"/>
      <point x="153" y="481" type="curve"/>
      <point x="153" y="481" type="line"/>
      <point x="153" y="481"/>
      <point x="147" y="501"/>
      <point x="143" y="514" type="curve" smooth="yes"/>
      <point x="80" y="700" type="line"/>
      <point x="12" y="700" type="line"/>
      <point x="122" y="410" type="line"/>
    </contour>
  </outline>
</glyph>
<glyph name="caron" format="1">
  <advance width="443"/>
  <unicode hex="02C7"/>
  <outline>
    <contour>
      <point x="196" y="540" type="line"/>
      <point x="75" y="695" type="line"/>
      <point x="153" y="695" type="line"/>
      <point x="223" y="602" type="line"/>
      <point x="290" y="695" type="line"/>
      <point x="368" y="695" type="line"/>
      <point x="249" y="540" type="line"/>
    </contour>
  </outline>
</glyph>
<glyph name="ring" format="1">
  <advance width="371"/>
  <unicode hex="02DA"/>
  <outline>
    <contour>
      <point x="86" y="652" type="curve" smooth="yes"/>
      <point x="86" y="593"/>
      <point x="133" y="552"/>
      <point x="185" y="552" type="curve" smooth="yes"/>
      <point x="237" y="552"/>
      <point x="284" y="593"/>
      <point x="284" y="652" type="curve" smooth="yes"/>
      <point x="284" y="712"/>
      <point x="233" y="750"/>
      <point x="185" y="750" type="curve" smooth="yes"/>
      <point x="136" y="750"/>
      <point x="86" y="713"/>
    </contour>
    <contour>
      <point x="141" y="653" type="curve" smooth="yes"/>
      <point x="141" y="681"/>
      <point x="162" y="700"/>
      <point x="185" y="700" type="curve" smooth="yes"/>
      <point x="211" y="700"/>
      <point x="229" y="678"/>
      <point x="229" y="653" type="curve" smooth="yes"/>
      <point x="229" y="623"/>
      <point x="211" y="602"/>
      <point x="185" y="602" type="curve" smooth="yes"/>
      <point x="162" y="602"/>
      <point x="141" y="621"/>
    </contour>
  </outline>
</glyph>
<glyph name="ogonek" format="1">
  <advance width="434"/>
  <unicode hex="02DB"/>
  <outline>
    <contour>
      <point x="332" y="50" type="line"/>
      <point x="328" y="50"/>
      <point x="247" y="0"/>
      <point x="185" y="-50" type="curve" smooth="yes"/>
      <point x="136" y="-90"/>
      <point x="107" y="-119"/>
      <point x="107" y="-174" type="curve" smooth="yes"/>
      <point x="107" y="-258"/>
      <point x="206" y="-270"/>
      <point x="262" y="-250" type="curve"/>
      <point x="262" y="-190" type="line"/>
      <point x="222" y="-190"/>
      <point x="197" y="-181"/>
      <point x="197" y="-149" type="curve" smooth="yes"/>
      <point x="197" y="-127"/>
      <point x="203" y="-110"/>
      <point x="232" y="-82" type="curve" smooth="yes"/>
      <point x="269" y="-46"/>
      <point x="332" y="0"/>
      <point x="332" y="0" type="curve"/>
    </contour>
  </outline>
</glyph>
<glyph name="tilde" format="1">
  <advance width="474"/>
  <unicode hex="02DC"/>
  <outline>
    <contour>
      <point x="307" y="589" type="curve" smooth="yes"/>
      <point x="374" y="589"/>
      <point x="397" y="641"/>
      <point x="391" y="700" type="curve"/>
      <point x="338" y="700" type="line"/>
      <point x="338" y="672"/>
      <point x="331" y="652"/>
      <point x="310" y="652" type="curve" smooth="yes"/>
      <point x="281" y="652"/>
      <point x="224" y="699"/>
      <point x="176" y="699" type="curve" smooth="yes"/>
      <point x="117" y="699"/>
      <point x="88" y="646"/>
      <point x="93" y="589" type="curve"/>
      <point x="149" y="589" type="line"/>
      <point x="149" y="613"/>
      <point x="158" y="633"/>
      <point x="179" y="633" type="curve" smooth="yes"/>
      <point x="211" y="633"/>
      <point x="262" y="589"/>
    </contour>
  </outline>
</glyph>
<glyph name="xsuperior" format="1">
  <advance width="334"/>
  <unicode hex="02E3"/>
  <outline>
    <contour>
      <point x="250" y="390" type="line"/>
      <point x="322" y="390" type="line"/>
      <point x="105" y="700" type="line"/>
      <point x="33" y="700" type="line"/>
    </contour>
    <contour>
      <point x="96" y="390" type="line"/>
      <point x="180" y="517" type="line"/>
      <point x="137" y="553" type="line"/>
      <point x="27" y="390" type="line"/>
    </contour>
    <contour>
      <point x="313" y="700" type="line"/>
      <point x="244" y="700" type="line"/>
      <point x="169" y="585" type="line"/>
      <point x="211" y="547" type="line"/>
    </contour>
  </outline>
</glyph>
<glyph name="Delta" format="1">
  <advance width="674"/>
  <unicode hex="0394"/>
  <unicode hex="2206"/>
  <outline>
    <contour>
      <point x="45" y="0" type="line"/>
      <point x="631" y="0" type="line"/>
      <point x="644" y="41" type="line"/>
      <point x="376" y="700" type="line"/>
      <point x="300" y="700" type="line"/>
      <point x="30" y="41" type="line"/>
    </contour>
    <contour>
      <point x="336" y="593" type="line"/>
      <point x="546" y="70" type="line"/>
      <point x="122" y="70" type="line"/>
    </contour>
  </outline>
</glyph>
<glyph name="dagger" format="1">
  <advance width="540"/>
  <unicode hex="2020"/>
  <outline>
    <contour>
      <point x="483" y="475" type="line"/>
      <point x="305" y="469" type="line"/>
      <point x="313" y="716" type="line"/>
      <point x="234" y="696" type="line"/>
      <point x="240" y="469" type="line"/>
      <point x="57" y="475" type="line"/>
      <point x="58" y="410" type="line"/>
      <point x="241" y="417" type="line"/>
      <point x="250" y="-250" type="line"/>
      <point x="295" y="-250" type="line"/>
      <point x="306" y="416" type="line"/>
      <point x="482" y="410" type="line"/>
    </contour>
  </outline>
</glyph>
<glyph name="daggerdbl" format="1">
  <advance width="535"/>
  <unicode hex="2021"/>
  <outline>
    <contour>
      <point x="468" y="42" type="line"/>
      <point x="299" y="36" type="line"/>
      <point x="297" y="430" type="line"/>
      <point x="466" y="424" type="line"/>
      <point x="468" y="491" type="line"/>
      <point x="298" y="484" type="line"/>
      <point x="307" y="715" type="line"/>
      <point x="230" y="695" type="line"/>
      <point x="237" y="484" type="line"/>
      <point x="69" y="491" type="line"/>
      <point x="67" y="424" type="line"/>
      <point x="94" y="424"/>
      <point x="207" y="429"/>
      <point x="239" y="431" type="curve"/>
      <point x="238" y="35" type="line"/>
      <point x="69" y="42" type="line"/>
      <point x="67" y="-25" type="line"/>
      <point x="237" y="-18" type="line"/>
      <point x="230" y="-249" type="line"/>
      <point x="307" y="-229" type="line"/>
      <point x="298" y="-18" type="line"/>
      <point x="466" y="-25" type="line"/>
    </contour>
  </outline>
</glyph>
<glyph name="bullet" format="1">
  <advance width="337"/>
  <unicode hex="2022"/>
  <outline>
    <contour>
      <point x="77" y="299" type="curve" smooth="yes"/>
      <point x="77" y="249"/>
      <point x="116" y="210"/>
      <point x="166" y="210" type="curve" smooth="yes"/>
      <point x="220" y="210"/>
      <point x="260" y="249"/>
      <point x="260" y="299" type="curve" smooth="yes"/>
      <point x="260" y="353"/>
      <point x="220" y="393"/>
      <point x="166" y="393" type="curve" smooth="yes"/>
      <point x="116" y="393"/>
      <point x="77" y="353"/>
    </contour>
  </outline>
</glyph>
<glyph name="perthousand" format="1">
  <advance width="1253"/>
  <unicode hex="2030"/>
  <outline>
    <contour>
      <point x="77" y="572" type="curve" smooth="yes"/>
      <point x="77" y="486"/>
      <point x="139" y="429"/>
      <point x="225" y="429" type="curve" smooth="yes"/>
      <point x="306" y="429"/>
      <point x="373" y="486"/>
      <point x="373" y="572" type="curve" smooth="yes"/>
      <point x="373" y="658"/>
      <point x="311" y="715"/>
      <point x="225" y="715" type="curve" smooth="yes"/>
      <point x="139" y="715"/>
      <point x="77" y="658"/>
    </contour>
    <contour>
      <point x="153" y="572" type="curve" smooth="yes"/>
      <point x="153" y="626"/>
      <point x="184" y="655"/>
      <point x="225" y="655" type="curve" smooth="yes"/>
      <point x="267" y="655"/>
      <point x="298" y="626"/>
      <point x="298" y="572" type="curve" smooth="yes"/>
      <point x="298" y="519"/>
      <point x="267" y="490"/>
      <point x="225" y="490" type="curve" smooth="yes"/>
      <point x="184" y="490"/>
      <point x="153" y="519"/>
    </contour>
    <contour>
      <point x="513" y="128" type="curve" smooth="yes"/>
      <point x="513" y="42"/>
      <point x="575" y="-15"/>
      <point x="661" y="-15" type="curve" smooth="yes"/>
      <point x="742" y="-15"/>
      <point x="809" y="42"/>
      <point x="809" y="128" type="curve" smooth="yes"/>
      <point x="809" y="214"/>
      <point x="747" y="271"/>
      <point x="661" y="271" type="curve" smooth="yes"/>
      <point x="575" y="271"/>
      <point x="513" y="214"/>
    </contour>
    <contour>
      <point x="589" y="128" type="curve" smooth="yes"/>
      <point x="589" y="182"/>
      <point x="620" y="211"/>
      <point x="661" y="211" type="curve" smooth="yes"/>
      <point x="703" y="211"/>
      <point x="734" y="182"/>
      <point x="734" y="128" type="curve" smooth="yes"/>
      <point x="734" y="75"/>
      <point x="703" y="46"/>
      <point x="661" y="46" type="curve" smooth="yes"/>
      <point x="620" y="46"/>
      <point x="589" y="75"/>
    </contour>
    <contour>
      <point x="880" y="128" type="curve" smooth="yes"/>
      <point x="880" y="42"/>
      <point x="942" y="-15"/>
      <point x="1028" y="-15" type="curve" smooth="yes"/>
      <point x="1109" y="-15"/>
      <point x="1176" y="42"/>
      <point x="1176" y="128" type="curve" smooth="yes"/>
      <point x="1176" y="214"/>
      <point x="1114" y="271"/>
      <point x="1028" y="271" type="curve" smooth="yes"/>
      <point x="942" y="271"/>
      <point x="880" y="214"/>
    </contour>
    <contour>
      <point x="956" y="128" type="curve" smooth="yes"/>
      <point x="956" y="182"/>
      <point x="987" y="211"/>
      <point x="1028" y="211" type="curve" smooth="yes"/>
      <point x="1070" y="211"/>
      <point x="1101" y="182"/>
      <point x="1101" y="128" type="curve" smooth="yes"/>
      <point x="1101" y="75"/>
      <point x="1070" y="46"/>
      <point x="1028" y="46" type="curve" smooth="yes"/>
      <point x="987" y="46"/>
      <point x="956" y="75"/>
    </contour>
    <component base="fraction" xOffset="127"/>
  </outline>
</glyph>
<glyph name="fraction" format="1">
  <advance width="635"/>
  <unicode hex="2044"/>
  <outline>
    <contour>
      <point x="598" y="700" type="line"/>
      <point x="523" y="700" type="line"/>
      <point x="32" y="0" type="line"/>
      <point x="108" y="0" type="line"/>
    </contour>
  </outline>
</glyph>
<glyph name="foursuperior" format="1">
  <advance width="369"/>
  <unicode hex="2074"/>
  <outline>
    <contour>
      <point x="208" y="483" type="line"/>
      <point x="208" y="390" type="line"/>
      <point x="273" y="390" type="line"/>
      <point x="273" y="483" type="line"/>
      <point x="342" y="483" type="line"/>
      <point x="342" y="538" type="line"/>
      <point x="273" y="538" type="line"/>
      <point x="273" y="785" type="line"/>
      <point x="200" y="790" type="line"/>
      <point x="17" y="524" type="line"/>
      <point x="27" y="483" type="line"/>
    </contour>
    <contour>
      <point x="87" y="538" type="line"/>
      <point x="208" y="718" type="line"/>
      <point x="208" y="538" type="line"/>
    </contour>
  </outline>
</glyph>
<glyph name="fivesuperior" format="1">
  <advance width="361"/>
  <unicode hex="2075"/>
  <outline>
    <contour>
      <point x="324" y="517" type="curve" smooth="yes"/>
      <point x="324" y="599"/>
      <point x="271" y="644"/>
      <point x="202" y="644" type="curve" smooth="yes"/>
      <point x="157" y="644"/>
      <point x="126" y="614"/>
      <point x="126" y="614" type="curve"/>
      <point x="138" y="730" type="line"/>
      <point x="297" y="730" type="line"/>
      <point x="297" y="785" type="line"/>
      <point x="88" y="785" type="line"/>
      <point x="64" y="571" type="line"/>
      <point x="117" y="566" type="line"/>
      <point x="134" y="585"/>
      <point x="158" y="594"/>
      <point x="181" y="594" type="curve" smooth="yes"/>
      <point x="227" y="594"/>
      <point x="254" y="567"/>
      <point x="254" y="515" type="curve" smooth="yes"/>
      <point x="254" y="466"/>
      <point x="227" y="435"/>
      <point x="183" y="435" type="curve" smooth="yes"/>
      <point x="139" y="435"/>
      <point x="107" y="460"/>
      <point x="107" y="505" type="curve"/>
      <point x="47" y="500" type="line"/>
      <point x="47" y="419"/>
      <point x="111" y="380"/>
      <point x="183" y="380" type="curve" smooth="yes"/>
      <point x="262" y="380"/>
      <point x="324" y="430"/>
    </contour>
  </outline>
</glyph>
<glyph name="sixsuperior" format="1">
  <advance width="384"/>
  <unicode hex="2076"/>
  <outline>
    <contour>
      <point x="57" y="670" type="curve" smooth="yes"/>
      <point x="51" y="621"/>
      <point x="52" y="558"/>
      <point x="57" y="513" type="curve" smooth="yes"/>
      <point x="66" y="430"/>
      <point x="127" y="380"/>
      <point x="200" y="380" type="curve" smooth="yes"/>
      <point x="280" y="380"/>
      <point x="337" y="435"/>
      <point x="337" y="517" type="curve" smooth="yes"/>
      <point x="337" y="597"/>
      <point x="281" y="638"/>
      <point x="219" y="638" type="curve" smooth="yes"/>
      <point x="149" y="638"/>
      <point x="119" y="585"/>
      <point x="119" y="585" type="curve"/>
      <point x="119" y="614"/>
      <point x="118" y="643"/>
      <point x="122" y="670" type="curve" smooth="yes"/>
      <point x="128" y="712"/>
      <point x="153" y="740"/>
      <point x="196" y="740" type="curve" smooth="yes"/>
      <point x="236" y="740"/>
      <point x="257" y="716"/>
      <point x="257" y="681" type="curve"/>
      <point x="317" y="686" type="line"/>
      <point x="319" y="764"/>
      <point x="257" y="795"/>
      <point x="196" y="795" type="curve" smooth="yes"/>
      <point x="123" y="795"/>
      <point x="66" y="748"/>
    </contour>
    <contour>
      <point x="121" y="514" type="curve" smooth="yes"/>
      <point x="121" y="554"/>
      <point x="160" y="588"/>
      <point x="204" y="588" type="curve" smooth="yes"/>
      <point x="245" y="588"/>
      <point x="272" y="560"/>
      <point x="272" y="512" type="curve" smooth="yes"/>
      <point x="272" y="464"/>
      <point x="242" y="435"/>
      <point x="200" y="435" type="curve" smooth="yes"/>
      <point x="152" y="435"/>
      <point x="121" y="473"/>
    </contour>
  </outline>
</glyph>
<glyph name="eightsuperior" format="1">
  <advance width="394"/>
  <unicode hex="2078"/>
  <outline>
    <contour>
      <point x="197" y="380" type="curve" smooth="yes"/>
      <point x="288" y="380"/>
      <point x="337" y="439"/>
      <point x="337" y="501" type="curve" smooth="yes"/>
      <point x="337" y="546"/>
      <point x="308" y="581"/>
      <point x="258" y="595" type="curve"/>
      <point x="302" y="611"/>
      <point x="329" y="647"/>
      <point x="329" y="688" type="curve" smooth="yes"/>
      <point x="329" y="739"/>
      <point x="284" y="795"/>
      <point x="197" y="795" type="curve" smooth="yes"/>
      <point x="110" y="795"/>
      <point x="65" y="739"/>
      <point x="65" y="688" type="curve" smooth="yes"/>
      <point x="65" y="647"/>
      <point x="92" y="611"/>
      <point x="136" y="595" type="curve"/>
      <point x="86" y="581"/>
      <point x="57" y="546"/>
      <point x="57" y="501" type="curve" smooth="yes"/>
      <point x="57" y="439"/>
      <point x="106" y="380"/>
    </contour>
    <contour>
      <point x="197" y="620" type="curve" smooth="yes"/>
      <point x="156" y="620"/>
      <point x="135" y="645"/>
      <point x="135" y="678" type="curve" smooth="yes"/>
      <point x="135" y="710"/>
      <point x="156" y="740"/>
      <point x="197" y="740" type="curve" smooth="yes"/>
      <point x="238" y="740"/>
      <point x="259" y="710"/>
      <point x="259" y="678" type="curve" smooth="yes"/>
      <point x="259" y="645"/>
      <point x="238" y="620"/>
    </contour>
    <contour>
      <point x="197" y="435" type="curve" smooth="yes"/>
      <point x="150" y="435"/>
      <point x="127" y="465"/>
      <point x="127" y="501" type="curve" smooth="yes"/>
      <point x="127" y="537"/>
      <point x="150" y="565"/>
      <point x="197" y="565" type="curve" smooth="yes"/>
      <point x="244" y="565"/>
      <point x="267" y="537"/>
      <point x="267" y="501" type="curve" smooth="yes"/>
      <point x="267" y="465"/>
      <point x="244" y="435"/>
    </contour>
  </outline>
</glyph>
<glyph name="parenleftsuperior" format="1">
  <advance width="264"/>
  <unicode hex="207D"/>
  <outline>
    <contour>
      <point x="212" y="282" type="line"/>
      <point x="176" y="343"/>
      <point x="127" y="453"/>
      <point x="127" y="575" type="curve" smooth="yes"/>
      <point x="127" y="698"/>
      <point x="176" y="805"/>
      <point x="212" y="866" type="curve"/>
      <point x="169" y="888" type="line"/>
      <point x="130" y="838"/>
      <point x="62" y="718"/>
      <point x="62" y="575" type="curve" smooth="yes"/>
      <point x="62" y="433"/>
      <point x="125" y="309"/>
      <point x="169" y="260" type="curve"/>
    </contour>
  </outline>
</glyph>
<glyph name="parenrightsuperior" format="1">
  <advance width="264"/>
  <unicode hex="207E"/>
  <outline>
    <contour>
      <point x="202" y="575" type="curve" smooth="yes"/>
      <point x="202" y="718"/>
      <point x="134" y="838"/>
      <point x="95" y="888" type="curve"/>
      <point x="52" y="866" type="line"/>
      <point x="88" y="805"/>
      <point x="137" y="698"/>
      <point x="137" y="575" type="curve" smooth="yes"/>
      <point x="137" y="453"/>
      <point x="88" y="343"/>
      <point x="52" y="282" type="curve"/>
      <point x="95" y="260" type="line"/>
      <point x="134" y="309"/>
      <point x="202" y="433"/>
    </contour>
  </outline>
</glyph>
<glyph name="Euro" format="1">
  <advance width="603"/>
  <unicode hex="20AC"/>
  <outline>
    <contour>
      <point x="552" y="520" type="line"/>
      <point x="557" y="637"/>
      <point x="474" y="715"/>
      <point x="351" y="715" type="curve" smooth="yes"/>
      <point x="232" y="715"/>
      <point x="131" y="642"/>
      <point x="125" y="484" type="curve" smooth="yes"/>
      <point x="122" y="407"/>
      <point x="122" y="288"/>
      <point x="125" y="210" type="curve" smooth="yes"/>
      <point x="130" y="64"/>
      <point x="225" y="-15"/>
      <point x="351" y="-15" type="curve" smooth="yes"/>
      <point x="478" y="-15"/>
      <point x="560" y="61"/>
      <point x="555" y="185" type="curve"/>
      <point x="475" y="190" type="line"/>
      <point x="472" y="107"/>
      <point x="427" y="60"/>
      <point x="351" y="60" type="curve" smooth="yes"/>
      <point x="274" y="60"/>
      <point x="218" y="116"/>
      <point x="215" y="211" type="curve" smooth="yes"/>
      <point x="212" y="310"/>
      <point x="212" y="403"/>
      <point x="215" y="484" type="curve" smooth="yes"/>
      <point x="219" y="585"/>
      <point x="274" y="640"/>
      <point x="351" y="640" type="curve" smooth="yes"/>
      <point x="431" y="640"/>
      <point x="471" y="585"/>
      <point x="472" y="515" type="curve"/>
    </contour>
    <contour>
      <point x="428" y="390" type="line"/>
      <point x="438" y="455" type="line"/>
      <point x="47" y="455" type="line"/>
      <point x="32" y="390" type="line"/>
    </contour>
    <contour>
      <point x="408" y="235" type="line"/>
      <point x="418" y="300" type="line"/>
      <point x="47" y="300" type="line"/>
      <point x="32" y="235" type="line"/>
    </contour>
  </outline>
</glyph>
<glyph name="afii61352" format="1">
  <advance width="1082"/>
  <unicode hex="2116"/>
  <outline>
    <contour>
      <point x="983" y="462" type="curve" smooth="yes"/>
      <point x="985" y="497"/>
      <point x="985" y="527"/>
      <point x="983" y="554" type="curve" smooth="yes"/>
      <point x="978" y="628"/>
      <point x="920" y="675"/>
      <point x="841" y="675" type="curve" smooth="yes"/>
      <point x="762" y="675"/>
      <point x="704" y="628"/>
      <point x="699" y="554" type="curve" smooth="yes"/>
      <point x="697" y="527"/>
      <point x="697" y="497"/>
      <point x="699" y="462" type="curve" smooth="yes"/>
      <point x="703" y="385"/>
      <point x="754" y="340"/>
      <point x="841" y="340" type="curve" smooth="yes"/>
      <point x="928" y="340"/>
      <point x="979" y="385"/>
    </contour>
    <contour>
      <point x="841" y="395" type="curve" smooth="yes"/>
      <point x="798" y="395"/>
      <point x="772" y="418"/>
      <point x="770" y="463" type="curve" smooth="yes"/>
      <point x="768" y="497"/>
      <point x="768" y="522"/>
      <point x="770" y="553" type="curve" smooth="yes"/>
      <point x="773" y="595"/>
      <point x="799" y="620"/>
      <point x="841" y="620" type="curve" smooth="yes"/>
      <point x="883" y="620"/>
      <point x="909" y="595"/>
      <point x="912" y="553" type="curve" smooth="yes"/>
      <point x="914" y="522"/>
      <point x="914" y="497"/>
      <point x="912" y="463" type="curve" smooth="yes"/>
      <point x="910" y="418"/>
      <point x="884" y="395"/>
    </contour>
    <contour>
      <point x="706" y="175" type="line"/>
      <point x="977" y="175" type="line"/>
      <point x="977" y="240" type="line"/>
      <point x="706" y="240" type="line"/>
    </contour>
    <contour>
      <point x="706" y="0" type="line"/>
      <point x="977" y="0" type="line"/>
      <point x="977" y="65" type="line"/>
      <point x="706" y="65" type="line"/>
    </contour>
    <component base="N" xOffset="2"/>
  </outline>
</glyph>
<glyph name="trademark" format="1">
  <advance width="737"/>
  <unicode hex="2122"/>
  <outline>
    <contour>
      <point x="115" y="340" type="line"/>
      <point x="185" y="340" type="line"/>
      <point x="185" y="645" type="line"/>
      <point x="298" y="645" type="line"/>
      <point x="298" y="700" type="line"/>
      <point x="2" y="700" type="line"/>
      <point x="2" y="645" type="line"/>
      <point x="115" y="645" type="line"/>
    </contour>
    <contour>
      <point x="650" y="700" type="line"/>
      <point x="523" y="505" type="line"/>
      <point x="406" y="700" type="line"/>
      <point x="345" y="700" type="line"/>
      <point x="345" y="340" type="line"/>
      <point x="410" y="340" type="line"/>
      <point x="410" y="595" type="line"/>
      <point x="514" y="424" type="line"/>
      <point x="527" y="424" type="line"/>
      <point x="640" y="597" type="line"/>
      <point x="640" y="340" type="line"/>
      <point x="710" y="340" type="line"/>
      <point x="710" y="700" type="line"/>
    </contour>
  </outline>
</glyph>
<glyph name="arrowleft" format="1">
  <advance width="730"/>
  <unicode hex="2190"/>
  <outline>
    <contour>
      <point x="351" y="489" type="line"/>
      <point x="302" y="543" type="line"/>
      <point x="5" y="269" type="line"/>
      <point x="5" y="263" type="line"/>
      <point x="302" y="-9" type="line"/>
      <point x="354" y="46" type="line"/>
      <point x="174" y="205" type="line"/>
      <point x="134" y="231" type="line"/>
      <point x="710" y="230" type="line"/>
      <point x="710" y="305" type="line"/>
      <point x="135" y="304" type="line"/>
      <point x="176" y="331" type="line"/>
    </contour>
  </outline>
</glyph>
<glyph name="arrowup" format="1">
  <advance width="730"/>
  <unicode hex="2191"/>
  <outline>
    <contour>
      <point x="578" y="328" type="line"/>
      <point x="634" y="378" type="line"/>
      <point x="374" y="664" type="line"/>
      <point x="363" y="664" type="line"/>
      <point x="95" y="378" type="line"/>
      <point x="145" y="328" type="line"/>
      <point x="300" y="499" type="line"/>
      <point x="328" y="548" type="line"/>
      <point x="325" y="-36" type="line"/>
      <point x="405" y="-36" type="line"/>
      <point x="402" y="548" type="line"/>
      <point x="431" y="497" type="line"/>
    </contour>
  </outline>
</glyph>
<glyph name="arrowdown" format="1">
  <advance width="730"/>
  <unicode hex="2193"/>
  <outline>
    <contour>
      <point x="151" y="300" type="line"/>
      <point x="95" y="250" type="line"/>
      <point x="355" y="-36" type="line"/>
      <point x="366" y="-36" type="line"/>
      <point x="634" y="250" type="line"/>
      <point x="584" y="300" type="line"/>
      <point x="429" y="129" type="line"/>
      <point x="401" y="80" type="line"/>
      <point x="404" y="664" type="line"/>
      <point x="324" y="664" type="line"/>
      <point x="327" y="80" type="line"/>
      <point x="298" y="131" type="line"/>
    </contour>
  </outline>
</glyph>
<glyph name="arrowupleft" format="1">
  <advance width="730"/>
  <unicode hex="2196"/>
  <outline>
    <contour>
      <point x="185" y="162" type="line"/>
      <point x="117" y="162" type="line"/>
      <point x="117" y="557" type="line"/>
      <point x="125" y="565" type="line"/>
      <point x="492" y="565" type="line"/>
      <point x="491" y="503" type="line"/>
      <point x="217" y="503" type="line"/>
      <point x="253" y="476" type="line"/>
      <point x="625" y="74" type="line"/>
      <point x="574" y="25" type="line"/>
      <point x="213" y="418" type="line"/>
      <point x="185" y="460" type="line"/>
    </contour>
  </outline>
</glyph>
<glyph name="arrowdownright" format="1">
  <advance width="730"/>
  <unicode hex="2198"/>
  <outline>
    <contour>
      <point x="545" y="458" type="line"/>
      <point x="545" y="160" type="line"/>
      <point x="517" y="202" type="line"/>
      <point x="156" y="595" type="line"/>
      <point x="105" y="546" type="line"/>
      <point x="477" y="144" type="line"/>
      <point x="513" y="117" type="line"/>
      <point x="239" y="117" type="line"/>
      <point x="238" y="55" type="line"/>
      <point x="605" y="55" type="line"/>
      <point x="613" y="63" type="line"/>
      <point x="613" y="458" type="line"/>
    </contour>
  </outline>
</glyph>
<glyph name="arrowdownleft" format="1">
  <advance width="730"/>
  <unicode hex="2199"/>
  <outline>
    <contour>
      <point x="185" y="458" type="line"/>
      <point x="117" y="458" type="line"/>
      <point x="117" y="63" type="line"/>
      <point x="125" y="55" type="line"/>
      <point x="492" y="55" type="line"/>
      <point x="491" y="117" type="line"/>
      <point x="217" y="117" type="line"/>
      <point x="253" y="144" type="line"/>
      <point x="625" y="546" type="line"/>
      <point x="574" y="595" type="line"/>
      <point x="213" y="202" type="line"/>
      <point x="185" y="160" type="line"/>
    </contour>
  </outline>
</glyph>
<glyph name="partialdiff" format="1">
  <advance width="544"/>
  <unicode hex="2202"/>
  <outline>
    <contour>
      <point x="102" y="631" type="line"/>
      <point x="143" y="641"/>
      <point x="180" y="643"/>
      <point x="213" y="643" type="curve" smooth="yes"/>
      <point x="351" y="643"/>
      <point x="414" y="510"/>
      <point x="411" y="356" type="curve"/>
      <point x="380" y="404"/>
      <point x="327" y="430"/>
      <point x="260" y="430" type="curve" smooth="yes"/>
      <point x="151" y="430"/>
      <point x="52" y="346"/>
      <point x="52" y="213" type="curve" smooth="yes"/>
      <point x="52" y="70"/>
      <point x="142" y="-15"/>
      <point x="267" y="-15" type="curve" smooth="yes"/>
      <point x="392" y="-15"/>
      <point x="497" y="79"/>
      <point x="497" y="317" type="curve" smooth="yes"/>
      <point x="497" y="509"/>
      <point x="433" y="715"/>
      <point x="221" y="715" type="curve" smooth="yes"/>
      <point x="180" y="715"/>
      <point x="136" y="709"/>
      <point x="88" y="696" type="curve"/>
    </contour>
    <contour>
      <point x="409" y="256" type="curve"/>
      <point x="409" y="123"/>
      <point x="348" y="54"/>
      <point x="267" y="54" type="curve" smooth="yes"/>
      <point x="201" y="54"/>
      <point x="142" y="104"/>
      <point x="142" y="209" type="curve" smooth="yes"/>
      <point x="142" y="311"/>
      <point x="198" y="361"/>
      <point x="270" y="361" type="curve" smooth="yes"/>
      <point x="332" y="361"/>
      <point x="391" y="325"/>
    </contour>
  </outline>
</glyph>
<glyph name="summation" format="1">
  <advance width="522"/>
  <unicode hex="2211"/>
  <outline>
    <contour>
      <point x="40" y="0" type="line"/>
      <point x="487" y="0" type="line"/>
      <point x="487" y="75" type="line"/>
      <point x="135" y="75" type="line"/>
      <point x="365" y="354" type="line"/>
      <point x="151" y="625" type="line"/>
      <point x="466" y="625" type="line"/>
      <point x="466" y="700" type="line"/>
      <point x="50" y="700" type="line"/>
      <point x="40" y="632" type="line"/>
      <point x="265" y="349" type="line"/>
      <point x="30" y="61" type="line"/>
    </contour>
  </outline>
</glyph>
<glyph name="radical" format="1">
  <advance width="573"/>
  <unicode hex="221A"/>
  <outline>
    <contour>
      <point x="32" y="425" type="line"/>
      <point x="99" y="425" type="line"/>
      <point x="248" y="0" type="line"/>
      <point x="328" y="0" type="line"/>
      <point x="641" y="750" type="line"/>
      <point x="566" y="750" type="line"/>
      <point x="300" y="96" type="line"/>
      <point x="175" y="485" type="line"/>
      <point x="32" y="485" type="line"/>
    </contour>
  </outline>
</glyph>
<glyph name="integral" format="1">
  <advance width="355"/>
  <unicode hex="222B"/>
  <outline>
    <contour>
      <point x="220" y="557" type="line"/>
      <point x="220" y="650"/>
      <point x="246" y="680"/>
      <point x="299" y="680" type="curve" smooth="yes"/>
      <point x="338" y="680"/>
      <point x="372" y="656"/>
      <point x="372" y="656" type="curve"/>
      <point x="393" y="715" type="line"/>
      <point x="375" y="731"/>
      <point x="334" y="750"/>
      <point x="288" y="750" type="curve" smooth="yes"/>
      <point x="202" y="750"/>
      <point x="135" y="692"/>
      <point x="135" y="562" type="curve" smooth="yes"/>
      <point x="135" y="-57" type="line" smooth="yes"/>
      <point x="135" y="-150"/>
      <point x="109" y="-180"/>
      <point x="56" y="-180" type="curve" smooth="yes"/>
      <point x="17" y="-180"/>
      <point x="-17" y="-156"/>
      <point x="-17" y="-156" type="curve"/>
      <point x="-38" y="-215" type="line"/>
      <point x="-20" y="-231"/>
      <point x="21" y="-250"/>
      <point x="67" y="-250" type="curve" smooth="yes"/>
      <point x="153" y="-250"/>
      <point x="220" y="-192"/>
      <point x="220" y="-62" type="curve" smooth="yes"/>
    </contour>
  </outline>
</glyph>
<glyph name="approxequal" format="1">
  <advance width="545"/>
  <unicode hex="2248"/>
  <outline>
    <contour>
      <point x="364" y="125" type="curve" smooth="yes"/>
      <point x="430" y="125"/>
      <point x="458" y="177"/>
      <point x="452" y="243" type="curve"/>
      <point x="394" y="243" type="line"/>
      <point x="394" y="215"/>
      <point x="386" y="195"/>
      <point x="361" y="195" type="curve" smooth="yes"/>
      <point x="306" y="195"/>
      <point x="249" y="239"/>
      <point x="187" y="239" type="curve" smooth="yes"/>
      <point x="125" y="239"/>
      <point x="88" y="187"/>
      <point x="93" y="126" type="curve"/>
      <point x="154" y="126" type="line"/>
      <point x="154" y="150"/>
      <point x="164" y="169"/>
      <point x="190" y="169" type="curve" smooth="yes"/>
      <point x="231" y="169"/>
      <point x="309" y="125"/>
    </contour>
    <contour>
      <point x="364" y="305" type="curve" smooth="yes"/>
      <point x="430" y="305"/>
      <point x="458" y="357"/>
      <point x="452" y="423" type="curve"/>
      <point x="394" y="423" type="line"/>
      <point x="394" y="395"/>
      <point x="386" y="375"/>
      <point x="361" y="375" type="curve" smooth="yes"/>
      <point x="306" y="375"/>
      <point x="249" y="419"/>
      <point x="187" y="419" type="curve" smooth="yes"/>
      <point x="125" y="419"/>
      <point x="88" y="367"/>
      <point x="93" y="306" type="curve"/>
      <point x="154" y="306" type="line"/>
      <point x="154" y="330"/>
      <point x="164" y="349"/>
      <point x="190" y="349" type="curve" smooth="yes"/>
      <point x="231" y="349"/>
      <point x="309" y="305"/>
    </contour>
  </outline>
</glyph>
<glyph name="notequal" format="1">
  <advance width="549"/>
  <unicode hex="2260"/>
  <outline>
    <contour>
      <point x="108" y="-15" type="line"/>
      <point x="182" y="-15" type="line"/>
      <point x="430" y="520" type="line"/>
      <point x="357" y="520" type="line"/>
    </contour>
    <component base="equal"/>
  </outline>
</glyph>
<glyph name="greaterequal" format="1">
  <advance width="503"/>
  <unicode hex="2265"/>
  <outline>
    <contour>
      <point x="451" y="65" type="line"/>
      <point x="63" y="65" type="line"/>
      <point x="63" y="0" type="line"/>
      <point x="451" y="0" type="line"/>
    </contour>
    <component base="greater" xOffset="-10" yOffset="113"/>
  </outline>
</glyph>
<glyph name="uni2461" format="1">
  <advance width="779"/>
  <unicode hex="2461"/>
  <outline>
    <contour>
      <point x="52" y="330" type="curve" smooth="yes"/>
      <point x="52" y="146"/>
      <point x="201" y="-15"/>
      <point x="390" y="-15" type="curve" smooth="yes"/>
      <point x="578" y="-15"/>
      <point x="727" y="146"/>
      <point x="727" y="330" type="curve" smooth="yes"/>
      <point x="727" y="514"/>
      <point x="578" y="675"/>
      <point x="390" y="675" type="curve" smooth="yes"/>
      <point x="201" y="675"/>
      <point x="52" y="514"/>
    </contour>
    <contour>
      <point x="251" y="194" type="line"/>
      <point x="286" y="223"/>
      <point x="325" y="252"/>
      <point x="371" y="294" type="curve" smooth="yes"/>
      <point x="414" y="333"/>
      <point x="446" y="371"/>
      <point x="446" y="425" type="curve" smooth="yes"/>
      <point x="446" y="471"/>
      <point x="422" y="495"/>
      <point x="385" y="495" type="curve" smooth="yes"/>
      <point x="341" y="495"/>
      <point x="311" y="466"/>
      <point x="312" y="415" type="curve"/>
      <point x="252" y="410" type="line"/>
      <point x="244" y="486"/>
      <point x="296" y="550"/>
      <point x="385" y="550" type="curve" smooth="yes"/>
      <point x="465" y="550"/>
      <point x="516" y="501"/>
      <point x="516" y="426" type="curve" smooth="yes"/>
      <point x="516" y="361"/>
      <point x="476" y="310"/>
      <point x="421" y="266" type="curve" smooth="yes"/>
      <point x="376" y="230"/>
      <point x="333" y="200"/>
      <point x="333" y="200" type="curve"/>
      <point x="536" y="200" type="line"/>
      <point x="536" y="145" type="line"/>
      <point x="256" y="145" type="line"/>
    </contour>
  </outline>
</glyph>
<glyph name="uni2462" format="1">
  <advance width="779"/>
  <unicode hex="2462"/>
  <outline>
    <contour>
      <point x="52" y="330" type="curve" smooth="yes"/>
      <point x="52" y="147"/>
      <point x="201" y="-15"/>
      <point x="390" y="-15" type="curve" smooth="yes"/>
      <point x="578" y="-15"/>
      <point x="727" y="147"/>
      <point x="727" y="330" type="curve" smooth="yes"/>
      <point x="727" y="513"/>
      <point x="578" y="675"/>
      <point x="390" y="675" type="curve" smooth="yes"/>
      <point x="201" y="675"/>
      <point x="52" y="513"/>
    </contour>
    <contour>
      <point x="463" y="264" type="curve" smooth="yes"/>
      <point x="463" y="313"/>
      <point x="427" y="335"/>
      <point x="389" y="335" type="curve" smooth="yes"/>
      <point x="378" y="335"/>
      <point x="366" y="334"/>
      <point x="356" y="330" type="curve"/>
      <point x="344" y="364" type="line"/>
      <point x="446" y="485" type="line"/>
      <point x="263" y="485" type="line"/>
      <point x="263" y="540" type="line"/>
      <point x="520" y="540" type="line"/>
      <point x="525" y="493" type="line"/>
      <point x="416" y="373" type="line"/>
      <point x="469" y="376"/>
      <point x="533" y="345"/>
      <point x="533" y="266" type="curve" smooth="yes"/>
      <point x="533" y="182"/>
      <point x="471" y="135"/>
      <point x="393" y="135" type="curve" smooth="yes"/>
      <point x="306" y="135"/>
      <point x="253" y="189"/>
      <point x="254" y="255" type="curve"/>
      <point x="314" y="260" type="line"/>
      <point x="316" y="216"/>
      <point x="347" y="190"/>
      <point x="393" y="190" type="curve" smooth="yes"/>
      <point x="436" y="190"/>
      <point x="463" y="218"/>
    </contour>
  </outline>
</glyph>
<glyph name="uni2463" format="1">
  <advance width="779"/>
  <unicode hex="2463"/>
  <outline>
    <contour>
      <point x="52" y="330" type="curve" smooth="yes"/>
      <point x="52" y="146"/>
      <point x="201" y="-15"/>
      <point x="390" y="-15" type="curve" smooth="yes"/>
      <point x="578" y="-15"/>
      <point x="727" y="146"/>
      <point x="727" y="330" type="curve" smooth="yes"/>
      <point x="727" y="514"/>
      <point x="578" y="675"/>
      <point x="390" y="675" type="curve" smooth="yes"/>
      <point x="201" y="675"/>
      <point x="52" y="514"/>
    </contour>
    <contour>
      <point x="220" y="238" type="line"/>
      <point x="210" y="279" type="line"/>
      <point x="393" y="545" type="line"/>
      <point x="466" y="540" type="line"/>
      <point x="466" y="293" type="line"/>
      <point x="535" y="293" type="line"/>
      <point x="535" y="238" type="line"/>
      <point x="466" y="238" type="line"/>
      <point x="466" y="145" type="line"/>
      <point x="401" y="145" type="line"/>
      <point x="401" y="238" type="line"/>
    </contour>
    <contour>
      <point x="401" y="293" type="line"/>
      <point x="401" y="473" type="line"/>
      <point x="280" y="293" type="line"/>
    </contour>
  </outline>
</glyph>
<glyph name="uni2465" format="1">
  <advance width="779"/>
  <unicode hex="2465"/>
  <outline>
    <contour>
      <point x="52" y="330" type="curve" smooth="yes"/>
      <point x="52" y="146"/>
      <point x="201" y="-15"/>
      <point x="390" y="-15" type="curve" smooth="yes"/>
      <point x="578" y="-15"/>
      <point x="727" y="146"/>
      <point x="727" y="330" type="curve" smooth="yes"/>
      <point x="727" y="514"/>
      <point x="578" y="675"/>
      <point x="390" y="675" type="curve" smooth="yes"/>
      <point x="201" y="675"/>
      <point x="52" y="514"/>
    </contour>
    <contour>
      <point x="253" y="425" type="curve" smooth="yes"/>
      <point x="262" y="503"/>
      <point x="319" y="550"/>
      <point x="392" y="550" type="curve" smooth="yes"/>
      <point x="453" y="550"/>
      <point x="515" y="519"/>
      <point x="513" y="441" type="curve"/>
      <point x="453" y="436" type="line"/>
      <point x="453" y="471"/>
      <point x="432" y="495"/>
      <point x="392" y="495" type="curve" smooth="yes"/>
      <point x="349" y="495"/>
      <point x="324" y="467"/>
      <point x="318" y="425" type="curve" smooth="yes"/>
      <point x="314" y="398"/>
      <point x="315" y="369"/>
      <point x="315" y="340" type="curve"/>
      <point x="315" y="340"/>
      <point x="345" y="393"/>
      <point x="415" y="393" type="curve" smooth="yes"/>
      <point x="477" y="393"/>
      <point x="533" y="352"/>
      <point x="533" y="272" type="curve" smooth="yes"/>
      <point x="533" y="190"/>
      <point x="476" y="135"/>
      <point x="396" y="135" type="curve" smooth="yes"/>
      <point x="323" y="135"/>
      <point x="262" y="185"/>
      <point x="253" y="268" type="curve" smooth="yes"/>
      <point x="248" y="313"/>
      <point x="247" y="376"/>
    </contour>
    <contour>
      <point x="317" y="269" type="curve" smooth="yes"/>
      <point x="317" y="228"/>
      <point x="348" y="190"/>
      <point x="396" y="190" type="curve" smooth="yes"/>
      <point x="438" y="190"/>
      <point x="468" y="219"/>
      <point x="468" y="267" type="curve" smooth="yes"/>
      <point x="468" y="315"/>
      <point x="441" y="343"/>
      <point x="400" y="343" type="curve" smooth="yes"/>
      <point x="356" y="343"/>
      <point x="317" y="309"/>
    </contour>
  </outline>
</glyph>
<glyph name="uni2467" format="1">
  <advance width="779"/>
  <unicode hex="2467"/>
  <outline>
    <contour>
      <point x="390" y="-15" type="curve"/>
      <point x="578" y="-15"/>
      <point x="727" y="147"/>
      <point x="727" y="330" type="curve" smooth="yes"/>
      <point x="727" y="513"/>
      <point x="578" y="675"/>
      <point x="390" y="675" type="curve" smooth="yes"/>
      <point x="201" y="675"/>
      <point x="52" y="513"/>
      <point x="52" y="330" type="curve" smooth="yes"/>
      <point x="52" y="147"/>
      <point x="201" y="-15"/>
    </contour>
    <contour>
      <point x="391" y="135" type="curve"/>
      <point x="300" y="135"/>
      <point x="251" y="194"/>
      <point x="251" y="256" type="curve" smooth="yes"/>
      <point x="251" y="301"/>
      <point x="280" y="336"/>
      <point x="330" y="350" type="curve"/>
      <point x="286" y="366"/>
      <point x="259" y="402"/>
      <point x="259" y="443" type="curve" smooth="yes"/>
      <point x="259" y="494"/>
      <point x="304" y="550"/>
      <point x="391" y="550" type="curve" smooth="yes"/>
      <point x="478" y="550"/>
      <point x="523" y="494"/>
      <point x="523" y="443" type="curve" smooth="yes"/>
      <point x="523" y="402"/>
      <point x="496" y="366"/>
      <point x="452" y="350" type="curve"/>
      <point x="502" y="336"/>
      <point x="531" y="301"/>
      <point x="531" y="256" type="curve" smooth="yes"/>
      <point x="531" y="194"/>
      <point x="482" y="135"/>
    </contour>
    <contour>
      <point x="391" y="375" type="curve"/>
      <point x="432" y="375"/>
      <point x="453" y="400"/>
      <point x="453" y="433" type="curve" smooth="yes"/>
      <point x="453" y="465"/>
      <point x="432" y="495"/>
      <point x="391" y="495" type="curve" smooth="yes"/>
      <point x="350" y="495"/>
      <point x="329" y="465"/>
      <point x="329" y="433" type="curve" smooth="yes"/>
      <point x="329" y="400"/>
      <point x="350" y="375"/>
    </contour>
    <contour>
      <point x="391" y="190" type="curve"/>
      <point x="438" y="190"/>
      <point x="461" y="220"/>
      <point x="461" y="256" type="curve" smooth="yes"/>
      <point x="461" y="292"/>
      <point x="438" y="320"/>
      <point x="391" y="320" type="curve" smooth="yes"/>
      <point x="344" y="320"/>
      <point x="321" y="292"/>
      <point x="321" y="256" type="curve" smooth="yes"/>
      <point x="321" y="220"/>
      <point x="344" y="190"/>
    </contour>
  </outline>
</glyph>
<glyph name="uni2468" format="1">
  <advance width="779"/>
  <unicode hex="2468"/>
  <outline>
    <contour>
      <point x="390" y="-15" type="curve" smooth="yes"/>
      <point x="577" y="-15"/>
      <point x="727" y="146"/>
      <point x="727" y="330" type="curve" smooth="yes"/>
      <point x="727" y="514"/>
      <point x="577" y="675"/>
      <point x="390" y="675" type="curve" smooth="yes"/>
      <point x="201" y="675"/>
      <point x="52" y="514"/>
      <point x="52" y="330" type="curve" smooth="yes"/>
      <point x="52" y="146"/>
      <point x="201" y="-15"/>
    </contour>
    <contour>
      <point x="388" y="335" type="curve" smooth="yes"/>
      <point x="432" y="335"/>
      <point x="466" y="371"/>
      <point x="466" y="411" type="curve" smooth="yes"/>
      <point x="466" y="452"/>
      <point x="438" y="495"/>
      <point x="390" y="495" type="curve" smooth="yes"/>
      <point x="348" y="495"/>
      <point x="318" y="464"/>
      <point x="318" y="416" type="curve" smooth="yes"/>
      <point x="318" y="368"/>
      <point x="347" y="335"/>
    </contour>
    <contour>
      <point x="392" y="135" type="curve" smooth="yes"/>
      <point x="313" y="135"/>
      <point x="257" y="183"/>
      <point x="257" y="249" type="curve"/>
      <point x="317" y="254" type="line"/>
      <point x="317" y="214"/>
      <point x="351" y="190"/>
      <point x="392" y="190" type="curve" smooth="yes"/>
      <point x="434" y="190"/>
      <point x="460" y="218"/>
      <point x="465" y="260" type="curve" smooth="yes"/>
      <point x="468" y="287"/>
      <point x="468" y="314"/>
      <point x="468" y="340" type="curve"/>
      <point x="468" y="340"/>
      <point x="448" y="285"/>
      <point x="373" y="285" type="curve" smooth="yes"/>
      <point x="311" y="285"/>
      <point x="253" y="331"/>
      <point x="253" y="411" type="curve" smooth="yes"/>
      <point x="253" y="489"/>
      <point x="310" y="550"/>
      <point x="390" y="550" type="curve" smooth="yes"/>
      <point x="464" y="550"/>
      <point x="522" y="500"/>
      <point x="530" y="417" type="curve" smooth="yes"/>
      <point x="534" y="372"/>
      <point x="536" y="309"/>
      <point x="530" y="260" type="curve" smooth="yes"/>
      <point x="521" y="181"/>
      <point x="470" y="135"/>
    </contour>
  </outline>
</glyph>
<glyph name="uni24EA" format="1">
  <advance width="779"/>
  <unicode hex="24EA"/>
  <outline>
    <contour>
      <point x="52" y="330" type="curve" smooth="yes"/>
      <point x="52" y="145"/>
      <point x="201" y="-15"/>
      <point x="390" y="-15" type="curve" smooth="yes"/>
      <point x="578" y="-15"/>
      <point x="727" y="145"/>
      <point x="727" y="330" type="curve" smooth="yes"/>
      <point x="727" y="515"/>
      <point x="578" y="675"/>
      <point x="390" y="675" type="curve" smooth="yes"/>
      <point x="201" y="675"/>
      <point x="52" y="515"/>
    </contour>
    <contour>
      <point x="535" y="280" type="curve" smooth="yes"/>
      <point x="533" y="192"/>
      <point x="471" y="135"/>
      <point x="388" y="135" type="curve" smooth="yes"/>
      <point x="304" y="135"/>
      <point x="245" y="192"/>
      <point x="244" y="280" type="curve" smooth="yes"/>
      <point x="243" y="330"/>
      <point x="243" y="366"/>
      <point x="244" y="407" type="curve" smooth="yes"/>
      <point x="245" y="494"/>
      <point x="306" y="550"/>
      <point x="390" y="550" type="curve" smooth="yes"/>
      <point x="473" y="550"/>
      <point x="533" y="494"/>
      <point x="535" y="407" type="curve" smooth="yes"/>
      <point x="536" y="366"/>
      <point x="536" y="330"/>
    </contour>
    <contour>
      <point x="465" y="407" type="curve" smooth="yes"/>
      <point x="463" y="462"/>
      <point x="436" y="495"/>
      <point x="390" y="495" type="curve" smooth="yes"/>
      <point x="344" y="495"/>
      <point x="315" y="462"/>
      <point x="314" y="407" type="curve" smooth="yes"/>
      <point x="313" y="366"/>
      <point x="313" y="321"/>
      <point x="314" y="280" type="curve" smooth="yes"/>
      <point x="315" y="222"/>
      <point x="348" y="190"/>
      <point x="390" y="190" type="curve" smooth="yes"/>
      <point x="432" y="190"/>
      <point x="463" y="222"/>
      <point x="465" y="280" type="curve" smooth="yes"/>
      <point x="466" y="321"/>
      <point x="466" y="366"/>
    </contour>
  </outline>
</glyph>
<glyph name="lozenge" format="1">
  <advance width="581"/>
  <unicode hex="25CA"/>
  <outline>
    <contour>
      <point x="321" y="0" type="line"/>
      <point x="529" y="325" type="line"/>
      <point x="321" y="660" type="line"/>
      <point x="261" y="660" type="line"/>
      <point x="52" y="325" type="line"/>
      <point x="261" y="0" type="line"/>
    </contour>
    <contour>
      <point x="142" y="325" type="line"/>
      <point x="291" y="578" type="line"/>
      <point x="439" y="325" type="line"/>
      <point x="291" y="74" type="line"/>
    </contour>
  </outline>
</glyph>
<glyph name="uni261C" format="1">
  <advance width="1347"/>
  <unicode hex="261C"/>
  <outline>
    <contour>
      <point x="80" y="519" type="curve" smooth="yes"/>
      <point x="11" y="513"/>
      <point x="8" y="404"/>
      <point x="80" y="395" type="curve" smooth="yes"/>
      <point x="125" y="389"/>
      <point x="398" y="380"/>
      <point x="398" y="380" type="curve"/>
      <point x="356" y="365"/>
      <point x="342" y="273"/>
      <point x="412" y="227" type="curve"/>
      <point x="398" y="175"/>
      <point x="420" y="110"/>
      <point x="494" y="94" type="curve"/>
      <point x="487" y="-54"/>
      <point x="672" y="-15"/>
      <point x="816" y="-1" type="curve"/>
      <point x="816" y="-1"/>
      <point x="981" y="-33"/>
      <point x="1043" y="52" type="curve"/>
      <point x="1282" y="46" type="line"/>
      <point x="1304" y="46"/>
      <point x="1295" y="477"/>
      <point x="1272" y="477" type="curve"/>
      <point x="1272" y="477"/>
      <point x="1102" y="471"/>
      <point x="1072" y="471" type="curve" smooth="yes"/>
      <point x="999" y="471"/>
      <point x="857" y="611"/>
      <point x="710" y="611" type="curve" smooth="yes"/>
      <point x="635" y="611"/>
      <point x="577" y="573"/>
      <point x="510" y="536" type="curve"/>
      <point x="510" y="536"/>
      <point x="325" y="536"/>
    </contour>
    <contour>
      <point x="1249" y="242" type="curve" smooth="yes"/>
      <point x="1240" y="66"/>
      <point x="1114" y="97"/>
      <point x="1076" y="172" type="curve" smooth="yes"/>
      <point x="1045" y="233"/>
      <point x="1021" y="285"/>
      <point x="1021" y="285" type="curve"/>
      <point x="1050" y="319"/>
      <point x="1057" y="397"/>
      <point x="1024" y="446" type="curve"/>
      <point x="1024" y="446"/>
      <point x="1051" y="436"/>
      <point x="1075" y="436" type="curve"/>
      <point x="1135" y="438"/>
      <point x="1226" y="441"/>
      <point x="1238" y="441" type="curve" smooth="yes"/>
      <point x="1252" y="441"/>
      <point x="1250" y="262"/>
    </contour>
    <contour>
      <point x="705" y="455" type="curve"/>
      <point x="597" y="455"/>
      <point x="552" y="386"/>
      <point x="452" y="386" type="curve" smooth="yes"/>
      <point x="409" y="386"/>
      <point x="379" y="432"/>
      <point x="385" y="433" type="curve"/>
      <point x="385" y="433"/>
      <point x="463" y="477"/>
      <point x="524" y="505" type="curve"/>
      <point x="629" y="565"/>
      <point x="651" y="577"/>
      <point x="716" y="577" type="curve" smooth="yes"/>
      <point x="780" y="577"/>
      <point x="855" y="546"/>
      <point x="953" y="480" type="curve" smooth="yes"/>
      <point x="1016" y="438"/>
      <point x="1031" y="298"/>
      <point x="944" y="291" type="curve"/>
      <point x="944" y="291"/>
      <point x="940" y="264"/>
      <point x="943" y="264" type="curve"/>
      <point x="975" y="259"/>
      <point x="1029" y="236"/>
      <point x="1029" y="147" type="curve" smooth="yes"/>
      <point x="1029" y="77"/>
      <point x="978" y="34"/>
      <point x="926" y="34" type="curve" smooth="yes"/>
      <point x="836" y="34"/>
      <point x="809" y="224"/>
      <point x="884" y="268" type="curve"/>
      <point x="888" y="295" type="line"/>
      <point x="765" y="330"/>
      <point x="816" y="455"/>
    </contour>
    <contour>
      <point x="590" y="21" type="curve" smooth="yes"/>
      <point x="527" y="14"/>
      <point x="518" y="93"/>
      <point x="547" y="97" type="curve" smooth="yes"/>
      <point x="547" y="97"/>
      <point x="704" y="119"/>
      <point x="743" y="127" type="curve" smooth="yes"/>
      <point x="779" y="135"/>
      <point x="797" y="70"/>
      <point x="762" y="59" type="curve" smooth="yes"/>
      <point x="724" y="48"/>
      <point x="616" y="24"/>
    </contour>
    <contour>
      <point x="497" y="135" type="curve" smooth="yes"/>
      <point x="445" y="135"/>
      <point x="426" y="212"/>
      <point x="476" y="220" type="curve" smooth="yes"/>
      <point x="527" y="228"/>
      <point x="701" y="250"/>
      <point x="731" y="250" type="curve" smooth="yes"/>
      <point x="767" y="250"/>
      <point x="774" y="181"/>
      <point x="738" y="173" type="curve" smooth="yes"/>
      <point x="683" y="161"/>
      <point x="572" y="135"/>
    </contour>
    <contour>
      <point x="444" y="258" type="curve" smooth="yes"/>
      <point x="403" y="259"/>
      <point x="384" y="337"/>
      <point x="430" y="350" type="curve" smooth="yes"/>
      <point x="454" y="357"/>
      <point x="647" y="372"/>
      <point x="700" y="372" type="curve" smooth="yes"/>
      <point x="749" y="372"/>
      <point x="760" y="302"/>
      <point x="719" y="291" type="curve" smooth="yes"/>
      <point x="698" y="286"/>
      <point x="466" y="257"/>
    </contour>
    <contour>
      <point x="92" y="427" type="curve" smooth="yes"/>
      <point x="53" y="430"/>
      <point x="57" y="487"/>
      <point x="93" y="489" type="curve" smooth="yes"/>
      <point x="199" y="495"/>
      <point x="450" y="505"/>
      <point x="450" y="505" type="curve"/>
      <point x="335" y="444"/>
      <point x="311" y="421"/>
      <point x="212" y="421" type="curve" smooth="yes"/>
      <point x="182" y="421"/>
      <point x="140" y="423"/>
    </contour>
  </outline>
</glyph>
<glyph name="st" format="1">
  <advance width="799"/>
  <unicode hex="FB06"/>
  <outline>
    <contour>
      <point x="689" y="-15" type="curve"/>
      <point x="714" y="-15"/>
      <point x="757" y="-11"/>
      <point x="784" y="0" type="curve"/>
      <point x="780" y="60" type="line"/>
      <point x="780" y="60"/>
      <point x="750" y="55"/>
      <point x="718" y="55" type="curve" smooth="yes"/>
      <point x="675" y="55"/>
      <point x="635" y="65"/>
      <point x="635" y="138" type="curve"/>
      <point x="635" y="425" type="line"/>
      <point x="769" y="425" type="line"/>
      <point x="769" y="485" type="line"/>
      <point x="635" y="485" type="line"/>
      <point x="635" y="544" type="line" smooth="yes"/>
      <point x="634" y="692"/>
      <point x="550" y="750"/>
      <point x="443" y="750" type="curve" smooth="yes"/>
      <point x="331" y="750"/>
      <point x="267" y="666"/>
      <point x="267" y="579" type="curve" smooth="yes"/>
      <point x="267" y="563"/>
      <point x="269" y="547"/>
      <point x="273" y="531" type="curve"/>
      <point x="287" y="530"/>
      <point x="321" y="524"/>
      <point x="339" y="512" type="curve"/>
      <point x="333" y="530"/>
      <point x="329" y="550"/>
      <point x="329" y="569" type="curve" smooth="yes"/>
      <point x="329" y="627"/>
      <point x="362" y="680"/>
      <point x="443" y="680" type="curve" smooth="yes"/>
      <point x="510" y="680"/>
      <point x="550" y="643"/>
      <point x="550" y="548" type="curve" smooth="yes"/>
      <point x="550" y="485" type="line"/>
      <point x="480" y="485" type="line"/>
      <point x="480" y="425" type="line"/>
      <point x="550" y="425" type="line"/>
      <point x="550" y="134" type="line" smooth="yes"/>
      <point x="550" y="24"/>
      <point x="618" y="-15"/>
    </contour>
    <component base="s"/>
  </outline>
</glyph>
<glyph name="F_J" format="1">
  <advance width="857"/>
  <outline>
    <contour>
      <point x="95" y="0" type="line"/>
      <point x="185" y="0" type="line"/>
      <point x="185" y="300" type="line"/>
      <point x="470" y="300" type="line"/>
      <point x="470" y="375" type="line"/>
      <point x="185" y="375" type="line"/>
      <point x="185" y="625" type="line"/>
      <point x="489" y="625" type="line"/>
      <point x="489" y="700" type="line"/>
      <point x="95" y="700" type="line"/>
    </contour>
    <contour>
      <point x="676" y="700" type="line"/>
      <point x="676" y="235" type="line" smooth="yes"/>
      <point x="676" y="120"/>
      <point x="644" y="60"/>
      <point x="563" y="60" type="curve" smooth="yes"/>
      <point x="483" y="60"/>
      <point x="445" y="106"/>
      <point x="444" y="205" type="curve"/>
      <point x="366" y="205" type="line"/>
      <point x="365" y="202"/>
      <point x="364" y="193"/>
      <point x="364" y="185" type="curve" smooth="yes"/>
      <point x="364" y="63"/>
      <point x="433" y="-15"/>
      <point x="563" y="-15" type="curve" smooth="yes"/>
      <point x="686" y="-15"/>
      <point x="766" y="74"/>
      <point x="766" y="235" type="curve" smooth="yes"/>
      <point x="766" y="700" type="line"/>
    </contour>
  </outline>
</glyph>
<glyph name="a.alt" format="1">
  <advance width="524"/>
  <outline>
    <contour>
      <point x="150" y="133" type="curve" smooth="yes"/>
      <point x="150" y="79"/>
      <point x="185" y="50"/>
      <point x="241" y="50" type="curve" smooth="yes"/>
      <point x="293" y="50"/>
      <point x="334" y="76"/>
      <point x="334" y="156" type="curve" smooth="yes"/>
      <point x="334" y="335" type="line" smooth="yes"/>
      <point x="334" y="400"/>
      <point x="302" y="430"/>
      <point x="244" y="430" type="curve" smooth="yes"/>
      <point x="184" y="430"/>
      <point x="151" y="408"/>
      <point x="151" y="367" type="curve" smooth="yes"/>
      <point x="151" y="337"/>
      <point x="167" y="325"/>
      <point x="211" y="305" type="curve" smooth="yes"/>
      <point x="283" y="272" type="line"/>
      <point x="283" y="210" type="line"/>
      <point x="213" y="196" type="line" smooth="yes"/>
      <point x="160" y="185"/>
      <point x="150" y="166"/>
    </contour>
    <contour>
      <point x="65" y="131" type="curve" smooth="yes"/>
      <point x="65" y="192"/>
      <point x="86" y="223"/>
      <point x="180" y="240" type="curve" smooth="yes"/>
      <point x="218" y="247" type="line"/>
      <point x="145" y="278" type="line" smooth="yes"/>
      <point x="85.6563329098" y="303.20073534"/>
      <point x="71" y="323"/>
      <point x="71" y="362" type="curve" smooth="yes"/>
      <point x="71" y="443"/>
      <point x="132.0" y="500.0"/>
      <point x="244" y="500" type="curve" smooth="yes"/>
      <point x="356" y="500"/>
      <point x="419" y="445"/>
      <point x="419" y="335" type="curve" smooth="yes"/>
      <point x="419" y="125" type="line" smooth="yes"/>
      <point x="419" y="75"/>
      <point x="434" y="60"/>
      <point x="472" y="60" type="curve" smooth="yes"/>
      <point x="490" y="60" type="line"/>
      <point x="490" y="0" type="line"/>
      <point x="477" y="-7"/>
      <point x="460" y="-10"/>
      <point x="445" y="-10" type="curve" smooth="yes"/>
      <point x="392" y="-10"/>
      <point x="359" y="14"/>
      <point x="350" y="59" type="curve"/>
      <point x="323" y="10"/>
      <point x="290" y="-15"/>
      <point x="219" y="-15" type="curve" smooth="yes"/>
      <point x="127" y="-15"/>
      <point x="65" y="31"/>
    </contour>
  </outline>
</glyph>
<glyph name="ae.alt" format="1">
  <advance width="755"/>
  <outline>
    <contour>
      <point x="399" y="269" type="curve"/>
      <point x="399" y="219" type="line"/>
      <point x="467.846056063" y="225.971752513"/>
      <point x="521" y="231"/>
      <point x="608" y="245" type="curve" smooth="yes"/>
      <point x="682" y="257"/>
      <point x="693" y="267"/>
      <point x="693" y="333" type="curve" smooth="yes"/>
      <point x="693" y="439"/>
      <point x="624" y="500"/>
      <point x="520" y="500" type="curve" smooth="yes"/>
      <point x="409" y="500"/>
      <point x="337" y="422"/>
      <point x="332" y="314" type="curve" smooth="yes"/>
      <point x="330" y="270"/>
      <point x="330" y="231"/>
      <point x="332" y="160" type="curve" smooth="yes"/>
      <point x="335" y="43"/>
      <point x="428" y="-15"/>
      <point x="521" y="-15" type="curve" smooth="yes"/>
      <point x="617" y="-15"/>
      <point x="694" y="47"/>
      <point x="700" y="140" type="curve"/>
      <point x="615" y="140" type="line"/>
      <point x="604" y="84"/>
      <point x="573" y="55"/>
      <point x="521" y="55" type="curve" smooth="yes"/>
      <point x="459" y="55"/>
      <point x="418" y="92"/>
      <point x="416" y="176" type="curve"/>
      <point x="416" y="298" type="line"/>
      <point x="416" y="382"/>
      <point x="456" y="430"/>
      <point x="518" y="430" type="curve" smooth="yes"/>
      <point x="576" y="430"/>
      <point x="608" y="396"/>
      <point x="608" y="335" type="curve" smooth="yes"/>
      <point x="608" y="308"/>
      <point x="601.144526171" y="298.025693541"/>
      <point x="556" y="290" type="curve" smooth="yes"/>
      <point x="504.282170085" y="281.04883713"/>
      <point x="451.986664014" y="272.99899351"/>
    </contour>
    <contour>
      <point x="150" y="134" type="curve" smooth="yes"/>
      <point x="150" y="165"/>
      <point x="160" y="179"/>
      <point x="197" y="190" type="curve" smooth="yes"/>
      <point x="223" y="198"/>
      <point x="280" y="212"/>
      <point x="280" y="212" type="curve"/>
      <point x="283" y="272" type="line"/>
      <point x="283" y="272"/>
      <point x="245" y="293"/>
      <point x="212" y="313" type="curve" smooth="yes"/>
      <point x="173" y="337"/>
      <point x="159" y="342"/>
      <point x="159" y="360" type="curve" smooth="yes"/>
      <point x="159" y="401"/>
      <point x="195" y="430"/>
      <point x="243" y="430" type="curve" smooth="yes"/>
      <point x="296" y="430"/>
      <point x="330" y="394"/>
      <point x="330" y="335" type="curve" smooth="yes"/>
      <point x="330.0" y="290.5"/>
      <point x="330" y="193"/>
      <point x="330" y="157" type="curve"/>
      <point x="330" y="95"/>
      <point x="291" y="55"/>
      <point x="232" y="55" type="curve" smooth="yes"/>
      <point x="183" y="55"/>
      <point x="150" y="84"/>
    </contour>
    <contour>
      <point x="65" y="129" type="curve" smooth="yes"/>
      <point x="65" y="45"/>
      <point x="127" y="-15"/>
      <point x="206" y="-15" type="curve" smooth="yes"/>
      <point x="291" y="-15"/>
      <point x="334" y="38"/>
      <point x="352" y="85" type="curve"/>
      <point x="415" y="115" type="line" smooth="yes"/>
      <point x="415" y="335" type="line"/>
      <point x="415" y="444"/>
      <point x="336" y="500"/>
      <point x="248" y="500" type="curve" smooth="yes"/>
      <point x="159" y="500"/>
      <point x="79" y="445"/>
      <point x="79" y="360" type="curve" smooth="yes"/>
      <point x="79" y="322"/>
      <point x="93" y="316"/>
      <point x="169" y="279" type="curve" smooth="yes"/>
      <point x="208" y="260"/>
      <point x="231" y="246"/>
      <point x="231" y="246" type="curve"/>
      <point x="231" y="246"/>
      <point x="189" y="240"/>
      <point x="153" y="233" type="curve" smooth="yes"/>
      <point x="86" y="220"/>
      <point x="65" y="194"/>
    </contour>
  </outline>
</glyph>
<glyph name="asuperior" format="1">
  <advance width="354"/>
  <outline>
    <contour>
      <point x="144" y="516" type="curve" smooth="yes"/>
      <point x="172" y="524"/>
      <point x="220" y="531"/>
      <point x="220" y="531" type="curve"/>
      <point x="220" y="499" type="line" smooth="yes"/>
      <point x="220" y="459"/>
      <point x="203" y="430"/>
      <point x="160" y="430" type="curve" smooth="yes"/>
      <point x="133" y="430"/>
      <point x="112" y="444"/>
      <point x="112" y="475" type="curve" smooth="yes"/>
      <point x="112" y="499"/>
      <point x="123" y="510"/>
    </contour>
    <contour>
      <point x="327" y="435" type="line"/>
      <point x="300" y="435"/>
      <point x="285" y="440"/>
      <point x="285" y="472" type="curve" smooth="yes"/>
      <point x="285" y="594" type="line" smooth="yes"/>
      <point x="285" y="672"/>
      <point x="237" y="710"/>
      <point x="173" y="710" type="curve" smooth="yes"/>
      <point x="88" y="710"/>
      <point x="48" y="657"/>
      <point x="53" y="595" type="curve"/>
      <point x="113" y="600" type="line"/>
      <point x="113" y="635"/>
      <point x="131" y="660"/>
      <point x="169" y="660" type="curve" smooth="yes"/>
      <point x="205" y="660"/>
      <point x="220" y="637"/>
      <point x="220" y="599" type="curve" smooth="yes"/>
      <point x="220" y="569" type="line"/>
      <point x="220" y="569"/>
      <point x="150" y="557"/>
      <point x="115" y="549" type="curve" smooth="yes"/>
      <point x="74" y="540"/>
      <point x="47" y="520"/>
      <point x="47" y="473" type="curve" smooth="yes"/>
      <point x="47" y="416"/>
      <point x="84" y="380"/>
      <point x="139" y="380" type="curve" smooth="yes"/>
      <point x="182" y="380"/>
      <point x="210" y="402"/>
      <point x="227" y="430" type="curve"/>
      <point x="242" y="376"/>
      <point x="307" y="380"/>
      <point x="327" y="390" type="curve"/>
    </contour>
  </outline>
</glyph>
<glyph name="bsuperior" format="1">
  <advance width="370"/>
  <outline>
    <contour>
      <point x="57" y="411" type="line"/>
      <point x="89" y="392"/>
      <point x="149" y="380"/>
      <point x="186" y="380" type="curve" smooth="yes"/>
      <point x="259" y="380"/>
      <point x="322" y="425"/>
      <point x="326" y="498" type="curve" smooth="yes"/>
      <point x="328" y="534"/>
      <point x="328" y="565"/>
      <point x="326" y="603" type="curve" smooth="yes"/>
      <point x="322" y="674"/>
      <point x="273" y="710"/>
      <point x="214" y="710" type="curve" smooth="yes"/>
      <point x="171" y="710"/>
      <point x="140" y="689"/>
      <point x="122" y="665" type="curve"/>
      <point x="122" y="850" type="line"/>
      <point x="57" y="828" type="line"/>
    </contour>
    <contour>
      <point x="122" y="600" type="line"/>
      <point x="122" y="628"/>
      <point x="156" y="660"/>
      <point x="199" y="660" type="curve" smooth="yes"/>
      <point x="231" y="660"/>
      <point x="259" y="642"/>
      <point x="261" y="599" type="curve" smooth="yes"/>
      <point x="262" y="559"/>
      <point x="263" y="541"/>
      <point x="261" y="498" type="curve" smooth="yes"/>
      <point x="259" y="452"/>
      <point x="227" y="430"/>
      <point x="185" y="430" type="curve" smooth="yes"/>
      <point x="162" y="430"/>
      <point x="138" y="435"/>
      <point x="122" y="442" type="curve"/>
    </contour>
  </outline>
</glyph>
<glyph name="bullet.cap" format="1">
  <advance width="337"/>
  <outline>
    <contour>
      <point x="77" y="344" type="curve" smooth="yes"/>
      <point x="77" y="294"/>
      <point x="116" y="255"/>
      <point x="166" y="255" type="curve" smooth="yes"/>
      <point x="220" y="255"/>
      <point x="260" y="294"/>
      <point x="260" y="344" type="curve" smooth="yes"/>
      <point x="260" y="398"/>
      <point x="220" y="438"/>
      <point x="166" y="438" type="curve" smooth="yes"/>
      <point x="116" y="438"/>
      <point x="77" y="398"/>
    </contour>
  </outline>
</glyph>
<glyph name="caron.cap" format="1">
  <advance width="443"/>
  <outline>
    <contour>
      <point x="245" y="585" type="line"/>
      <point x="352" y="715" type="line"/>
      <point x="278" y="715" type="line"/>
      <point x="219" y="637" type="line"/>
      <point x="158" y="715" type="line"/>
      <point x="84" y="715" type="line"/>
      <point x="192" y="585" type="line"/>
    </contour>
  </outline>
</glyph>
<glyph name="csuperior" format="1">
  <advance width="323"/>
  <outline>
    <contour>
      <point x="108" y="505" type="curve" smooth="yes"/>
      <point x="106" y="539"/>
      <point x="106" y="552"/>
      <point x="108" y="592" type="curve" smooth="yes"/>
      <point x="110" y="638"/>
      <point x="139" y="660"/>
      <point x="175" y="660" type="curve" smooth="yes"/>
      <point x="213" y="660"/>
      <point x="233" y="637"/>
      <point x="233" y="600" type="curve"/>
      <point x="293" y="605" type="line"/>
      <point x="294" y="669"/>
      <point x="246" y="710"/>
      <point x="175" y="710" type="curve" smooth="yes"/>
      <point x="97" y="710"/>
      <point x="45" y="667"/>
      <point x="43" y="592" type="curve" smooth="yes"/>
      <point x="42" y="554"/>
      <point x="42" y="537"/>
      <point x="43" y="496" type="curve" smooth="yes"/>
      <point x="45" y="421"/>
      <point x="100" y="380"/>
      <point x="175" y="380" type="curve" smooth="yes"/>
      <point x="248" y="380"/>
      <point x="298" y="424"/>
      <point x="295" y="485" type="curve"/>
      <point x="235" y="490" type="line"/>
      <point x="235" y="455"/>
      <point x="213" y="430"/>
      <point x="175" y="430" type="curve" smooth="yes"/>
      <point x="135" y="430"/>
      <point x="110" y="452"/>
    </contour>
  </outline>
</glyph>
<glyph name="ct" format="1">
  <advance width="836"/>
  <outline>
    <contour>
      <point x="726" y="-15" type="curve" smooth="yes"/>
      <point x="751" y="-15"/>
      <point x="794" y="-11"/>
      <point x="821" y="0" type="curve"/>
      <point x="817" y="60" type="line"/>
      <point x="817" y="60"/>
      <point x="787" y="55"/>
      <point x="755" y="55" type="curve" smooth="yes"/>
      <point x="712" y="55"/>
      <point x="672" y="65"/>
      <point x="672" y="138" type="curve"/>
      <point x="672" y="425" type="line"/>
      <point x="806" y="425" type="line"/>
      <point x="806" y="485" type="line"/>
      <point x="672" y="485" type="line"/>
      <point x="672" y="544" type="line" smooth="yes"/>
      <point x="671" y="692"/>
      <point x="582" y="750"/>
      <point x="475" y="750" type="curve" smooth="yes"/>
      <point x="362" y="750"/>
      <point x="294" y="665"/>
      <point x="294" y="576" type="curve" smooth="yes"/>
      <point x="294" y="561"/>
      <point x="296" y="546"/>
      <point x="300" y="531" type="curve"/>
      <point x="314" y="530"/>
      <point x="348" y="524"/>
      <point x="366" y="512" type="curve"/>
      <point x="360" y="529"/>
      <point x="357" y="548"/>
      <point x="357" y="566" type="curve" smooth="yes"/>
      <point x="357" y="625"/>
      <point x="393" y="680"/>
      <point x="475" y="680" type="curve" smooth="yes"/>
      <point x="542" y="680"/>
      <point x="587" y="643"/>
      <point x="587" y="548" type="curve" smooth="yes"/>
      <point x="587" y="485" type="line"/>
      <point x="517" y="485" type="line"/>
      <point x="517" y="425" type="line"/>
      <point x="587" y="425" type="line"/>
      <point x="587" y="134" type="line" smooth="yes"/>
      <point x="587" y="24"/>
      <point x="655" y="-15"/>
    </contour>
    <component base="c"/>
  </outline>
</glyph>
<glyph name="emdash.cap" format="1">
  <advance width="654"/>
  <outline>
    <contour>
      <point x="42" y="275" type="line"/>
      <point x="612" y="275" type="line"/>
      <point x="612" y="350" type="line"/>
      <point x="42" y="350" type="line"/>
    </contour>
  </outline>
</glyph>
<glyph name="endash.cap" format="1">
  <advance width="521"/>
  <outline>
    <contour>
      <point x="42" y="275" type="line"/>
      <point x="479" y="275" type="line"/>
      <point x="479" y="350" type="line"/>
      <point x="42" y="350" type="line"/>
    </contour>
  </outline>
</glyph>
<glyph name="esuperior" format="1">
  <advance width="333"/>
  <outline>
    <contour>
      <point x="175" y="380" type="curve" smooth="yes"/>
      <point x="248" y="380"/>
      <point x="298" y="424"/>
      <point x="295" y="485" type="curve"/>
      <point x="235" y="490" type="line"/>
      <point x="235" y="455"/>
      <point x="213" y="430"/>
      <point x="175" y="430" type="curve" smooth="yes"/>
      <point x="136" y="430"/>
      <point x="108" y="452"/>
      <point x="108" y="505" type="curve" smooth="yes"/>
      <point x="108" y="521" type="line"/>
      <point x="108" y="521"/>
      <point x="176" y="528"/>
      <point x="231" y="538" type="curve" smooth="yes"/>
      <point x="279" y="546"/>
      <point x="296" y="558"/>
      <point x="296" y="600" type="curve" smooth="yes"/>
      <point x="296" y="668"/>
      <point x="250" y="710"/>
      <point x="175" y="710" type="curve" smooth="yes"/>
      <point x="93" y="710"/>
      <point x="46" y="657"/>
      <point x="43" y="588" type="curve" smooth="yes"/>
      <point x="42" y="558"/>
      <point x="42" y="541"/>
      <point x="43" y="496" type="curve" smooth="yes"/>
      <point x="45" y="421"/>
      <point x="97" y="380"/>
    </contour>
    <contour>
      <point x="108" y="578" type="line"/>
      <point x="108" y="631"/>
      <point x="134" y="660"/>
      <point x="174" y="660" type="curve" smooth="yes"/>
      <point x="211" y="660"/>
      <point x="231" y="640"/>
      <point x="231" y="601" type="curve" smooth="yes"/>
      <point x="231" y="584"/>
      <point x="227" y="574"/>
      <point x="199" y="570" type="curve" smooth="yes"/>
      <point x="156" y="564"/>
      <point x="108" y="558"/>
      <point x="108" y="558" type="curve"/>
    </contour>
  </outline>
</glyph>
<glyph name="fiveprop" format="1">
  <advance width="554"/>
  <outline>
    <contour>
      <point x="497" y="210" type="curve" smooth="yes"/>
      <point x="497" y="357"/>
      <point x="399" y="430"/>
      <point x="298" y="430" type="curve" smooth="yes"/>
      <point x="222" y="430"/>
      <point x="181" y="388"/>
      <point x="181" y="388" type="curve"/>
      <point x="196" y="625" type="line"/>
      <point x="446" y="625" type="line"/>
      <point x="446" y="700" type="line"/>
      <point x="120" y="700" type="line"/>
      <point x="97" y="317" type="line"/>
      <point x="173" y="317" type="line"/>
      <point x="192" y="340"/>
      <point x="225" y="360"/>
      <point x="275" y="360" type="curve" smooth="yes"/>
      <point x="347" y="360"/>
      <point x="407" y="315"/>
      <point x="407" y="209" type="curve" smooth="yes"/>
      <point x="407" y="115"/>
      <point x="357" y="60"/>
      <point x="277" y="60" type="curve" smooth="yes"/>
      <point x="201" y="60"/>
      <point x="140" y="104"/>
      <point x="132" y="175" type="curve"/>
      <point x="52" y="170" type="line"/>
      <point x="61" y="59"/>
      <point x="157" y="-15"/>
      <point x="279" y="-15" type="curve" smooth="yes"/>
      <point x="399" y="-15"/>
      <point x="497" y="69"/>
    </contour>
  </outline>
</glyph>
<glyph name="fourprop" format="1">
  <advance width="569"/>
  <outline>
    <contour>
      <point x="349" y="190" type="line"/>
      <point x="349" y="0" type="line"/>
      <point x="434" y="0" type="line"/>
      <point x="434" y="190" type="line"/>
      <point x="557" y="190" type="line"/>
      <point x="557" y="260" type="line"/>
      <point x="434" y="260" type="line"/>
      <point x="434" y="700" type="line"/>
      <point x="344" y="705" type="line"/>
      <point x="32" y="254" type="line"/>
      <point x="43" y="190" type="line"/>
    </contour>
    <contour>
      <point x="112" y="260" type="line"/>
      <point x="349" y="603" type="line"/>
      <point x="349" y="260" type="line"/>
    </contour>
  </outline>
</glyph>
<glyph name="fsuperior" format="1">
  <advance width="217"/>
  <outline>
    <contour>
      <point x="131" y="700" type="line"/>
      <point x="209" y="700" type="line"/>
      <point x="209" y="655" type="line"/>
      <point x="131" y="655" type="line"/>
      <point x="131" y="390" type="line"/>
      <point x="66" y="390" type="line"/>
      <point x="66" y="655" type="line"/>
      <point x="22" y="655" type="line"/>
      <point x="22" y="700" type="line"/>
      <point x="66" y="700" type="line"/>
      <point x="66" y="728" type="line" smooth="yes"/>
      <point x="66" y="811"/>
      <point x="116" y="850"/>
      <point x="172" y="850" type="curve" smooth="yes"/>
      <point x="201" y="850"/>
      <point x="228" y="842"/>
      <point x="240" y="832" type="curve"/>
      <point x="226" y="789" type="line"/>
      <point x="226" y="789"/>
      <point x="206" y="795"/>
      <point x="183" y="795" type="curve" smooth="yes"/>
      <point x="137" y="795"/>
      <point x="131" y="757"/>
      <point x="131" y="724" type="curve" smooth="yes"/>
    </contour>
  </outline>
</glyph>
<glyph name="g.alt" format="1">
  <advance width="540"/>
  <outline>
    <contour>
      <point x="259" y="-175" type="curve" smooth="yes"/>
      <point x="193" y="-175"/>
      <point x="159" y="-148"/>
      <point x="159" y="-101" type="curve" smooth="yes"/>
      <point x="159" y="-75"/>
      <point x="163" y="-58"/>
      <point x="198" y="-41" type="curve" smooth="yes"/>
      <point x="308" y="15" type="line"/>
      <point x="308" y="85" type="line"/>
      <point x="266" y="85" type="line" smooth="yes"/>
      <point x="199" y="85"/>
      <point x="166" y="123"/>
      <point x="162" y="188" type="curve" smooth="yes"/>
      <point x="159" y="236"/>
      <point x="159" y="259"/>
      <point x="162" y="310" type="curve" smooth="yes"/>
      <point x="167" y="401"/>
      <point x="205" y="430"/>
      <point x="280" y="430" type="curve" smooth="yes"/>
      <point x="322" y="430"/>
      <point x="357" y="418"/>
      <point x="368" y="412" type="curve"/>
      <point x="368" y="-49" type="line" smooth="yes"/>
      <point x="368" y="-139"/>
      <point x="330" y="-175"/>
    </contour>
    <contour>
      <point x="259" y="-245" type="curve" smooth="yes"/>
      <point x="382" y="-245"/>
      <point x="454" y="-178"/>
      <point x="454" y="-44" type="curve" smooth="yes"/>
      <point x="454" y="457" type="line"/>
      <point x="430" y="474"/>
      <point x="363" y="500"/>
      <point x="282" y="500" type="curve" smooth="yes"/>
      <point x="156" y="500"/>
      <point x="85" y="437"/>
      <point x="77" y="310" type="curve" smooth="yes"/>
      <point x="74" y="261"/>
      <point x="74" y="234"/>
      <point x="77" y="187" type="curve" smooth="yes"/>
      <point x="84" y="75"/>
      <point x="139" y="27"/>
      <point x="237" y="27" type="curve"/>
      <point x="143" y="-17" type="line" smooth="yes"/>
      <point x="86" y="-44"/>
      <point x="75" y="-67"/>
      <point x="75" y="-107" type="curve" smooth="yes"/>
      <point x="75" y="-190"/>
      <point x="137" y="-245"/>
    </contour>
  </outline>
</glyph>
<glyph name="grave.cap" format="1">
  <advance width="399"/>
  <outline>
    <contour>
      <point x="82" y="715" type="line"/>
      <point x="195" y="585" type="line"/>
      <point x="272" y="585" type="line"/>
      <point x="172" y="715" type="line"/>
    </contour>
  </outline>
</glyph>
<glyph name="gsuperior" format="1">
  <advance width="372"/>
  <outline>
    <contour>
      <point x="137" y="403" type="line"/>
      <point x="137" y="398" type="line"/>
      <point x="110" y="394" type="line" smooth="yes"/>
      <point x="92" y="389"/>
      <point x="82" y="386"/>
      <point x="67" y="380" type="curve" smooth="yes"/>
      <point x="43" y="370"/>
      <point x="32" y="362"/>
      <point x="32" y="335" type="curve" smooth="yes"/>
      <point x="32" y="279"/>
      <point x="98" y="240"/>
      <point x="192" y="240" type="curve" smooth="yes"/>
      <point x="274" y="240"/>
      <point x="345" y="279"/>
      <point x="345" y="349" type="curve" smooth="yes"/>
      <point x="345" y="402"/>
      <point x="302" y="428"/>
      <point x="258" y="436" type="curve" smooth="yes"/>
      <point x="219" y="443"/>
      <point x="169" y="448"/>
      <point x="134" y="453" type="curve" smooth="yes"/>
      <point x="118" y="455"/>
      <point x="111" y="461"/>
      <point x="111" y="471" type="curve" smooth="yes"/>
      <point x="111" y="485"/>
      <point x="124" y="492"/>
      <point x="137" y="496" type="curve"/>
      <point x="149" y="492"/>
      <point x="171" y="489"/>
      <point x="184" y="489" type="curve" smooth="yes"/>
      <point x="250" y="489"/>
      <point x="304" y="529"/>
      <point x="304" y="597" type="curve" smooth="yes"/>
      <point x="304" y="637"/>
      <point x="278" y="657"/>
      <point x="252" y="664" type="curve"/>
      <point x="252" y="665" type="line"/>
      <point x="252" y="665"/>
      <point x="299" y="655"/>
      <point x="338" y="655" type="curve"/>
      <point x="339" y="662"/>
      <point x="339" y="693"/>
      <point x="338" y="700" type="curve"/>
      <point x="245" y="700" type="line"/>
      <point x="245" y="700"/>
      <point x="216" y="710"/>
      <point x="184" y="710" type="curve" smooth="yes"/>
      <point x="114" y="710"/>
      <point x="59" y="665"/>
      <point x="59" y="600" type="curve" smooth="yes"/>
      <point x="59" y="550"/>
      <point x="82" y="522"/>
      <point x="106" y="510" type="curve"/>
      <point x="77" y="500"/>
      <point x="59" y="483"/>
      <point x="59" y="453" type="curve" smooth="yes"/>
      <point x="59" y="417"/>
      <point x="91" y="406"/>
      <point x="122" y="402" type="curve" smooth="yes"/>
      <point x="230" y="388" type="line" smooth="yes"/>
      <point x="261" y="384"/>
      <point x="280" y="372"/>
      <point x="280" y="345" type="curve" smooth="yes"/>
      <point x="280" y="309"/>
      <point x="242" y="290"/>
      <point x="192" y="290" type="curve" smooth="yes"/>
      <point x="131" y="290"/>
      <point x="97" y="312"/>
      <point x="97" y="341" type="curve" smooth="yes"/>
      <point x="97" y="357"/>
      <point x="106" y="363"/>
      <point x="121" y="369" type="curve" smooth="yes"/>
      <point x="144" y="378"/>
      <point x="198" y="395"/>
      <point x="198" y="395" type="curve"/>
    </contour>
    <contour>
      <point x="184" y="660" type="curve" smooth="yes"/>
      <point x="222" y="660"/>
      <point x="242" y="636"/>
      <point x="242" y="600" type="curve" smooth="yes"/>
      <point x="242" y="560"/>
      <point x="219" y="539"/>
      <point x="184" y="539" type="curve" smooth="yes"/>
      <point x="144" y="539"/>
      <point x="124" y="563"/>
      <point x="124" y="600" type="curve" smooth="yes"/>
      <point x="124" y="640"/>
      <point x="151" y="660"/>
    </contour>
  </outline>
</glyph>
<glyph name="isuperior" format="1">
  <advance width="188"/>
  <outline>
    <contour>
      <point x="124" y="707" type="line"/>
      <point x="59" y="684" type="line"/>
      <point x="59" y="451" type="line" smooth="yes"/>
      <point x="59" y="387"/>
      <point x="120" y="374"/>
      <point x="166" y="390" type="curve"/>
      <point x="166" y="435" type="line"/>
      <point x="136" y="435"/>
      <point x="124" y="445"/>
      <point x="124" y="477" type="curve" smooth="yes"/>
    </contour>
    <contour>
      <point x="52" y="798" type="curve" smooth="yes"/>
      <point x="52" y="775"/>
      <point x="69" y="758"/>
      <point x="91" y="758" type="curve" smooth="yes"/>
      <point x="115" y="758"/>
      <point x="132" y="775"/>
      <point x="132" y="798" type="curve" smooth="yes"/>
      <point x="132" y="821"/>
      <point x="115" y="838"/>
      <point x="91" y="838" type="curve" smooth="yes"/>
      <point x="69" y="838"/>
      <point x="52" y="821"/>
    </contour>
  </outline>
</glyph>
<glyph name="ksuperior" format="1">
  <advance width="346"/>
  <outline>
    <contour>
      <point x="123" y="850" type="line"/>
      <point x="62" y="828" type="line"/>
      <point x="62" y="390" type="line"/>
      <point x="123" y="390" type="line"/>
    </contour>
    <contour>
      <point x="232" y="417" type="curve" smooth="yes"/>
      <point x="251" y="392"/>
      <point x="278" y="377"/>
      <point x="319" y="390" type="curve"/>
      <point x="319" y="432" type="line"/>
      <point x="298" y="432"/>
      <point x="290" y="435"/>
      <point x="276" y="455" type="curve" smooth="yes"/>
      <point x="200" y="565" type="line"/>
      <point x="259" y="641" type="line" smooth="yes"/>
      <point x="274" y="659"/>
      <point x="287" y="660"/>
      <point x="306" y="659" type="curve"/>
      <point x="306" y="700" type="line"/>
      <point x="277" y="708"/>
      <point x="249" y="706"/>
      <point x="228" y="682" type="curve" smooth="yes"/>
      <point x="196" y="647"/>
      <point x="132" y="561"/>
      <point x="132" y="561" type="curve"/>
      <point x="132" y="561"/>
      <point x="198" y="462"/>
    </contour>
  </outline>
</glyph>
<glyph name="lsuperior" format="1">
  <advance width="191"/>
  <outline>
    <contour>
      <point x="159" y="390" type="curve"/>
      <point x="159" y="432" type="line"/>
      <point x="129" y="432"/>
      <point x="118" y="441"/>
      <point x="118" y="473" type="curve" smooth="yes"/>
      <point x="118" y="850" type="line"/>
      <point x="57" y="828" type="line"/>
      <point x="57" y="451" type="line" smooth="yes"/>
      <point x="57" y="387"/>
      <point x="115" y="374"/>
    </contour>
  </outline>
</glyph>
<glyph name="msuperior" format="1">
  <advance width="543"/>
  <outline>
    <contour>
      <point x="131" y="587" type="line"/>
      <point x="131" y="631"/>
      <point x="161" y="660"/>
      <point x="201" y="660" type="curve" smooth="yes"/>
      <point x="234" y="660"/>
      <point x="251" y="641"/>
      <point x="251" y="593" type="curve" smooth="yes"/>
      <point x="251" y="390" type="line"/>
      <point x="316" y="390" type="line"/>
      <point x="316" y="586" type="line" smooth="yes"/>
      <point x="316" y="629"/>
      <point x="344" y="660"/>
      <point x="386" y="660" type="curve" smooth="yes"/>
      <point x="418" y="660"/>
      <point x="436" y="638"/>
      <point x="436" y="593" type="curve" smooth="yes"/>
      <point x="436" y="390" type="line"/>
      <point x="501" y="390" type="line"/>
      <point x="501" y="601" type="line" smooth="yes"/>
      <point x="501" y="670"/>
      <point x="459" y="710"/>
      <point x="403" y="710" type="curve" smooth="yes"/>
      <point x="358" y="710"/>
      <point x="327" y="684"/>
      <point x="308" y="651" type="curve"/>
      <point x="298" y="687"/>
      <point x="260" y="710"/>
      <point x="217" y="710" type="curve" smooth="yes"/>
      <point x="178" y="710"/>
      <point x="146" y="690"/>
      <point x="129" y="662" type="curve"/>
      <point x="122" y="692"/>
      <point x="93" y="705"/>
      <point x="61" y="705" type="curve" smooth="yes"/>
      <point x="50" y="705"/>
      <point x="38" y="703"/>
      <point x="27" y="700" type="curve"/>
      <point x="27" y="655" type="line"/>
      <point x="49" y="655"/>
      <point x="66" y="651"/>
      <point x="66" y="625" type="curve" smooth="yes"/>
      <point x="66" y="390" type="line"/>
      <point x="131" y="390" type="line"/>
    </contour>
  </outline>
</glyph>
<glyph name="oneprop" format="1">
  <advance width="434"/>
  <outline>
    <contour>
      <point x="267" y="700" type="line"/>
      <point x="226" y="705" type="line"/>
      <point x="62" y="657" type="line"/>
      <point x="74" y="595" type="line"/>
      <point x="177" y="611" type="line"/>
      <point x="177" y="75" type="line"/>
      <point x="62" y="70" type="line"/>
      <point x="62" y="0" type="line"/>
      <point x="382" y="0" type="line"/>
      <point x="382" y="70" type="line"/>
      <point x="267" y="75" type="line"/>
    </contour>
  </outline>
</glyph>
<glyph name="psuperior" format="1">
  <advance width="374"/>
  <outline>
    <contour>
      <point x="126" y="600" type="line"/>
      <point x="126" y="631"/>
      <point x="163" y="660"/>
      <point x="199" y="660" type="curve" smooth="yes"/>
      <point x="242" y="660"/>
      <point x="264" y="639"/>
      <point x="266" y="599" type="curve" smooth="yes"/>
      <point x="268" y="562"/>
      <point x="268" y="534"/>
      <point x="266" y="497" type="curve" smooth="yes"/>
      <point x="263" y="451"/>
      <point x="239" y="430"/>
      <point x="203" y="430" type="curve" smooth="yes"/>
      <point x="163" y="430"/>
      <point x="126" y="451"/>
      <point x="126" y="507" type="curve" smooth="yes"/>
    </contour>
    <contour>
      <point x="122" y="659" type="curve"/>
      <point x="114" y="700"/>
      <point x="64" y="712"/>
      <point x="22" y="700" type="curve"/>
      <point x="22" y="655" type="line"/>
      <point x="44" y="655"/>
      <point x="61" y="655"/>
      <point x="61" y="630" type="curve" smooth="yes"/>
      <point x="61" y="250" type="line"/>
      <point x="126" y="250" type="line"/>
      <point x="126" y="419" type="line"/>
      <point x="148" y="394"/>
      <point x="177" y="380"/>
      <point x="209" y="380" type="curve" smooth="yes"/>
      <point x="280" y="380"/>
      <point x="328" y="423"/>
      <point x="331" y="499" type="curve" smooth="yes"/>
      <point x="332" y="544"/>
      <point x="332" y="558"/>
      <point x="331" y="598" type="curve" smooth="yes"/>
      <point x="329" y="665"/>
      <point x="290" y="710"/>
      <point x="216" y="710" type="curve" smooth="yes"/>
      <point x="173" y="710"/>
      <point x="141" y="687"/>
    </contour>
  </outline>
</glyph>
<glyph name="qsuperior" format="1">
  <advance width="361"/>
  <outline>
    <contour>
      <point x="314" y="681" type="line"/>
      <point x="281" y="697"/>
      <point x="226" y="710"/>
      <point x="188" y="710" type="curve" smooth="yes"/>
      <point x="108" y="710"/>
      <point x="46" y="668"/>
      <point x="43" y="586" type="curve" smooth="yes"/>
      <point x="42" y="543"/>
      <point x="42" y="533"/>
      <point x="43" y="492" type="curve" smooth="yes"/>
      <point x="46" y="417"/>
      <point x="104" y="380"/>
      <point x="162" y="380" type="curve" smooth="yes"/>
      <point x="204" y="380"/>
      <point x="234" y="404"/>
      <point x="249" y="429" type="curve"/>
      <point x="249" y="250" type="line"/>
      <point x="314" y="250" type="line"/>
    </contour>
    <contour>
      <point x="249" y="507" type="line"/>
      <point x="249" y="455"/>
      <point x="218" y="430"/>
      <point x="176" y="430" type="curve" smooth="yes"/>
      <point x="140" y="430"/>
      <point x="109" y="451"/>
      <point x="108" y="499" type="curve" smooth="yes"/>
      <point x="107" y="536"/>
      <point x="107" y="544"/>
      <point x="108" y="581" type="curve" smooth="yes"/>
      <point x="110" y="640"/>
      <point x="147" y="660"/>
      <point x="188" y="660" type="curve" smooth="yes"/>
      <point x="208" y="660"/>
      <point x="234" y="657"/>
      <point x="249" y="650" type="curve"/>
    </contour>
  </outline>
</glyph>
<glyph name="rsuperior" format="1">
  <advance width="248"/>
  <outline>
    <contour>
      <point x="126" y="565" type="line" smooth="yes"/>
      <point x="132" y="565" type="line"/>
      <point x="132" y="625"/>
      <point x="144" y="650"/>
      <point x="191" y="650" type="curve" smooth="yes"/>
      <point x="207" y="650"/>
      <point x="228" y="650"/>
      <point x="228" y="650" type="curve"/>
      <point x="236" y="697" type="line"/>
      <point x="231" y="704"/>
      <point x="217" y="710"/>
      <point x="200" y="710" type="curve" smooth="yes"/>
      <point x="162" y="710"/>
      <point x="138" y="688"/>
      <point x="127" y="658" type="curve"/>
    </contour>
    <contour>
      <point x="67" y="390" type="line"/>
      <point x="132" y="390" type="line"/>
      <point x="132" y="630" type="line"/>
      <point x="132" y="636" type="line"/>
      <point x="132" y="691"/>
      <point x="95" y="706"/>
      <point x="63" y="706" type="curve" smooth="yes"/>
      <point x="49" y="706"/>
      <point x="36" y="703"/>
      <point x="27" y="700" type="curve"/>
      <point x="27" y="655" type="line"/>
      <point x="49" y="655"/>
      <point x="67" y="651"/>
      <point x="67" y="625" type="curve" smooth="yes"/>
    </contour>
  </outline>
</glyph>
<glyph name="sixprop" format="1">
  <advance width="589"/>
  <outline>
    <contour>
      <point x="80" y="225" type="curve" smooth="yes"/>
      <point x="87" y="78"/>
      <point x="175" y="-15"/>
      <point x="308" y="-15" type="curve" smooth="yes"/>
      <point x="435" y="-15"/>
      <point x="522" y="73"/>
      <point x="522" y="213" type="curve" smooth="yes"/>
      <point x="522" y="363"/>
      <point x="427" y="425"/>
      <point x="327" y="425" type="curve" smooth="yes"/>
      <point x="243" y="425"/>
      <point x="176" y="373"/>
      <point x="157" y="302" type="curve"/>
      <point x="153" y="241" type="line"/>
      <point x="169" y="197" type="line"/>
      <point x="159" y="293"/>
      <point x="234" y="355"/>
      <point x="310" y="355" type="curve" smooth="yes"/>
      <point x="376" y="355"/>
      <point x="432" y="314"/>
      <point x="432" y="213" type="curve" smooth="yes"/>
      <point x="432" y="114"/>
      <point x="384" y="60"/>
      <point x="308" y="60" type="curve" smooth="yes"/>
      <point x="220" y="60"/>
      <point x="171" y="124"/>
      <point x="167" y="220" type="curve" smooth="yes"/>
      <point x="164" y="301"/>
      <point x="164" y="417"/>
      <point x="167" y="491" type="curve" smooth="yes"/>
      <point x="171" y="588"/>
      <point x="220" y="640"/>
      <point x="299" y="640" type="curve" smooth="yes"/>
      <point x="370" y="640"/>
      <point x="410" y="591"/>
      <point x="412" y="525" type="curve"/>
      <point x="492" y="530" type="line"/>
      <point x="491" y="653"/>
      <point x="409" y="715"/>
      <point x="299" y="715" type="curve" smooth="yes"/>
      <point x="181" y="715"/>
      <point x="87" y="639"/>
      <point x="80" y="491" type="curve" smooth="yes"/>
      <point x="76" y="414"/>
      <point x="77" y="291"/>
    </contour>
  </outline>
</glyph>
<glyph name="threeprop" format="1">
  <advance width="554"/>
  <outline>
    <contour>
      <point x="407" y="203" type="curve" smooth="yes"/>
      <point x="407" y="112"/>
      <point x="353" y="60"/>
      <point x="277" y="60" type="curve" smooth="yes"/>
      <point x="201" y="60"/>
      <point x="140" y="104"/>
      <point x="132" y="175" type="curve"/>
      <point x="52" y="170" type="line"/>
      <point x="61" y="59"/>
      <point x="157" y="-15"/>
      <point x="279" y="-15" type="curve" smooth="yes"/>
      <point x="399" y="-15"/>
      <point x="497" y="64"/>
      <point x="497" y="203" type="curve" smooth="yes"/>
      <point x="497" y="340"/>
      <point x="398" y="405"/>
      <point x="299" y="402" type="curve"/>
      <point x="481" y="631" type="line"/>
      <point x="471" y="700" type="line"/>
      <point x="72" y="700" type="line"/>
      <point x="72" y="625" type="line"/>
      <point x="379" y="625" type="line"/>
      <point x="203" y="389" type="line"/>
      <point x="211" y="355" type="line"/>
      <point x="317" y="358"/>
      <point x="407" y="317"/>
    </contour>
  </outline>
</glyph>
<glyph name="tsuperior" format="1">
  <advance width="257"/>
  <outline>
    <contour>
      <point x="137" y="482" type="curve"/>
      <point x="137" y="655" type="line"/>
      <point x="223" y="655" type="line"/>
      <point x="223" y="700" type="line"/>
      <point x="137" y="700" type="line"/>
      <point x="137" y="789" type="line"/>
      <point x="72" y="766" type="line"/>
      <point x="72" y="700" type="line"/>
      <point x="27" y="700" type="line"/>
      <point x="27" y="655" type="line"/>
      <point x="72" y="655" type="line"/>
      <point x="72" y="476" type="line" smooth="yes"/>
      <point x="72" y="405"/>
      <point x="122" y="380"/>
      <point x="167" y="380" type="curve" smooth="yes"/>
      <point x="183" y="380"/>
      <point x="217" y="383"/>
      <point x="235" y="390" type="curve"/>
      <point x="230" y="434" type="line"/>
      <point x="230" y="434"/>
      <point x="211" y="430"/>
      <point x="191" y="430" type="curve" smooth="yes"/>
      <point x="163" y="430"/>
      <point x="137" y="435"/>
    </contour>
  </outline>
</glyph>
<glyph name="twoprop" format="1">
  <advance width="554"/>
  <outline>
    <contour>
      <point x="71" y="0" type="line"/>
      <point x="502" y="0" type="line"/>
      <point x="502" y="75" type="line"/>
      <point x="168" y="75" type="line"/>
      <point x="227" y="130"/>
      <point x="289" y="195"/>
      <point x="344" y="259" type="curve" smooth="yes"/>
      <point x="411" y="338"/>
      <point x="471" y="424"/>
      <point x="471" y="524" type="curve" smooth="yes"/>
      <point x="471" y="646"/>
      <point x="393" y="715"/>
      <point x="271" y="715" type="curve" smooth="yes"/>
      <point x="144" y="715"/>
      <point x="59" y="626"/>
      <point x="66" y="500" type="curve"/>
      <point x="146" y="505" type="line"/>
      <point x="146" y="592"/>
      <point x="198" y="640"/>
      <point x="271" y="640" type="curve" smooth="yes"/>
      <point x="346" y="640"/>
      <point x="381" y="595"/>
      <point x="381" y="518" type="curve" smooth="yes"/>
      <point x="381" y="431"/>
      <point x="329" y="360"/>
      <point x="281" y="301" type="curve" smooth="yes"/>
      <point x="216" y="220"/>
      <point x="134" y="140"/>
      <point x="61" y="60" type="curve"/>
    </contour>
  </outline>
</glyph>
<glyph name="usuperior" format="1">
  <advance width="358"/>
  <outline>
    <contour>
      <point x="336" y="390" type="curve" smooth="yes"/>
      <point x="336" y="435" type="line"/>
      <point x="309" y="435"/>
      <point x="295" y="438"/>
      <point x="295" y="470" type="curve" smooth="yes"/>
      <point x="295" y="707" type="line"/>
      <point x="230" y="684" type="line"/>
      <point x="230" y="495" type="line"/>
      <point x="230" y="467"/>
      <point x="209" y="430"/>
      <point x="166" y="430" type="curve" smooth="yes"/>
      <point x="130" y="430"/>
      <point x="107" y="451"/>
      <point x="107" y="498" type="curve" smooth="yes"/>
      <point x="107" y="707" type="line"/>
      <point x="42" y="684" type="line"/>
      <point x="42" y="488" type="line" smooth="yes"/>
      <point x="42" y="419"/>
      <point x="82" y="380"/>
      <point x="149" y="380" type="curve" smooth="yes"/>
      <point x="196" y="380"/>
      <point x="225" y="405"/>
      <point x="238" y="430" type="curve"/>
      <point x="253" y="377"/>
      <point x="336" y="359"/>
    </contour>
  </outline>
</glyph>
<glyph name="y.alt" format="1">
  <advance width="522"/>
  <outline>
    <contour>
      <point x="78" y="187" type="line" smooth="yes"/>
      <point x="78" y="75"/>
      <point x="142" y="32"/>
      <point x="232" y="27" type="curve"/>
      <point x="138" y="-17" type="line" smooth="yes"/>
      <point x="81" y="-44"/>
      <point x="70" y="-67"/>
      <point x="70" y="-107" type="curve" smooth="yes"/>
      <point x="70" y="-190"/>
      <point x="132" y="-245"/>
      <point x="254" y="-245" type="curve" smooth="yes"/>
      <point x="377" y="-245"/>
      <point x="449" y="-178"/>
      <point x="449" y="-44" type="curve" smooth="yes"/>
      <point x="449" y="495" type="line"/>
      <point x="363" y="458" type="line"/>
      <point x="363" y="-49" type="line" smooth="yes"/>
      <point x="363" y="-139"/>
      <point x="325" y="-175"/>
      <point x="254" y="-175" type="curve" smooth="yes"/>
      <point x="188" y="-175"/>
      <point x="154" y="-148"/>
      <point x="154" y="-101" type="curve" smooth="yes"/>
      <point x="154" y="-75"/>
      <point x="158" y="-58"/>
      <point x="193" y="-41" type="curve" smooth="yes"/>
      <point x="303" y="15" type="line"/>
      <point x="303" y="85" type="line"/>
      <point x="261" y="85" type="line" smooth="yes"/>
      <point x="197.865384615" y="85"/>
      <point x="163" y="112"/>
      <point x="163" y="182" type="curve" smooth="yes"/>
      <point x="163" y="495" type="line"/>
      <point x="78" y="458" type="line"/>
    </contour>
  </outline>
</glyph>
<glyph name="zeroliningslash" format="1">
  <advance width="569"/>
  <outline>
    <contour>
      <point x="178" y="76" type="line"/>
      <point x="419" y="585" type="line"/>
      <point x="421" y="585"/>
      <point x="391" y="646"/>
      <point x="387" y="644" type="curve"/>
      <point x="143" y="123" type="line"/>
    </contour>
    <component base="zeroprop" xOffset="-25"/>
  </outline>
</glyph>
